<?xml version="1.0" encoding="utf-8" ?>
<svg xmlns="http://www.w3.org/2000/svg" xmlns:cc="http://creativecommons.org/ns#" xmlns:dc="http://purl.org/dc/elements/1.1/" xmlns:ev="http://www.w3.org/2001/xml-events" xmlns:inkscape="http://www.inkscape.org/namespaces/inkscape" xmlns:rdf="http://www.w3.org/1999/02/22-rdf-syntax-ns#" xmlns:sodipodi="http://sodipodi.sourceforge.net/DTD/sodipodi-0.dtd" xmlns:xlink="http://www.w3.org/1999/xlink" baseProfile="tiny" height="19.0cm" version="1.2" viewBox="0 0 529.1338582677165 718.1102362204724" width="14.0cm">
  <metadata>
    <rdf:RDF>
      <cc:Work>
        <dc:format>image/svg+xml</dc:format>
        <dc:source>vpype read page3.svg layout 14cmx19cm write book_page3.svg
</dc:source>
        <dc:date>2021-06-12T22:14:08.190046</dc:date>
      </cc:Work>
    </rdf:RDF>
  </metadata>
  <defs/>
  <g fill="none" id="layer1" inkscape:groupmode="layer" inkscape:label="1" stroke="#00f" style="display:inline">
    <polyline points="141.9634,84.2913 141.494,83.3673 140.57,82.4433 139.646,81.9739 137.798,81.9739 136.874,82.4433 135.95,83.3673 135.4807,84.2913 135.026,85.6699 135.026,87.9873 135.4807,89.3659 135.95,90.2973 136.874,91.2213 137.798,91.6833 139.646,91.6833 140.57,91.2213 141.494,90.2973 141.9634,89.3659 141.9634,87.9873"/>
    <line x1="139.646" x2="141.9634" y1="87.9873" y2="87.9873"/>
    <polyline points="144.7354,87.9873 150.2794,87.9873 150.2794,87.0633 149.8247,86.1393 149.3554,85.6699 148.4314,85.2153 147.038,85.2153 146.1287,85.6699 145.19,86.6086 144.7354,87.9873 144.7354,88.9113 145.19,90.2973 146.1287,91.2213 147.038,91.6833 148.4314,91.6833 149.3554,91.2213 150.2794,90.2973"/>
    <line x1="153.506" x2="153.506" y1="85.2153" y2="91.6833"/>
    <polyline points="153.506,87.0633 154.8994,85.6699 155.8234,85.2153 157.202,85.2153 158.1407,85.6699 158.5954,87.0633 158.5954,91.6833"/>
    <polyline points="161.822,87.9873 167.366,87.9873 167.366,87.0633 166.9114,86.1393 166.442,85.6699 165.518,85.2153 164.1247,85.2153 163.2154,85.6699 162.2767,86.6086 161.822,87.9873 161.822,88.9113 162.2767,90.2973 163.2154,91.2213 164.1247,91.6833 165.518,91.6833 166.442,91.2213 167.366,90.2973"/>
    <line x1="170.5927" x2="170.5927" y1="85.2153" y2="91.6833"/>
    <polyline points="170.5927,87.9873 171.062,86.6086 171.986,85.6699 172.91,85.2153 174.2887,85.2153"/>
    <line x1="181.6953" x2="181.6953" y1="85.2153" y2="91.6833"/>
    <polyline points="181.6953,86.6086 180.7713,85.6699 179.8473,85.2153 178.454,85.2153 177.5446,85.6699 176.606,86.6086 176.1513,87.9873 176.1513,88.9113 176.606,90.2973 177.5446,91.2213 178.454,91.6833 179.8473,91.6833 180.7713,91.2213 181.6953,90.2973"/>
    <polyline points="185.846,81.9739 185.846,89.8353 186.3153,91.2213 187.2246,91.6833 188.1633,91.6833"/>
    <line x1="184.4673" x2="187.694" y1="85.2153" y2="85.2153"/>
    <polygon points="191.39,81.9739 190.9206,81.5193 190.466,81.9739 190.9206,82.4433"/>
    <line x1="190.9206" x2="190.9206" y1="85.2153" y2="91.6833"/>
    <line x1="194.6166" x2="194.6166" y1="85.2153" y2="91.6833"/>
    <polyline points="194.6166,87.0633 196.01,85.6699 196.9339,85.2153 198.3126,85.2153 199.2513,85.6699 199.7059,87.0633 199.7059,91.6833"/>
    <polyline points="208.4766,85.2153 208.4766,92.6073 208.022,94.0006 207.5526,94.4553 206.6286,94.9099 205.2353,94.9099 204.326,94.4553"/>
    <polyline points="208.4766,86.6086 207.5526,85.6699 206.6286,85.2153 205.2353,85.2153 204.326,85.6699 203.3873,86.6086 202.9326,87.9873 202.9326,88.9113 203.3873,90.2973 204.326,91.2213 205.2353,91.6833 206.6286,91.6833 207.5526,91.2213 208.4766,90.2973"/>
    <line x1="222.7914" x2="222.7914" y1="85.2153" y2="91.6833"/>
    <polyline points="222.7914,86.6086 221.8674,85.6699 220.9434,85.2153 219.55,85.2153 218.6407,85.6699 217.702,86.6086 217.2474,87.9873 217.2474,88.9113 217.702,90.2973 218.6407,91.2213 219.55,91.6833 220.9434,91.6833 221.8674,91.2213 222.7914,90.2973"/>
    <polyline points="236.6514,86.6086 236.182,85.6699 234.8034,85.2153 233.41,85.2153 232.0167,85.6699 231.562,86.6086 232.0167,87.5179 232.9554,87.9873 235.258,88.4566 236.182,88.9113 236.6514,89.8353 236.6514,90.2973 236.182,91.2213 234.8034,91.6833 233.41,91.6833 232.0167,91.2213 231.562,90.2973"/>
    <polygon points="240.3478,81.9739 239.8785,81.5193 239.4238,81.9739 239.8785,82.4433"/>
    <line x1="239.8785" x2="239.8785" y1="85.2153" y2="91.6833"/>
    <line x1="243.5745" x2="243.5745" y1="85.2153" y2="91.6833"/>
    <polyline points="243.5745,87.0633 244.9678,85.6699 245.8918,85.2153 247.2705,85.2153 248.2091,85.6699 248.6638,87.0633 248.6638,91.6833"/>
    <polyline points="251.8898,87.9873 257.4338,87.9873 257.4338,87.0633 256.9791,86.1393 256.5098,85.6699 255.5858,85.2153 254.1924,85.2153 253.2831,85.6699 252.3444,86.6086 251.8898,87.9873 251.8898,88.9113 252.3444,90.2973 253.2831,91.2213 254.1924,91.6833 255.5858,91.6833 256.5098,91.2213 257.4338,90.2973"/>
    <polyline points="266.6737,81.9739 266.6737,89.8353 267.1431,91.2213 268.0524,91.6833 268.9911,91.6833"/>
    <line x1="265.2951" x2="268.5217" y1="85.2153" y2="85.2153"/>
    <polygon points="271.7484,86.6086 271.2937,87.9873 271.2937,88.9113 271.7484,90.2973 272.6871,91.2213 273.5964,91.6833 274.9897,91.6833 275.9137,91.2213 276.8377,90.2973 277.2924,88.9113 277.2924,87.9873 276.8377,86.6086 275.9137,85.6699 274.9897,85.2153 273.5964,85.2153 272.6871,85.6699"/>
    <line x1="280.5194" x2="280.5194" y1="85.2153" y2="91.6833"/>
    <polyline points="280.5194,87.0633 281.9127,85.6699 282.8367,85.2153 284.2154,85.2153 285.154,85.6699 285.6087,87.0633 285.6087,91.6833"/>
    <polyline points="288.8357,87.9873 294.3797,87.9873 294.3797,87.0633 293.925,86.1393 293.4557,85.6699 292.5317,85.2153 291.1383,85.2153 290.229,85.6699 289.2903,86.6086 288.8357,87.9873 288.8357,88.9113 289.2903,90.2973 290.229,91.2213 291.1383,91.6833 292.5317,91.6833 293.4557,91.2213 294.3797,90.2973"/>
    <polygon points="303.6196,81.9739 303.1503,81.5193 302.6956,81.9739 303.1503,82.4433"/>
    <line x1="303.1504" x2="303.1504" y1="85.2153" y2="91.6833"/>
    <line x1="306.8463" x2="306.8463" y1="85.2153" y2="91.6833"/>
    <polyline points="306.8463,87.0633 308.2397,85.6699 309.1637,85.2153 310.5424,85.2153 311.481,85.6699 311.9357,87.0633 311.9357,91.6833"/>
    <line x1="321.1603" x2="321.1603" y1="81.9739" y2="91.6833"/>
    <polyline points="321.1603,81.9739 325.3257,81.9739 326.7043,82.4433 327.1737,82.9126 327.643,83.8219 327.643,85.2153 327.1737,86.1393 326.7043,86.6086 325.3257,87.0633 321.1603,87.0633"/>
    <polyline points="330.8703,85.2153 330.8703,89.8353 331.3396,91.2213 332.2636,91.6833 333.657,91.6833 334.5663,91.2213 335.9596,89.8353"/>
    <line x1="335.9596" x2="335.9596" y1="85.2153" y2="91.6833"/>
    <line x1="339.6403" x2="339.6403" y1="85.2153" y2="91.6833"/>
    <polyline points="339.6403,87.9873 340.1096,86.6086 341.0336,85.6699 341.9576,85.2153 343.3363,85.2153"/>
    <polyline points="345.1996,87.9873 350.7436,87.9873 350.7436,87.0633 350.2889,86.1393 349.8196,85.6699 348.8956,85.2153 347.5023,85.2153 346.5929,85.6699 345.6543,86.6086 345.1996,87.9873 345.1996,88.9113 345.6543,90.2973 346.5929,91.2213 347.5023,91.6833 348.8956,91.6833 349.8196,91.2213 350.7436,90.2973"/>
    <line x1="359.5142" x2="359.5142" y1="81.9739" y2="91.6833"/>
    <polyline points="359.5142,81.9739 362.7556,81.9739 364.1489,82.4433 365.0582,83.3673 365.5276,84.2913 365.9969,85.6699 365.9969,87.9873 365.5276,89.3659 365.0582,90.2973 364.1489,91.2213 362.7556,91.6833 359.5142,91.6833"/>
    <line x1="374.3125" x2="374.3125" y1="85.2153" y2="91.6833"/>
    <polyline points="374.3125,86.6086 373.3885,85.6699 372.4645,85.2153 371.0712,85.2153 370.1619,85.6699 369.2232,86.6086 368.7685,87.9873 368.7685,88.9113 369.2232,90.2973 370.1619,91.2213 371.0712,91.6833 372.4645,91.6833 373.3885,91.2213 374.3125,90.2973"/>
    <polyline points="378.4635,81.9739 378.4635,89.8353 378.9328,91.2213 379.8422,91.6833 380.7808,91.6833"/>
    <line x1="377.0848" x2="380.3115" y1="85.2153" y2="85.2153"/>
    <line x1="388.6275" x2="388.6275" y1="85.2153" y2="91.6833"/>
    <polyline points="388.6275,86.6086 387.7035,85.6699 386.7795,85.2153 385.3861,85.2153 384.4768,85.6699 383.5382,86.6086 383.0835,87.9873 383.0835,88.9113 383.5382,90.2973 384.4768,91.2213 385.3861,91.6833 386.7795,91.6833 387.7035,91.2213 388.6275,90.2973"/>
    <polygon points="89.3258,326.684 89.3258,307.6824 198.3205,307.6824 198.3205,326.684"/>
    <polygon points="96.3255,307.6815 96.3255,309.6816 89.3258,309.6816 89.3258,307.6815"/>
    <polygon points="80.3263,279.6793 80.3263,294.6805 65.327,294.6805 65.327,279.6793"/>
    <polygon points="72.3267,293.6804 72.3267,294.6805 65.327,294.6805 65.327,293.6804"/>
    <polygon points="72.3267,279.6793 72.3267,280.6794 65.327,280.6794 65.327,279.6793"/>
    <polygon points="76.3983,292.611 76.0765,292.8095 75.7437,292.989 75.401,293.1488 75.0497,293.2884 74.6908,293.4073 74.3256,293.5052 73.9553,293.5816 73.5812,293.6364 73.2046,293.6694 72.8266,293.6804 72.4487,293.6694 72.0721,293.6364 71.698,293.5816 71.3277,293.5052 70.9625,293.4073 70.6036,293.2884 70.2522,293.1488 69.9096,292.989 69.5768,292.8095 69.255,292.611 68.9453,292.3941 68.6487,292.1596 68.3663,291.9082 68.0989,291.6408 67.8476,291.3583 67.6131,291.0617 67.3962,290.752 67.1978,290.4301 67.0183,290.0973 66.8585,289.7546 66.7189,289.4032 66.6,289.0443 66.5022,288.679 66.4257,288.3087 66.3709,287.9346 66.338,287.5579 66.327,287.1799 66.338,286.8019 66.3709,286.4252 66.4257,286.0511 66.5022,285.6808 66.6,285.3155 66.7189,284.9566 66.8585,284.6052 67.0183,284.2625 67.1978,283.9297 67.3962,283.6078 67.6131,283.2981 67.8476,283.0015 68.0989,282.719 68.3663,282.4516 68.6487,282.2002 68.9453,281.9657 69.255,281.7488 69.5768,281.5503 69.9096,281.3708 70.2522,281.211 70.6036,281.0714 70.9625,280.9525 71.3277,280.8546 71.698,280.7782 72.0721,280.7234 72.4487,280.6904 72.8266,280.6794 73.2046,280.6904 73.5812,280.7234 73.9553,280.7782 74.3256,280.8546 74.6908,280.9525 75.0497,281.0714 75.401,281.211 75.7437,281.3708 76.0765,281.5503 76.3983,281.7488 76.708,281.9657 77.0045,282.2002 77.287,282.4516 77.5543,282.719 77.8057,283.0015 78.0402,283.2981 78.257,283.6078 78.4555,283.9297 78.635,284.2625 78.7947,284.6052 78.9343,284.9566 79.0533,285.3155 79.1511,285.6808 79.2276,286.0511 79.2824,286.4252 79.3153,286.8019 79.3263,287.1799 79.3153,287.5579 79.2824,287.9346 79.2276,288.3087 79.1511,288.679 79.0533,289.0443 78.9343,289.4032 78.7947,289.7546 78.635,290.0973 78.4555,290.4301 78.257,290.752 78.0402,291.0617 77.8057,291.3583 77.5543,291.6408 77.287,291.9082 77.0045,292.1596 76.708,292.3941"/>
    <polygon points="89.3258,297.6816 89.3258,278.6801 135.3236,278.6801 135.3236,297.6816"/>
    <polygon points="96.3255,295.6806 96.3255,297.6807 89.3258,297.6807 89.3258,295.6806"/>
    <polygon points="96.3255,278.6793 96.3255,280.6794 89.3258,280.6794 89.3258,278.6793"/>
    <polygon points="135.3236,278.6793 135.3236,280.6794 128.324,280.6794 128.324,278.6793"/>
    <polygon points="451.3081,127.6678 443.3085,135.6685 443.3085,152.6699 451.3081,160.6706 299.3155,160.6706 299.3155,127.6678"/>
    <polygon points="306.3153,158.67 306.3153,160.6702 299.3155,160.6702 299.3155,158.67"/>
    <polygon points="306.3153,127.6676 306.3153,129.6677 299.3155,129.6677 299.3155,127.6676"/>
    <polygon points="465.3074,165.671 457.3078,173.6716 457.3078,190.6731 465.3074,198.6737 299.3155,198.6737 299.3155,165.671"/>
    <polygon points="306.3153,196.673 306.3153,198.6732 299.3155,198.6732 299.3155,196.673"/>
    <polygon points="306.3153,165.6705 306.3153,167.6707 299.3155,167.6707 299.3155,165.6705"/>
    <line x1="68.3269" x2="92.3257" y1="294.6805" y2="307.6815"/>
    <line x1="92.3257" x2="92.3257" y1="297.6807" y2="307.6815"/>
    <polygon points="89.3258,268.6793 289.316,268.6793 289.316,128.6679 89.3258,128.6679"/>
    <line x1="89.3258" x2="93.3256" y1="198.6737" y2="198.6737"/>
    <line x1="289.3161" x2="285.3162" y1="198.6737" y2="198.6737"/>
    <line x1="89.3258" x2="93.3256" y1="163.6708" y2="163.6708"/>
    <line x1="289.3161" x2="285.3162" y1="163.6708" y2="163.6708"/>
    <line x1="89.3258" x2="93.3256" y1="233.6765" y2="233.6765"/>
    <line x1="289.3161" x2="285.3162" y1="233.6765" y2="233.6765"/>
    <polyline points="89.3258,188.7633 89.6013,188.4508 89.8564,188.1389 90.0911,187.8275 90.3054,187.5168 90.4992,187.2066 90.6727,186.897 90.8257,186.588 90.9924,186.2278 91.1591,185.8678 91.3257,185.5078 91.4924,185.1479 91.659,184.788 91.8257,184.4283 91.9923,184.0689 92.159,183.7103 92.3257,183.3523 92.4923,182.9951 92.659,182.6385 92.8256,182.2827 92.9923,181.9273 93.159,181.5721 93.3256,181.2172 93.4923,180.8624 93.6589,180.5078 93.8256,180.1534 93.9922,179.7995 94.1589,179.4464 94.3256,179.0941 94.4922,178.7427 94.6589,178.392 94.8255,178.0422 94.9922,177.693 95.1589,177.344 95.3255,176.9954 95.4922,176.6471 95.6588,176.2992 95.8255,175.9515 95.9921,175.6045 96.1588,175.2584 96.3255,174.9132 96.4921,174.5689 96.6588,174.2256 96.8254,173.8831 96.9921,173.5413 97.1588,173.2 97.3254,172.8592 97.4921,172.5188 97.6587,172.1788 97.8254,171.8393 98.0254,171.4329 98.2254,171.028 98.4254,170.6245 98.6253,170.2224 98.8253,169.8218 99.0253,169.4223 99.2253,169.0237 99.4253,168.626 99.6253,168.229 99.8253,167.8329 100.0253,167.4381 100.2253,167.0448 100.4253,166.653 100.6252,166.2629 100.8252,165.8743 101.0252,165.487 101.2252,165.1008 101.4252,164.7156 101.6252,164.3314 101.8252,163.9482 102.0252,163.5665 102.2252,163.1864 102.4252,162.808 102.6251,162.4314 102.8251,162.0565 103.0251,161.683 103.2251,161.3107 103.4251,160.9395 103.6251,160.5696 103.8251,160.2008 104.0251,159.8335 104.2251,159.4681 104.4251,159.1045 104.625,158.7429 104.825,158.3831 105.025,158.0249 105.225,157.668 105.425,157.3123 105.625,156.958 105.825,156.605 106.025,156.2537 106.225,155.9044 106.425,155.5571 106.6249,155.2118 106.8249,154.8686 107.0249,154.5271 107.2249,154.187 107.4249,153.8483 107.6249,153.5111 107.8249,153.1752 108.0249,152.8412 108.2249,152.5093 108.4249,152.1797 108.6248,151.8522 108.8248,151.5269 109.0748,151.1228 109.3248,150.7212 109.5748,150.3219 109.8248,149.9251 110.0748,149.5313 110.3248,149.1411 110.5747,148.7544 110.8247,148.3713 111.0747,147.9914 111.3247,147.6141 111.5747,147.2395 111.8247,146.8675 112.0747,146.4987 112.3247,146.1336 112.5746,145.7722 112.8246,145.4144 113.0746,145.06 113.3246,144.7085 113.5746,144.3599 113.8246,144.0142 114.0746,143.6719 114.3246,143.3334 114.5745,142.9986 114.8245,142.6676 115.0745,142.34 115.3245,142.0157 115.5745,141.6945 115.8245,141.3765 116.0745,141.0621 116.3245,140.7514 116.5744,140.4446 116.8244,140.1415 117.0744,139.8422 117.3244,139.5463 117.5744,139.2538 117.8245,138.9648 118.1578,138.5852 118.4911,138.2125 118.8244,137.8469 119.1578,137.4879 119.4911,137.1353 119.8244,136.789 120.1577,136.4495 120.491,136.1173 120.8243,135.7923 121.1577,135.4742 121.491,135.1626 121.8243,134.8575 122.1576,134.5594 122.4909,134.2688 122.8242,133.9857 123.1576,133.7097 123.4909,133.4404 123.8242,133.1776 124.1575,132.9221 124.4908,132.6743 124.8241,132.4343 125.1575,132.2015 125.4908,131.9755 125.8241,131.7562 126.1574,131.5443 126.4907,131.3403 126.824,131.1442 127.1574,130.9556 127.4907,130.774 127.824,130.5993 128.324,130.3513 128.8239,130.121 129.3239,129.9077 129.8239,129.7108 130.3239,129.5308 130.8238,129.3682 131.3238,129.2228 131.8238,129.0944 132.3238,128.983 132.8237,128.8888 133.3237,128.8118 133.8237,128.7524 134.3237,128.7102 134.8236,128.6849 135.3236,128.6768 135.8236,128.6865 136.3236,128.7135 136.8235,128.7573 137.3235,128.8184 137.8235,128.897 138.3235,128.9928 138.8234,129.1056 139.3234,129.2355 139.8234,129.3827 140.3234,129.5471 140.8233,129.7283 141.3233,129.9266 141.8233,130.1418 142.3233,130.3739 142.8232,130.623 143.1566,130.7984 143.4899,130.9813 143.8232,131.1717 144.1565,131.3694 144.4898,131.5744 144.8231,131.7866 145.1565,132.0061 145.4898,132.2332 145.8231,132.4679 146.1564,132.7097 146.4897,132.9585 146.823,133.2141 147.1564,133.4769 147.4897,133.7473 147.823,134.0252 148.1563,134.3102 148.4896,134.6017 148.8229,134.8998 149.1563,135.2048 149.4896,135.5174 149.8229,135.8376 150.1562,136.1646 150.4895,136.4978 150.8228,136.8371 151.1561,137.1832 151.4895,137.5368 151.8228,137.8979 152.1561,138.2657 152.4894,138.6393 152.8227,139.0188 153.0727,139.3076 153.3227,139.6005 153.5727,139.8974 153.8227,140.1984 154.0727,140.503 154.3227,140.8108 154.5727,141.1217 154.8226,141.4359 155.0726,141.7535 155.3226,142.075 155.5726,142.4004 155.8226,142.7296 156.0726,143.0623 156.3226,143.398 156.5726,143.7368 156.8225,144.0786 157.0725,144.4238 157.3225,144.7727 157.5725,145.1252 157.8225,145.4814 158.0725,145.8408 158.3225,146.2032 158.5725,146.5685 158.8224,146.9367 159.0724,147.3081 159.3224,147.683 159.5724,148.0614 159.8224,148.4432 160.0724,148.8282 160.3224,149.2158 160.5724,149.6061 160.8223,149.9991 161.0223,150.3157 161.2223,150.6344 161.4223,150.9553 161.6223,151.2783 161.8223,151.6034 162.0223,151.9304 162.2223,152.2589 162.4223,152.589 162.6222,152.9206 162.8222,153.2538 163.0222,153.5887 163.2222,153.9258 163.4222,154.2648 163.6222,154.606 163.8222,154.9492 164.0222,155.2942 164.2222,155.6405 164.4222,155.9881 164.6222,156.3371 164.8221,156.6875 165.0221,157.0396 165.2221,157.3936 165.4221,157.7496 165.6221,158.1076 165.8221,158.4675 166.0221,158.829 166.2221,159.1917 166.4221,159.5556 166.622,159.9207 166.822,160.2869 167.022,160.6547 167.222,161.0243 167.422,161.3958 167.622,161.7692 167.822,162.1444 168.022,162.5211 168.222,162.8988 168.422,163.2775 168.622,163.6572 168.8219,164.038 169.0219,164.4201 169.2219,164.8039 169.4219,165.1895 169.6219,165.5767 169.8219,165.9657 170.0219,166.3559 170.2219,166.747 170.4219,167.139 170.6219,167.5319 170.8218,167.9257 171.0218,168.3207 171.2218,168.7172 171.4218,169.1152 171.6218,169.5148 171.8218,169.916 172.0218,170.3182 172.2218,170.7212 172.4218,171.125 172.6217,171.5295 172.8217,171.9347 172.9884,172.2731 173.1551,172.6125 173.3217,172.9529 173.4884,173.2942 173.655,173.6365 173.8217,173.9797 173.9883,174.3236 174.155,174.6679 174.3217,175.0126 174.4883,175.3577 174.655,175.7032 174.8216,176.0491 174.9883,176.3957 175.155,176.743 175.3216,177.0912 175.4883,177.4403 175.6549,177.7902 175.8216,178.1409 175.9882,178.4922 176.1549,178.8438 176.3216,179.1956 176.4882,179.5478 176.6549,179.9002 176.8215,180.2529 176.9882,180.6061 177.1549,180.9601 177.3215,181.3148 177.4882,181.6702 177.6548,182.0263 177.8215,182.3832 177.9881,182.7405 178.1548,183.098 178.3215,183.4556 178.4881,183.8134 178.6548,184.1714 178.8214,184.5295 178.9881,184.8879 179.1548,185.247 179.3214,185.6068 179.4881,185.9671 179.6547,186.3281 179.8214,186.6897 179.988,187.0517 180.1547,187.4137 180.3214,187.7756 180.488,188.1377 180.6547,188.4997 180.8213,188.8618 180.988,189.2241 181.1547,189.587 181.3213,189.9504 181.488,190.3143 181.6546,190.6787 181.8213,191.0437 181.988,191.4088 182.1546,191.7738 182.3213,192.1387 182.4879,192.5036 182.6546,192.8683 182.8213,193.2329 182.9879,193.5977 183.1546,193.9629 183.3212,194.3285 183.4879,194.6944 183.6545,195.0608 183.8212,195.4276 183.9878,195.7944 184.1545,196.1611 184.3212,196.5275 184.4878,196.8937 184.6545,197.2597 184.8211,197.6254 184.9878,197.9912 185.1545,198.3573 185.3211,198.7236 185.4878,199.0903 185.6544,199.4572 185.8211,199.8243 185.9877,200.1915 186.1544,200.5583 186.3211,200.9247 186.4877,201.2908 186.6544,201.6566 186.821,202.0221 186.9877,202.3874 187.1544,202.7529 187.321,203.1186 187.4877,203.4844 187.6543,203.8504 187.821,204.2165 187.9876,204.5825 188.1543,204.948 188.321,205.3131 188.4876,205.6777 188.6543,206.0418 188.8209,206.4055 188.9876,206.769 189.1543,207.1325 189.3209,207.496 189.4876,207.8596 189.6542,208.2232 189.8209,208.5869 189.9876,208.9502 190.1542,209.313 190.3209,209.6753 190.4875,210.0369 190.6542,210.3979 190.8208,210.7584 190.9875,211.1186 191.1542,211.4786 191.3208,211.8386 191.4875,212.1985 191.6541,212.5583 191.8208,212.9181 191.9874,213.2775 192.1541,213.6361 192.3208,213.9941 192.4874,214.3513 192.6541,214.7078 192.8207,215.0637 192.9874,215.4191 193.1541,215.7742 193.3207,216.1292 193.4874,216.484 193.654,216.8386 193.8207,217.193 193.9873,217.5469 194.154,217.9 194.3207,218.2523 194.4873,218.6037 194.654,218.9544 194.8206,219.3042 194.9873,219.6534 195.154,220.0024 195.3206,220.351 195.4873,220.6993 195.6539,221.0472 195.8206,221.3949 195.9873,221.7419 196.1539,222.088 196.3206,222.4332 196.4872,222.7775 196.6539,223.1208 196.8206,223.4633 196.9872,223.805 197.1539,224.1464 197.3205,224.4872 197.4872,224.8276 197.6538,225.1676 197.8205,225.5071 198.0205,225.9135 198.2205,226.3184 198.4205,226.7219 198.6205,227.124 198.8205,227.5246 199.0204,227.924 199.2204,228.3227 199.4204,228.7204 199.6204,229.1174 199.8204,229.5134 200.0204,229.9083 200.2204,230.3016 200.4204,230.6933 200.6204,231.0835 200.8203,231.4721 201.0203,231.8593 201.2203,232.2456 201.4203,232.6308 201.6203,233.015 201.8203,233.3981 202.0203,233.7799 202.2203,234.16 202.4203,234.5384 202.6203,234.915 202.8202,235.2899 203.0202,235.6634 203.2202,236.0357 203.4202,236.4069 203.6202,236.7768 203.8202,237.1456 204.0202,237.5129 204.2202,237.8783 204.4202,238.2419 204.6201,238.6035 204.8201,238.9633 205.0201,239.3215 205.2201,239.6784 205.4201,240.034 205.6201,240.3883 205.8201,240.7413 206.0201,241.0927 206.2201,241.442 206.4201,241.7893 206.62,242.1345 206.82,242.4778 207.02,242.8193 207.22,243.1594 207.42,243.4981 207.62,243.8353 207.82,244.1711 208.02,244.5052 208.22,244.837 208.42,245.1667 208.62,245.4942 208.8199,245.8195 209.0699,246.2236 209.3199,246.6252 209.5699,247.0244 209.8199,247.4212 210.0699,247.8151 210.3199,248.2053 210.5699,248.592 210.8199,248.975 211.0699,249.355 211.3199,249.7323 211.5699,250.1069 211.8199,250.4789 212.0699,250.8477 212.3199,251.2128 212.5699,251.5742 212.8199,251.9319 213.0698,252.2864 213.3198,252.6379 213.5698,252.9865 213.8198,253.3321 214.0698,253.6744 214.3198,254.013 214.5698,254.3477 214.8198,254.6788 215.0697,255.0063 215.3197,255.3306 215.5697,255.6518 215.8197,255.9698 216.0697,256.2843 216.3197,256.5949 216.5697,256.9017 216.8196,257.2047 217.0696,257.504 217.3196,257.8 217.5696,258.0924 217.8196,258.3815 218.1529,258.7611 218.4862,259.1337 218.8195,259.4993 219.1529,259.8583 219.4862,260.2109 219.8195,260.5572 220.1528,260.8967 220.4861,261.2289 220.8194,261.5539 221.1528,261.872 221.4861,262.1836 221.8194,262.4887 222.1527,262.7868 222.486,263.0774 222.8193,263.3605 223.1527,263.6364 223.486,263.9058 223.8193,264.1685 224.1526,264.4241 224.4859,264.6719 224.8192,264.9119 225.1526,265.1446 225.4859,265.3707 225.8192,265.5899 226.1525,265.8019 226.4858,266.0058 226.8192,266.2019 227.1525,266.3905 227.4858,266.5722 227.8191,266.7468 228.3191,266.9948 228.8191,267.2251 229.319,267.4384 229.819,267.6353 230.319,267.8153 230.819,267.9779 231.3189,268.1233 231.8189,268.2517 232.3189,268.363 232.8189,268.4573 233.3188,268.5343 233.8188,268.5936 234.3188,268.6358 234.8187,268.6611 235.3187,268.6691 235.8187,268.6591 236.3187,268.6321 236.8186,268.5883 237.3186,268.5273 237.8186,268.4487 238.3186,268.3529 238.8185,268.2401 239.3185,268.1102 239.8185,267.963 240.3185,267.7986 240.8184,267.6174 241.3184,267.4191 241.8184,267.2039 242.3184,266.9718 242.8184,266.7227 243.1517,266.5473 243.485,266.3644 243.8183,266.174 244.1516,265.9763 244.4849,265.7713 244.8183,265.5592 245.1516,265.3396 245.4849,265.1125 245.8182,264.8778 246.1515,264.636 246.4848,264.3873 246.8182,264.1316 247.1515,263.8688 247.4848,263.5984 247.8181,263.3205 248.1514,263.0355 248.4847,262.744 248.8181,262.446 249.1514,262.1409 249.4847,261.8283 249.818,261.5082 250.1513,261.1811 250.4846,260.848 250.8179,260.5087 251.1513,260.1626 251.4846,259.809 251.8179,259.4479 252.1512,259.0801 252.4845,258.7065 252.8178,258.327 253.0678,258.0381 253.3178,257.7453 253.5678,257.4483 253.8178,257.1474 254.0678,256.8428 254.3178,256.5351 254.5678,256.2241 254.8177,255.91 255.0677,255.5923 255.3177,255.2708 255.5677,254.9455 255.8177,254.6163 256.0677,254.2836 256.3177,253.9479 256.5677,253.6091 256.8177,253.2673 257.0676,252.9221 257.3176,252.5732 257.5676,252.2207 257.8176,251.8645 258.0676,251.505 258.3176,251.1427 258.5676,250.7774 258.8176,250.4092 259.0675,250.0378 259.3175,249.6629 259.5675,249.2845 259.8175,248.9027 260.0675,248.5177 260.3175,248.1301 260.5675,247.7398 260.8175,247.3468 261.0174,247.0302 261.2174,246.7115 261.4174,246.3906 261.6174,246.0676 261.8174,245.7425 262.0174,245.4155 262.2174,245.087 262.4174,244.7569 262.6174,244.4253 262.8174,244.0922 263.0173,243.7572 263.2173,243.4202 263.4173,243.0811 263.6173,242.7399 263.8173,242.3967 264.0173,242.0518 264.2173,241.7055 264.4173,241.3578 264.6173,241.0088 264.8173,240.6584 265.0172,240.3063 265.2172,239.9523 265.4172,239.5963 265.6172,239.2383 265.8172,238.8784 266.0172,238.5169 266.2172,238.1542 266.4172,237.7903 266.6172,237.4253 266.8172,237.059 267.0171,236.6913 267.2171,236.3216 267.4171,235.9501 267.6171,235.5768 267.8171,235.2015 268.0171,234.8249 268.2171,234.4472 268.4171,234.0684 268.6171,233.6887 268.817,233.308 269.017,232.9258 269.217,232.542 269.417,232.1565 269.617,231.7692 269.817,231.3803 270.017,230.99 270.217,230.5989 270.417,230.2069 270.617,229.814 270.8169,229.4203 271.0169,229.0253 271.2169,228.6288 271.4169,228.2307 271.6169,227.8311 271.8169,227.43 272.0169,227.0277 272.2169,226.6247 272.4169,226.221 272.6169,225.8165 272.8169,225.4113 272.9835,225.0728 273.1502,224.7334 273.3168,224.3931 273.4835,224.0518 273.6501,223.7095 273.8168,223.3663 273.9835,223.0224 274.1501,222.6781 274.3168,222.3334 274.4834,221.9882 274.6501,221.6427 274.8168,221.2968 274.9834,220.9503 275.1501,220.6029 275.3167,220.2547 275.4834,219.9057 275.65,219.5558 275.8167,219.2051 275.9834,218.8538 276.15,218.5022 276.3167,218.1504 276.4833,217.7982 276.65,217.4458 276.8167,217.0931 276.9833,216.7399 277.15,216.3859 277.3166,216.0312 277.4833,215.6758 277.6499,215.3196 277.8166,214.9628 277.9833,214.6054 278.1499,214.248 278.3166,213.8903 278.4832,213.5326 278.6499,213.1746 278.8166,212.8165 278.9832,212.4581 279.1499,212.0989 279.3165,211.7392 279.4832,211.3789 279.6498,211.0179 279.8165,210.6562 279.9832,210.2943 280.1498,209.9323 280.3165,209.5703 280.4831,209.2083 280.6498,208.8463 280.8165,208.4842 280.9831,208.1219 281.1498,207.759 281.3164,207.3956 281.4831,207.0318 281.6497,206.6674 281.8164,206.3024 281.9831,205.9373 282.1497,205.5723 282.3164,205.2074 282.483,204.8425 282.6497,204.4778 282.8164,204.1132 282.983,203.7484 283.1497,203.3832 283.3163,203.0177 283.483,202.6517 283.6496,202.2853 283.8163,201.9185 283.983,201.5517 284.1496,201.185 284.3163,200.8186 284.4829,200.4524 284.6496,200.0864 284.8162,199.7207 284.9829,199.3549 285.1496,198.9888 285.3162,198.6225 285.4829,198.2559 285.6495,197.889 285.8162,197.5218 285.9829,197.1547 286.1495,196.7879 286.3162,196.4214 286.4828,196.0553 286.6495,195.6895 286.8162,195.324 286.9828,194.9587 287.1495,194.5932 287.3161,194.2275 287.4828,193.8617 287.6494,193.4957 287.8161,193.1296 287.9334,192.8721 288.063,192.5879 288.205,192.277 288.3593,191.9393 288.5259,191.5749 288.7049,191.1838 288.8963,190.766 289.1,190.3215 289.316,189.8503"/>
    <polyline points="94.3495,313.7374 94.3495,320.1698 94.7335,321.3039 95.4775,321.6819 96.2454,321.6819"/>
    <line x1="93.2216" x2="95.8614" y1="316.3896" y2="316.3896"/>
    <line x1="102.6651" x2="102.6651" y1="316.3896" y2="321.6819"/>
    <polyline points="102.6651,317.5297 101.9091,316.7616 101.1532,316.3896 100.0132,316.3896 99.2693,316.7616 98.5013,317.5297 98.1293,318.6577 98.1293,319.4138 98.5013,320.5479 99.2693,321.3039 100.0132,321.6819 101.1532,321.6819 101.9091,321.3039 102.6651,320.5479"/>
    <line x1="105.6769" x2="105.6769" y1="313.7374" y2="321.6819"/>
    <polyline points="105.6769,317.5297 106.4449,316.7616 107.1888,316.3896 108.3288,316.3896 109.0847,316.7616 109.8407,317.5297 110.2127,318.6577 110.2127,319.4138 109.8407,320.5479 109.0847,321.3039 108.3288,321.6819 107.1888,321.6819 106.4449,321.3039 105.6769,320.5479"/>
    <line x1="112.4807" x2="113.9925" y1="316.3896" y2="321.6819"/>
    <line x1="115.5044" x2="113.9925" y1="316.3896" y2="321.6819"/>
    <line x1="115.5044" x2="117.0164" y1="316.3896" y2="321.6819"/>
    <line x1="118.5284" x2="117.0164" y1="316.3896" y2="321.6819"/>
    <line x1="121.1681" x2="121.1681" y1="316.3896" y2="321.6819"/>
    <polyline points="121.1681,318.6577 121.5521,317.5297 122.3081,316.7616 123.064,316.3896 124.192,316.3896"/>
    <polygon points="126.0879,314.1214 126.4719,313.7374 126.0879,313.3654 125.716,313.7374"/>
    <line x1="126.0879" x2="126.0879" y1="316.3896" y2="321.6819"/>
    <polyline points="129.4957,313.7374 129.4957,320.1698 129.8797,321.3039 130.6237,321.6819 131.3916,321.6819"/>
    <line x1="128.3678" x2="131.0076" y1="316.3896" y2="316.3896"/>
    <polyline points="133.2755,318.6577 137.8112,318.6577 137.8112,317.9017 137.4392,317.1456 137.0553,316.7616 136.2993,316.3896 135.1594,316.3896 134.4154,316.7616 133.6475,317.5297 133.2755,318.6577 133.2755,319.4138 133.6475,320.5479 134.4154,321.3039 135.1594,321.6819 136.2993,321.6819 137.0553,321.3039 137.8112,320.5479"/>
    <polyline points="140.0791,319.4138 140.0791,318.6577 140.4511,317.5297 141.2191,317.1456 141.963,317.1456 142.731,317.5297 144.2429,318.6577 144.9869,319.0418 145.7548,319.0418 146.4988,318.6577 146.8828,317.9017"/>
    <polyline points="140.0791,318.6577 140.4511,317.9017 141.2191,317.5297 141.963,317.5297 142.731,317.9017 144.2429,319.0418 144.9869,319.4138 145.7548,319.4138 146.4988,319.0418 146.8828,317.9017 146.8828,317.1456"/>
    <polyline points="157.8502,317.5297 157.4662,316.7616 156.3382,316.3896 155.1983,316.3896 154.0584,316.7616 153.6864,317.5297 154.0584,318.2737 154.8263,318.6577 156.7102,319.0418 157.4662,319.4138 157.8502,320.1698 157.8502,320.5479 157.4662,321.3039 156.3382,321.6819 155.1983,321.6819 154.0584,321.3039 153.6864,320.5479"/>
    <polyline points="164.6538,317.5297 163.8979,316.7616 163.1419,316.3896 162.002,316.3896 161.258,316.7616 160.4901,317.5297 160.1181,318.6577 160.1181,319.4138 160.4901,320.5479 161.258,321.3039 162.002,321.6819 163.1419,321.6819 163.8979,321.3039 164.6538,320.5479"/>
    <polygon points="168.0616,316.7616 167.2936,317.5297 166.9217,318.6577 166.9217,319.4138 167.2936,320.5479 168.0616,321.3039 168.8056,321.6819 169.9455,321.6819 170.7014,321.3039 171.4574,320.5479 171.8294,319.4138 171.8294,318.6577 171.4574,317.5297 170.7014,316.7616 169.9455,316.3896 168.8056,316.3896"/>
    <line x1="174.4693" x2="174.4693" y1="316.3896" y2="324.3221"/>
    <polyline points="174.4693,317.5297 175.2372,316.7616 175.9812,316.3896 177.1211,316.3896 177.8771,316.7616 178.6331,317.5297 179.005,318.6577 179.005,319.4138 178.6331,320.5479 177.8771,321.3039 177.1211,321.6819 175.9812,321.6819 175.2372,321.3039 174.4693,320.5479"/>
    <polyline points="181.2728,318.6577 185.8086,318.6577 185.8086,317.9017 185.4366,317.1456 185.0526,316.7616 184.2967,316.3896 183.1567,316.3896 182.4128,316.7616 181.6448,317.5297 181.2728,318.6577 181.2728,319.4138 181.6448,320.5479 182.4128,321.3039 183.1567,321.6819 184.2967,321.6819 185.0526,321.3039 185.8086,320.5479"/>
    <polygon points="94.7335,287.7589 93.9656,288.5269 93.5936,289.655 93.5936,290.411 93.9656,291.5451 94.7335,292.3012 95.4775,292.6792 96.6174,292.6792 97.3734,292.3012 98.1293,291.5451 98.5013,290.411 98.5013,289.655 98.1293,288.5269 97.3734,287.7589 96.6174,287.3868 95.4775,287.3868"/>
    <polyline points="104.933,288.5269 104.549,287.7589 103.421,287.3868 102.2811,287.3868 101.1412,287.7589 100.7692,288.5269 101.1412,289.271 101.9091,289.655 103.793,290.039 104.549,290.411 104.933,291.1671 104.933,291.5451 104.549,292.3012 103.421,292.6792 102.2811,292.6792 101.1412,292.3012 100.7692,291.5451"/>
    <polyline points="111.7366,288.5269 110.9806,287.7589 110.2247,287.3868 109.0847,287.3868 108.3408,287.7589 107.5728,288.5269 107.2008,289.655 107.2008,290.411 107.5728,291.5451 108.3408,292.3012 109.0847,292.6792 110.2247,292.6792 110.9806,292.3012 111.7366,291.5451"/>
    <polyline points="114.0045,290.411 114.0045,289.655 114.3765,288.5269 115.1444,288.1429 115.8884,288.1429 116.6563,288.5269 118.1684,289.655 118.9123,290.039 119.6803,290.039 120.4242,289.655 120.8082,288.8989"/>
    <polyline points="114.0045,289.655 114.3765,288.8989 115.1444,288.5269 115.8884,288.5269 116.6563,288.8989 118.1684,290.039 118.9123,290.411 119.6803,290.411 120.4242,290.039 120.8082,288.8989 120.8082,288.1429"/>
    <polyline points="128.7518,286.2468 129.4957,285.8747 130.6357,284.7347 130.6357,292.6792"/>
    <polygon points="303.5835,137.5161 303.9555,137.8881 304.3395,137.5161 303.9555,137.132"/>
    <polyline points="304.3395,140.1562 303.9555,140.5344 303.5835,140.1562 303.9555,139.7722 304.3395,140.1562 304.3395,140.9124 303.5835,141.6684"/>
    <polyline points="306.7712,147.5162 306.3872,146.7481 305.2592,146.3761 304.1193,146.3761 302.9794,146.7481 302.6073,147.5162 302.9794,148.2602 303.7473,148.6442 305.6312,149.0283 306.3872,149.4003 306.7712,150.1563 306.7712,150.5344 306.3872,151.2904 305.2592,151.6684 304.1193,151.6684 302.9794,151.2904 302.6073,150.5344"/>
    <polyline points="313.5748,147.5162 312.8188,146.7481 312.0629,146.3761 310.9229,146.3761 310.179,146.7481 309.411,147.5162 309.039,148.6442 309.039,149.4003 309.411,150.5344 310.179,151.2904 310.9229,151.6684 312.0629,151.6684 312.8188,151.2904 313.5748,150.5344"/>
    <polygon points="316.9826,146.7481 316.2146,147.5162 315.8426,148.6442 315.8426,149.4003 316.2146,150.5344 316.9826,151.2904 317.7265,151.6684 318.8665,151.6684 319.6224,151.2904 320.3784,150.5344 320.7504,149.4003 320.7504,148.6442 320.3784,147.5162 319.6224,146.7481 318.8665,146.3761 317.7265,146.3761"/>
    <line x1="323.3902" x2="323.3902" y1="146.3761" y2="154.3086"/>
    <polyline points="323.3902,147.5162 324.1582,146.7481 324.9022,146.3761 326.0421,146.3761 326.7981,146.7481 327.554,147.5162 327.926,148.6442 327.926,149.4003 327.554,150.5344 326.7981,151.2904 326.0421,151.6684 324.9022,151.6684 324.1582,151.2904 323.3902,150.5344"/>
    <polyline points="330.1939,148.6442 334.7297,148.6442 334.7297,147.8882 334.3577,147.1321 333.9737,146.7481 333.2178,146.3761 332.0778,146.3761 331.3339,146.7481 330.5659,147.5162 330.1939,148.6442 330.1939,149.4003 330.5659,150.5344 331.3339,151.2904 332.0778,151.6684 333.2178,151.6684 333.9737,151.2904 334.7297,150.5344"/>
    <line x1="341.1612" x2="343.4171" y1="146.3761" y2="151.6684"/>
    <polyline points="345.697,146.3761 343.4171,151.6684 342.6731,153.1805 341.9052,153.9366 341.1612,154.3086 340.7772,154.3086"/>
    <polyline points="348.3369,143.7239 348.3369,150.1563 348.7209,151.2904 349.4648,151.6684 350.2328,151.6684"/>
    <line x1="347.2089" x2="349.8488" y1="146.3761" y2="146.3761"/>
    <polygon points="352.4886,144.1079 352.8726,143.7239 352.4886,143.3519 352.1166,143.7239"/>
    <line x1="352.4886" x2="352.4886" y1="146.3761" y2="151.6684"/>
    <polyline points="359.6763,147.5162 358.9203,146.7481 358.1644,146.3761 357.0244,146.3761 356.2805,146.7481 355.5125,147.5162 355.1405,148.6442 355.1405,149.4003 355.5125,150.5344 356.2805,151.2904 357.0244,151.6684 358.1644,151.6684 358.9203,151.2904 359.6763,150.5344"/>
    <line x1="362.3161" x2="362.3161" y1="143.7239" y2="151.6684"/>
    <line x1="366.1079" x2="362.3161" y1="146.3761" y2="150.1563"/>
    <line x1="363.828" x2="366.4799" y1="148.6442" y2="151.6684"/>
    <polyline points="372.5396,147.5162 372.1556,146.7481 371.0277,146.3761 369.8877,146.3761 368.7478,146.7481 368.3758,147.5162 368.7478,148.2602 369.5157,148.6442 371.3996,149.0283 372.1556,149.4003 372.5396,150.1563 372.5396,150.5344 372.1556,151.2904 371.0277,151.6684 369.8877,151.6684 368.7478,151.2904 368.3758,150.5344"/>
    <polygon points="380.4832,144.1079 379.7152,145.236 379.3432,147.1321 379.3432,148.2602 379.7152,150.1563 380.4832,151.2904 381.6111,151.6684 382.3671,151.6684 383.507,151.2904 384.251,150.1563 384.6349,148.2602 384.6349,147.1321 384.251,145.236 383.507,144.1079 382.3671,143.7239 381.6111,143.7239"/>
    <polygon points="392.5785,144.1079 391.8105,145.236 391.4386,147.1321 391.4386,148.2602 391.8105,150.1563 392.5785,151.2904 393.7064,151.6684 394.4624,151.6684 395.6023,151.2904 396.3464,150.1563 396.7304,148.2602 396.7304,147.1321 396.3464,145.236 395.6023,144.1079 394.4624,143.7239 393.7064,143.7239"/>
    <polygon points="398.9982,150.1563 399.3702,150.5344 399.7541,150.1563 399.3702,149.7723"/>
    <polyline points="406.5579,143.7239 402.7781,143.7239 402.3942,147.1321 402.7781,146.7481 403.9061,146.3761 405.046,146.3761 406.186,146.7481 406.9299,147.5162 407.3139,148.6442 407.3139,149.4003 406.9299,150.5344 406.186,151.2904 405.046,151.6684 403.9061,151.6684 402.7781,151.2904 402.3942,150.9124 402.0222,150.1563"/>
    <polyline points="415.2574,145.236 416.0013,144.864 417.1413,143.7239 417.1413,151.6684"/>
    <polygon points="303.5835,175.519 303.9555,175.8911 304.3395,175.519 303.9555,175.135"/>
    <polyline points="304.3395,178.1592 303.9555,178.5372 303.5835,178.1592 303.9555,177.7752 304.3395,178.1592 304.3395,178.9153 303.5835,179.6713"/>
    <polyline points="306.7712,185.519 306.3872,184.751 305.2592,184.379 304.1193,184.379 302.9794,184.751 302.6073,185.519 302.9794,186.2631 303.7473,186.6471 305.6312,187.0311 306.3872,187.4032 306.7712,188.1592 306.7712,188.5372 306.3872,189.2933 305.2592,189.6714 304.1193,189.6714 302.9794,189.2933 302.6073,188.5372"/>
    <polyline points="313.5748,185.519 312.8188,184.751 312.0629,184.379 310.9229,184.379 310.179,184.751 309.411,185.519 309.039,186.6471 309.039,187.4032 309.411,188.5372 310.179,189.2933 310.9229,189.6714 312.0629,189.6714 312.8188,189.2933 313.5748,188.5372"/>
    <polygon points="316.9826,184.751 316.2146,185.519 315.8426,186.6471 315.8426,187.4032 316.2146,188.5372 316.9826,189.2933 317.7265,189.6714 318.8665,189.6714 319.6224,189.2933 320.3784,188.5372 320.7504,187.4032 320.7504,186.6471 320.3784,185.519 319.6224,184.751 318.8665,184.379 317.7265,184.379"/>
    <line x1="323.3902" x2="323.3902" y1="184.379" y2="192.3115"/>
    <polyline points="323.3902,185.519 324.1582,184.751 324.9022,184.379 326.0421,184.379 326.7981,184.751 327.554,185.519 327.926,186.6471 327.926,187.4032 327.554,188.5372 326.7981,189.2933 326.0421,189.6714 324.9022,189.6714 324.1582,189.2933 323.3902,188.5372"/>
    <polyline points="330.1939,186.6471 334.7297,186.6471 334.7297,185.8911 334.3577,185.135 333.9737,184.751 333.2178,184.379 332.0778,184.379 331.3339,184.751 330.5659,185.519 330.1939,186.6471 330.1939,187.4032 330.5659,188.5372 331.3339,189.2933 332.0778,189.6714 333.2178,189.6714 333.9737,189.2933 334.7297,188.5372"/>
    <line x1="341.1612" x2="343.4171" y1="184.379" y2="189.6713"/>
    <polyline points="345.697,184.379 343.4171,189.6714 342.6731,191.1835 341.9052,191.9396 341.1612,192.3116 340.7772,192.3116"/>
    <line x1="347.9529" x2="347.9529" y1="181.7268" y2="189.6713"/>
    <line x1="355.1405" x2="355.1405" y1="184.379" y2="189.6713"/>
    <polyline points="355.1405,185.519 354.3845,184.751 353.6286,184.379 352.4886,184.379 351.7447,184.751 350.9767,185.519 350.6047,186.6471 350.6047,187.4032 350.9767,188.5372 351.7447,189.2933 352.4886,189.6714 353.6286,189.6714 354.3845,189.2933 355.1405,188.5372"/>
    <line x1="358.1524" x2="358.1524" y1="181.7268" y2="189.6713"/>
    <polyline points="358.1524,185.519 358.9203,184.751 359.6643,184.379 360.8042,184.379 361.5602,184.751 362.3161,185.519 362.6881,186.6471 362.6881,187.4032 362.3161,188.5372 361.5602,189.2933 360.8042,189.6714 359.6643,189.6714 358.9203,189.2933 358.1524,188.5372"/>
    <polyline points="364.9559,186.6471 369.4917,186.6471 369.4917,185.8911 369.1197,185.135 368.7357,184.751 367.9798,184.379 366.8398,184.379 366.0959,184.751 365.3279,185.519 364.9559,186.6471 364.9559,187.4032 365.3279,188.5372 366.0959,189.2933 366.8398,189.6714 367.9798,189.6714 368.7357,189.2933 369.4917,188.5372"/>
    <line x1="372.1316" x2="372.1316" y1="181.7268" y2="189.6713"/>
    <line x1="379.6912" x2="386.5068" y1="186.2631" y2="186.2631"/>
    <polyline points="390.2865,183.2389 391.0305,182.8669 392.1704,181.7268 392.1704,189.6714"/>
    <line x1="401.6142" x2="408.4298" y1="186.2631" y2="186.2631"/>
    <polyline points="412.2096,183.2389 412.9535,182.8669 414.0934,181.7268 414.0934,189.6714"/>
    <polygon points="424.3048,182.1108 423.5368,183.2389 423.1649,185.135 423.1649,186.2631 423.5368,188.1592 424.3048,189.2933 425.4327,189.6714 426.1887,189.6714 427.3286,189.2933 428.0726,188.1592 428.4566,186.2631 428.4566,185.135 428.0726,183.2389 427.3286,182.1108 426.1887,181.7268 425.4327,181.7268"/>
    <polyline points="436.4,183.2389 437.144,182.8669 438.2839,181.7268 438.2839,189.6714"/>
    <line x1="98.4703" x2="90.1689" y1="336.9881" y2="351.7721"/>
    <line x1="108.6342" x2="100.3329" y1="336.9881" y2="351.7721"/>
    <polyline points="117.4196,338.8361 117.4196,346.6974 117.8891,348.0834 118.7984,348.5454 119.7371,348.5454"/>
    <line x1="116.041" x2="119.2676" y1="342.0775" y2="342.0775"/>
    <line x1="122.4944" x2="122.4944" y1="338.8361" y2="348.5454"/>
    <polyline points="122.4944,343.9254 123.8877,342.5321 124.8117,342.0774 126.1904,342.0774 127.129,342.5321 127.5837,343.9254 127.5837,348.5454"/>
    <polygon points="131.2651,339.3054 131.7344,338.8361 131.2651,338.3814 130.8104,338.8361"/>
    <line x1="131.2651" x2="131.2651" y1="342.0775" y2="348.5454"/>
    <polyline points="139.5957,343.4708 139.1264,342.5321 137.7477,342.0774 136.3544,342.0774 134.961,342.5321 134.5064,343.4708 134.961,344.3801 135.8997,344.8494 138.2024,345.3188 139.1264,345.7734 139.5957,346.6974 139.5957,347.1594 139.1264,348.0834 137.7477,348.5454 136.3544,348.5454 134.961,348.0834 134.5064,347.1594"/>
    <line x1="153.4556" x2="153.4556" y1="342.0775" y2="348.5454"/>
    <polyline points="153.4556,343.4708 152.5316,342.5321 151.6076,342.0774 150.2143,342.0774 149.305,342.5321 148.3663,343.4708 147.9116,344.8494 147.9116,345.7734 148.3663,347.1594 149.305,348.0834 150.2143,348.5454 151.6076,348.5454 152.5316,348.0834 153.4556,347.1594"/>
    <line x1="157.137" x2="157.137" y1="342.0775" y2="348.5454"/>
    <polyline points="157.137,344.8494 157.6063,343.4708 158.5303,342.5321 159.4543,342.0774 160.833,342.0774"/>
    <line x1="163.1504" x2="163.1504" y1="342.0775" y2="348.5454"/>
    <polyline points="163.1504,344.8494 163.6197,343.4708 164.5437,342.5321 165.4677,342.0774 166.8464,342.0774"/>
    <line x1="174.253" x2="174.253" y1="342.0775" y2="348.5454"/>
    <polyline points="174.253,343.4708 173.329,342.5321 172.405,342.0774 171.0116,342.0774 170.1023,342.5321 169.1636,343.4708 168.709,344.8494 168.709,345.7734 169.1636,347.1594 170.1023,348.0834 171.0116,348.5454 172.405,348.5454 173.329,348.0834 174.253,347.1594"/>
    <line x1="177.025" x2="179.7823" y1="342.0775" y2="348.5454"/>
    <polyline points="182.569,342.0774 179.7823,348.5454 178.873,350.3934 177.9343,351.3174 177.025,351.7721 176.5557,351.7721"/>
    <line x1="190.8703" x2="190.8703" y1="338.8361" y2="348.5454"/>
    <polyline points="190.8703,343.9254 192.2636,342.5321 193.1876,342.0774 194.5663,342.0774 195.5049,342.5321 195.9596,343.9254 195.9596,348.5454"/>
    <line x1="204.7304" x2="204.7304" y1="342.0775" y2="348.5454"/>
    <polyline points="204.7304,343.4708 203.8064,342.5321 202.8824,342.0774 201.4891,342.0774 200.5797,342.5321 199.6411,343.4708 199.1864,344.8494 199.1864,345.7734 199.6411,347.1594 200.5797,348.0834 201.4891,348.5454 202.8824,348.5454 203.8064,348.0834 204.7304,347.1594"/>
    <polyline points="213.0468,343.4708 212.5775,342.5321 211.1988,342.0774 209.8054,342.0774 208.412,342.5321 207.9574,343.4708 208.412,344.3801 209.3507,344.8494 211.6535,345.3188 212.5775,345.7734 213.0468,346.6974 213.0468,347.1594 212.5775,348.0834 211.1988,348.5454 209.8054,348.5454 208.412,348.0834 207.9574,347.1594"/>
    <polyline points="225.9824,338.8361 221.3624,345.3188 228.2997,345.3188"/>
    <line x1="225.9824" x2="225.9824" y1="338.8361" y2="348.5454"/>
    <polyline points="235.2224,338.8361 230.6024,345.3188 237.5397,345.3188"/>
    <line x1="235.2224" x2="235.2224" y1="338.8361" y2="348.5454"/>
    <polyline points="240.7664,346.6974 240.297,347.1594 239.8424,346.6974 240.297,346.2281 240.7664,346.6974 240.7664,347.6214 239.8424,348.5454"/>
    <polyline points="244.9317,340.6841 245.841,340.2294 247.2344,338.8361 247.2344,348.5454"/>
    <polygon points="254.1717,339.3054 253.233,340.6841 252.7783,343.0014 252.7783,344.3801 253.233,346.6974 254.1717,348.0834 255.5503,348.5454 256.4743,348.5454 257.8677,348.0834 258.777,346.6974 259.2463,344.3801 259.2463,343.0014 258.777,340.6841 257.8677,339.3054 256.4743,338.8361 255.5503,338.8361"/>
    <polygon points="63.8265,559.6447 78.8266,559.6447 78.8266,574.6342 63.8265,574.6342"/>
    <polygon points="63.8265,573.635 70.8265,573.635 70.8265,574.6343 63.8265,574.6343"/>
    <polygon points="63.8265,559.6447 70.8265,559.6447 70.8265,560.644 63.8265,560.644"/>
    <polygon points="77.8266,567.1395 77.8156,567.5172 77.7826,567.8936 77.7278,568.2674 77.6514,568.6375 77.5535,569.0024 77.4346,569.3611 77.295,569.7122 77.1352,570.0547 76.9557,570.3872 76.7572,570.7088 76.5404,571.0183 76.3058,571.3147 76.0545,571.597 75.7871,571.8641 75.5047,572.1153 75.2081,572.3497 74.8984,572.5664 74.5766,572.7648 74.2437,572.9441 73.9011,573.1038 73.5497,573.2433 73.1908,573.3621 72.8255,573.4599 72.4553,573.5363 72.0811,573.5911 71.7045,573.624 71.3265,573.635 70.9486,573.624 70.5719,573.5911 70.1978,573.5363 69.8275,573.4599 69.4623,573.3621 69.1034,573.2433 68.752,573.1038 68.4093,572.9441 68.0765,572.7648 67.7547,572.5664 67.445,572.3497 67.1484,572.1153 66.866,571.8641 66.5986,571.597 66.3472,571.3147 66.1127,571.0183 65.8959,570.7088 65.6974,570.3872 65.5179,570.0547 65.3581,569.7122 65.2185,569.3611 65.0996,569.0024 65.0017,568.6375 64.9253,568.2674 64.8705,567.8936 64.8375,567.5172 64.8265,567.1395 64.8375,566.7618 64.8705,566.3854 64.9253,566.0116 65.0017,565.6416 65.0996,565.2766 65.2185,564.9179 65.3581,564.5668 65.5179,564.2244 65.6974,563.8918 65.8959,563.5702 66.1127,563.2607 66.3472,562.9643 66.5986,562.6821 66.866,562.4149 67.1484,562.1637 67.445,561.9293 67.7547,561.7126 68.0765,561.5143 68.4093,561.335 68.752,561.1753 69.1034,561.0358 69.4623,560.9169 69.8275,560.8191 70.1978,560.7427 70.5719,560.688 70.9486,560.655 71.3265,560.644 71.7045,560.655 72.0811,560.688 72.4553,560.7427 72.8255,560.8191 73.1908,560.9169 73.5497,561.0358 73.9011,561.1753 74.2437,561.335 74.5766,561.5143 74.8984,561.7126 75.2081,561.9293 75.5047,562.1637 75.7871,562.4149 76.0545,562.6821 76.3058,562.9643 76.5404,563.2607 76.7572,563.5702 76.9557,563.8918 77.1352,564.2244 77.295,564.5668 77.4346,564.9179 77.5535,565.2766 77.6514,565.6416 77.7278,566.0116 77.7826,566.3854 77.8156,566.7618"/>
    <polygon points="87.8265,577.632 87.8265,558.6453 133.8265,558.6453 133.8265,577.632"/>
    <polygon points="87.8266,575.6336 94.8266,575.6336 94.8266,577.6322 87.8266,577.6322"/>
    <polygon points="87.8266,558.6454 94.8266,558.6454 94.8266,560.644 87.8266,560.644"/>
    <polygon points="126.8267,558.6454 133.8267,558.6454 133.8267,560.644 126.8267,560.644"/>
    <polygon points="87.8265,606.6118 87.8265,587.625 133.8265,587.625 133.8265,606.6118"/>
    <polygon points="87.8266,604.6134 94.8266,604.6134 94.8266,606.612 87.8266,606.612"/>
    <polygon points="87.8266,587.6252 94.8266,587.6252 94.8266,589.6239 87.8266,589.6239"/>
    <polygon points="126.8267,587.6252 133.8267,587.6252 133.8267,589.6239 126.8267,589.6239"/>
    <polygon points="87.8265,636.5909 87.8265,617.6041 273.8267,617.6041 273.8267,636.5909"/>
    <polygon points="87.8266,617.6043 94.8266,617.6043 94.8266,619.6029 87.8266,619.6029"/>
    <polygon points="86.8265,408.7498 86.8265,548.6522 286.8267,548.6522 286.8267,408.7498"/>
    <polyline points="86.8266,479.8149 87.2953,479.7046 87.7016,479.5946 88.0453,479.4848 88.3266,479.3752 88.8266,479.1559 89.3266,478.936 89.8266,478.716 90.3266,478.4966 90.8266,478.2771 91.3266,478.0573 91.8266,477.8377 92.3266,477.6187 92.8266,477.4 93.3266,477.1812 93.8266,476.9627 94.3266,476.7452 94.8266,476.5281 95.3266,476.3111 95.8266,476.0946 96.3266,475.8793 96.8266,475.6647 97.3266,475.4504 97.8266,475.2368 98.3266,475.0246 98.8266,474.8133 99.3266,474.6025 99.8266,474.3927 100.3266,474.1844 100.8266,473.9772 101.3266,473.7708 101.8266,473.5655 102.3266,473.362 102.8266,473.1598 103.3266,472.9586 103.8266,472.7587 104.3266,472.5607 104.8266,472.3643 105.3267,472.169 105.8267,471.9752 106.3267,471.7837 106.8267,471.5938 107.3267,471.4051 107.8267,471.2183 108.3267,471.0339 108.8267,470.8513 109.3267,470.6702 109.8267,470.491 110.3267,470.3144 110.8267,470.1398 111.3267,469.9669 111.8267,469.7961 112.3267,469.628 112.8267,469.462 113.3267,469.298 113.8267,469.1363 114.3267,468.9773 114.8267,468.8207 115.3267,468.6663 115.8267,468.5143 116.3267,468.3651 116.8267,468.2185 117.3267,468.0742 117.8267,467.9325 118.3267,467.7937 118.8267,467.6576 119.3267,467.524 119.8267,467.3931 120.3267,467.2653 120.8267,467.1403 121.3267,467.0179 121.8267,466.8984 122.3267,466.782 122.8267,466.6686 123.3267,466.5579 123.8267,466.4501 124.3267,466.3458 124.8267,466.2445 125.3267,466.1459 125.8267,466.0503 126.3267,465.9583 126.8267,465.8694 127.3267,465.7834 127.8267,465.7006 128.3267,465.6212 128.8267,465.545 129.3267,465.4719 129.8267,465.4021 130.3267,465.3356 130.8267,465.2725 131.3267,465.2126 131.8267,465.156 132.3267,465.1027 132.8267,465.0529 133.3267,465.0063 133.8267,464.9633 134.3267,464.9236 134.8267,464.8873 135.3267,464.8544 135.8267,464.825 136.3268,464.7989 136.8268,464.7763 137.3268,464.7571 137.8268,464.7414 138.3268,464.729 138.8268,464.7201 139.3268,464.7146 139.8268,464.7125 140.3268,464.7142 140.8268,464.719 141.3268,464.7275 141.8268,464.7392 142.3268,464.7546 142.8268,464.7733 143.3268,464.7954 143.8268,464.8209 144.3268,464.8499 144.8268,464.8823 145.3268,464.9181 145.8268,464.9572 146.3268,464.9999 146.8268,465.0459 147.3268,465.0953 147.8268,465.1479 148.3268,465.204 148.8268,465.2634 149.3268,465.3261 149.8268,465.3921 150.3268,465.4615 150.8268,465.5341 151.3268,465.6098 151.8268,465.6888 152.3268,465.7712 152.8268,465.8567 153.3268,465.9452 153.8268,466.0369 154.3268,466.1319 154.8268,466.2299 155.3268,466.3309 155.8268,466.4349 156.3268,466.5422 156.8268,466.6525 157.3268,466.7654 157.8268,466.8813 158.3268,467.0004 158.8268,467.1225 159.3268,467.247 159.8268,467.3744 160.3268,467.5049 160.8268,467.6382 161.3268,467.7739 161.8268,467.9122 162.3268,468.0536 162.8268,468.1976 163.3268,468.3438 163.8268,468.4926 164.3268,468.6442 164.8268,468.7983 165.3268,468.9546 165.8268,469.1133 166.3268,469.2746 166.8268,469.4382 167.3268,469.6039 167.8268,469.7718 168.3268,469.9422 168.8268,470.1148 169.3268,470.2891 169.8269,470.4655 170.3269,470.6443 170.8269,470.8251 171.3269,471.0075 171.8269,471.1917 172.3269,471.3782 172.8269,471.5666 173.3269,471.7562 173.8269,471.9475 174.3269,472.141 174.8269,472.3361 175.3269,472.5323 175.8269,472.7301 176.3269,472.9297 176.8269,473.1308 177.3269,473.3328 177.8269,473.5362 178.3269,473.7412 178.8269,473.9475 179.3269,474.1545 179.8269,474.3627 180.3269,474.5723 180.8269,474.783 181.3269,474.9941 181.8269,475.2062 182.3269,475.4196 182.8269,475.6339 183.3269,475.8484 183.8269,476.0636 184.3269,476.28 184.8269,476.4969 185.3269,476.7139 185.8269,476.9314 186.3269,477.1498 186.8269,477.3686 187.3269,477.5873 187.8269,477.8062 188.3269,478.0258 188.8269,478.2456 189.3269,478.465 189.8269,478.6845 190.3269,478.9044 190.8269,479.1244 191.3269,479.3437 191.8269,479.5628 192.3269,479.7823 192.8269,480.0014 193.3269,480.2198 193.8269,480.4378 194.3269,480.6558 194.8269,480.8734 195.3269,481.0899 195.8269,481.3059 196.3269,481.5217 196.8269,481.7368 197.3269,481.9506 197.8269,482.1637 198.3269,482.3764 198.8269,482.5882 199.3269,482.7985 199.8269,483.0079 200.327,483.2166 200.827,483.4243 201.3269,483.6303 201.8269,483.8351 202.327,484.039 202.827,484.2417 203.327,484.4425 203.827,484.6419 204.327,484.8403 204.827,485.0372 205.327,485.2321 205.827,485.4254 206.327,485.6174 206.827,485.8078 207.327,485.996 207.827,486.1824 208.327,486.3673 208.827,486.5503 209.327,486.731 209.827,486.9097 210.327,487.0868 210.8271,487.2618 211.3271,487.4343 211.8271,487.6047 212.3271,487.7733 212.8271,487.9396 213.3271,488.1032 213.8271,488.2646 214.3271,488.4239 214.8271,488.5809 215.3271,488.735 215.8271,488.8867 216.3271,489.0362 216.8271,489.1832 217.3271,489.3272 217.8271,489.4686 218.3271,489.6077 218.8271,489.7441 219.3271,489.8774 219.8271,490.008 220.3271,490.1361 220.8271,490.2614 221.3271,490.3835 221.8271,490.5028 222.3271,490.6194 222.8271,490.7331 223.3271,490.8436 223.8271,490.9511 224.3271,491.0557 224.8271,491.1573 225.3271,491.2557 225.8271,491.351 226.3271,491.4432 226.8271,491.5323 227.3271,491.6182 227.8271,491.7008 228.3271,491.7804 228.8271,491.8568 229.3271,491.9298 229.8271,491.9994 230.3271,492.0661 230.8271,492.1293 231.3271,492.1891 231.8271,492.2456 232.3271,492.2989 232.8272,492.3489 233.3272,492.3953 233.8271,492.4383 234.3272,492.4781 234.8272,492.5145 235.3272,492.5473 235.8272,492.5768 236.3272,492.6028 236.8272,492.6256 237.3272,492.6447 237.8272,492.6605 238.3272,492.6728 238.8272,492.6817 239.3272,492.6872 239.8272,492.6894 240.3272,492.6878 240.8272,492.683 241.3272,492.6746 241.8272,492.6628 242.3272,492.6475 242.8272,492.6287 243.3272,492.6067 243.8272,492.5811 244.3272,492.5522 244.8272,492.5198 245.3272,492.484 245.8272,492.4447 246.3272,492.4023 246.8272,492.3564 247.3272,492.3069 247.8272,492.2541 248.3272,492.1982 248.8272,492.1389 249.3272,492.0761 249.8272,492.0099 250.3272,491.9408 250.8272,491.8684 251.3272,491.7925 251.8272,491.7133 252.3272,491.6311 252.8272,491.5458 253.3272,491.4571 253.8272,491.3653 254.3272,491.2705 254.8272,491.1727 255.3272,491.0715 255.8272,490.9673 256.3272,490.8603 256.8272,490.7502 257.3272,490.6371 257.8272,490.521 258.3272,490.4021 258.8272,490.2803 259.3272,490.1555 259.8272,490.0278 260.3272,489.8976 260.8272,489.7647 261.3272,489.6287 261.8272,489.49 262.3272,489.349 262.8272,489.2054 263.3273,489.0588 263.8272,488.9097 264.3272,488.7584 264.8272,488.6047 265.3273,488.4481 265.8273,488.2891 266.3273,488.1281 266.8273,487.9648 267.3272,487.7988 267.8273,487.6306 268.3273,487.4606 268.8273,487.2884 269.3273,487.1137 269.8273,486.9369 270.3273,486.7585 270.8273,486.5781 271.3273,486.3953 271.8273,486.2107 272.3273,486.0246 272.8273,485.8367 273.3273,485.6466 273.8273,485.4548 274.3273,485.2618 274.8273,485.0671 275.3273,484.8705 275.8273,484.6723 276.3273,484.4731 276.8273,484.2725 277.3273,484.07 277.8273,483.8662 278.3273,483.6617 278.8273,483.4558 279.3273,483.2484 279.8273,483.0398 280.3273,482.8306 280.8273,482.6204 281.3273,482.4088 281.8273,482.1962 282.3273,481.9833 282.8273,481.7696 283.3273,481.5545 283.8273,481.3388 284.3273,481.123 284.8273,480.9065 285.3273,480.689 285.6086,480.5664 285.9523,480.4166 286.3586,480.2395 286.8273,480.0352"/>
    <line x1="90.8266" x2="90.8266" y1="577.6322" y2="587.6252"/>
    <line x1="66.8265" x2="90.8266" y1="574.6343" y2="617.6043"/>
    <line x1="90.8266" x2="90.8266" y1="606.612" y2="617.6043"/>
    <polygon points="263.4116,339.3054 262.473,340.6841 262.0183,343.0014 262.0183,344.3801 262.473,346.6974 263.4116,348.0834 264.7903,348.5454 265.7143,348.5454 267.1076,348.0834 268.017,346.6974 268.4863,344.3801 268.4863,343.0014 268.017,340.6841 267.1076,339.3054 265.7143,338.8361 264.7903,338.8361"/>
    <polyline points="282.3462,343.4708 281.4223,342.5321 280.4983,342.0774 279.1049,342.0774 278.1956,342.5321 277.2569,343.4708 276.8023,344.8494 276.8023,345.7734 277.2569,347.1594 278.1956,348.0834 279.1049,348.5454 280.4983,348.5454 281.4223,348.0834 282.3462,347.1594"/>
    <polygon points="286.5116,342.5321 285.5729,343.4708 285.1182,344.8494 285.1182,345.7734 285.5729,347.1594 286.5116,348.0834 287.4209,348.5454 288.8142,348.5454 289.7382,348.0834 290.6622,347.1594 291.1169,345.7734 291.1169,344.8494 290.6622,343.4708 289.7382,342.5321 288.8142,342.0774 287.4209,342.0774"/>
    <line x1="294.3439" x2="294.3439" y1="338.8361" y2="348.5454"/>
    <line x1="298.04" x2="298.04" y1="338.8361" y2="348.5454"/>
    <polyline points="301.2812,344.8494 306.8253,344.8494 306.8253,343.9254 306.3706,343.0014 305.9013,342.5321 304.9773,342.0774 303.5839,342.0774 302.6745,342.5321 301.7358,343.4708 301.2812,344.8494 301.2812,345.7734 301.7358,347.1594 302.6745,348.0834 303.5839,348.5454 304.9773,348.5454 305.9013,348.0834 306.8253,347.1594"/>
    <polyline points="315.1413,343.4708 314.2173,342.5321 313.2933,342.0774 311.8999,342.0774 310.9906,342.5321 310.0519,343.4708 309.5973,344.8494 309.5973,345.7734 310.0519,347.1594 310.9906,348.0834 311.8999,348.5454 313.2933,348.5454 314.2173,348.0834 315.1413,347.1594"/>
    <polyline points="318.8372,338.8361 318.8372,346.6974 319.3066,348.0834 320.2159,348.5454 321.1546,348.5454"/>
    <line x1="317.4585" x2="320.6852" y1="342.0775" y2="342.0775"/>
    <polyline points="323.4572,344.8494 329.0012,344.8494 329.0012,343.9254 328.5465,343.0014 328.0772,342.5321 327.1532,342.0774 325.7599,342.0774 324.8505,342.5321 323.9119,343.4708 323.4572,344.8494 323.4572,345.7734 323.9119,347.1594 324.8505,348.0834 325.7599,348.5454 327.1532,348.5454 328.0772,348.0834 329.0012,347.1594"/>
    <line x1="337.3172" x2="337.3172" y1="338.8361" y2="348.5454"/>
    <polyline points="337.3172,343.4708 336.3932,342.5321 335.4692,342.0774 334.0759,342.0774 333.1665,342.5321 332.2279,343.4708 331.7732,344.8494 331.7732,345.7734 332.2279,347.1594 333.1665,348.0834 334.0759,348.5454 335.4692,348.5454 336.3932,348.0834 337.3172,347.1594"/>
    <polyline points="95.7129,361.8041 95.2436,360.8655 93.8649,360.4108 92.4716,360.4108 91.0783,360.8655 90.6236,361.8041 91.0783,362.7135 92.0169,363.1828 94.3196,363.6521 95.2436,364.1068 95.7129,365.0308 95.7129,365.4928 95.2436,366.4168 93.8649,366.8788 92.4716,366.8788 91.0783,366.4168 90.6236,365.4928"/>
    <line x1="104.0289" x2="104.0289" y1="360.4108" y2="366.8789"/>
    <polyline points="104.0289,361.8041 103.1049,360.8655 102.1809,360.4108 100.7876,360.4108 99.8783,360.8655 98.9396,361.8041 98.4849,363.1828 98.4849,364.1068 98.9396,365.4928 99.8783,366.4168 100.7876,366.8788 102.1809,366.8788 103.1049,366.4168 104.0289,365.4928"/>
    <line x1="107.7102" x2="107.7102" y1="360.4108" y2="366.8789"/>
    <polyline points="107.7102,362.2588 109.1036,360.8655 110.0276,360.4108 111.4062,360.4108 112.3449,360.8655 112.7996,362.2588 112.7996,366.8788"/>
    <polyline points="112.7996,362.2588 114.1929,360.8655 115.1022,360.4108 116.4956,360.4108 117.4196,360.8655 117.889,362.2588 117.889,366.8788"/>
    <line x1="121.5704" x2="121.5704" y1="360.4108" y2="370.1056"/>
    <polyline points="121.5704,361.8041 122.5091,360.8655 123.4184,360.4108 124.8117,360.4108 125.7357,360.8655 126.6597,361.8041 127.1144,363.1828 127.1144,364.1068 126.6597,365.4928 125.7357,366.4168 124.8117,366.8788 123.4184,366.8788 122.5091,366.4168 121.5704,365.4928"/>
    <line x1="130.3411" x2="130.3411" y1="357.1696" y2="366.8789"/>
    <polyline points="133.5824,363.1828 139.1264,363.1828 139.1264,362.2588 138.6717,361.3348 138.2024,360.8655 137.2784,360.4108 135.885,360.4108 134.9757,360.8655 134.037,361.8041 133.5824,363.1828 133.5824,364.1068 134.037,365.4928 134.9757,366.4168 135.885,366.8788 137.2784,366.8788 138.2024,366.4168 139.1264,365.4928"/>
    <polyline points="146.9877,361.8041 146.5184,360.8655 145.1397,360.4108 143.7464,360.4108 142.353,360.8655 141.8984,361.8041 142.353,362.7135 143.2917,363.1828 145.5944,363.6521 146.5184,364.1068 146.9877,365.0308 146.9877,365.4928 146.5184,366.4168 145.1397,366.8788 143.7464,366.8788 142.353,366.4168 141.8984,365.4928"/>
    <line x1="160.8476" x2="160.8476" y1="360.4108" y2="366.8789"/>
    <polyline points="160.8476,361.8041 159.9236,360.8655 158.9996,360.4108 157.6063,360.4108 156.697,360.8655 155.7583,361.8041 155.3036,363.1828 155.3036,364.1068 155.7583,365.4928 156.697,366.4168 157.6063,366.8788 158.9996,366.8788 159.9236,366.4168 160.8476,365.4928"/>
    <polyline points="169.1636,361.8041 168.6943,360.8655 167.3156,360.4108 165.9223,360.4108 164.529,360.8655 164.0743,361.8041 164.529,362.7135 165.4676,363.1828 167.7703,363.6521 168.6943,364.1068 169.1636,365.0308 169.1636,365.4928 168.6943,366.4168 167.3156,366.8788 165.9223,366.8788 164.529,366.4168 164.0743,365.4928"/>
    <polyline points="178.4037,357.1695 178.4037,365.0308 178.873,366.4168 179.7823,366.8788 180.721,366.8788"/>
    <line x1="177.025" x2="180.2516" y1="360.4108" y2="360.4108"/>
    <line x1="183.4783" x2="183.4783" y1="357.1696" y2="366.8789"/>
    <polyline points="183.4783,362.2588 184.8716,360.8655 185.7956,360.4108 187.1743,360.4108 188.113,360.8655 188.5676,362.2588 188.5676,366.8788"/>
    <polyline points="191.7944,363.1828 197.3384,363.1828 197.3384,362.2588 196.8837,361.3348 196.4144,360.8655 195.4904,360.4108 194.0971,360.4108 193.1877,360.8655 192.2491,361.8041 191.7944,363.1828 191.7944,364.1068 192.2491,365.4928 193.1877,366.4168 194.0971,366.8788 195.4904,366.8788 196.4144,366.4168 197.3384,365.4928"/>
    <line x1="205.6544" x2="212.1225" y1="357.1696" y2="366.8789"/>
    <line x1="212.1225" x2="205.6544" y1="357.1696" y2="366.8789"/>
    <line x1="225.9824" x2="225.9824" y1="360.4108" y2="366.8789"/>
    <polyline points="225.9824,361.8041 225.0584,360.8655 224.1344,360.4108 222.7411,360.4108 221.8318,360.8655 220.8931,361.8041 220.4384,363.1828 220.4384,364.1068 220.8931,365.4928 221.8318,366.4168 222.7411,366.8788 224.1344,366.8788 225.0584,366.4168 225.9824,365.4928"/>
    <line x1="229.2094" x2="234.2987" y1="360.4108" y2="366.8789"/>
    <line x1="234.2987" x2="229.2094" y1="360.4108" y2="366.8789"/>
    <polygon points="237.525,357.6388 237.9944,357.1695 237.525,356.7148 237.0704,357.1695"/>
    <line x1="237.525" x2="237.525" y1="360.4108" y2="366.8789"/>
    <polyline points="245.8557,361.8041 245.3864,360.8655 244.0077,360.4108 242.6144,360.4108 241.221,360.8655 240.7664,361.8041 241.221,362.7135 242.1597,363.1828 244.4624,363.6521 245.3864,364.1068 245.8557,365.0308 245.8557,365.4928 245.3864,366.4168 244.0077,366.8788 242.6144,366.8788 241.221,366.4168 240.7664,365.4928"/>
    <polygon points="248.6273,365.0308 249.082,365.4928 249.5513,365.0308 249.082,364.5615"/>
    <polyline points="95.7575,120.5148 95.3735,119.7468 94.2456,119.3748 93.1056,119.3748 91.9657,119.7468 91.5937,120.5148 91.9657,121.2589 92.7336,121.6429 94.6175,122.0269 95.3735,122.399 95.7575,123.155 95.7575,123.533 95.3735,124.2891 94.2456,124.6671 93.1056,124.6671 91.9657,124.2891 91.5937,123.533"/>
    <polyline points="102.5611,120.5148 101.8051,119.7468 101.0492,119.3748 99.9092,119.3748 99.1653,119.7468 98.3973,120.5148 98.0253,121.6429 98.0253,122.399 98.3973,123.533 99.1653,124.2891 99.9092,124.6671 101.0492,124.6671 101.8051,124.2891 102.5611,123.533"/>
    <polygon points="105.9689,119.7468 105.2009,120.5148 104.829,121.6429 104.829,122.399 105.2009,123.533 105.9689,124.2891 106.7129,124.6671 107.8528,124.6671 108.6088,124.2891 109.3647,123.533 109.7367,122.399 109.7367,121.6429 109.3647,120.5148 108.6088,119.7468 107.8528,119.3748 106.7129,119.3748"/>
    <line x1="112.3766" x2="112.3766" y1="119.3748" y2="127.3073"/>
    <polyline points="112.3766,120.5148 113.1446,119.7468 113.8885,119.3748 115.0284,119.3748 115.7844,119.7468 116.5404,120.5148 116.9123,121.6429 116.9123,122.399 116.5404,123.533 115.7844,124.2891 115.0284,124.6671 113.8885,124.6671 113.1446,124.2891 112.3766,123.533"/>
    <polyline points="119.1803,121.6429 123.716,121.6429 123.716,120.8869 123.344,120.1308 122.9601,119.7468 122.2041,119.3748 121.0642,119.3748 120.3202,119.7468 119.5522,120.5148 119.1803,121.6429 119.1803,122.399 119.5522,123.533 120.3202,124.2891 121.0642,124.6671 122.2041,124.6671 122.9601,124.2891 123.716,123.533"/>
    <line x1="68.9664" x2="75.7821" y1="267.2698" y2="267.2698"/>
    <polyline points="79.5618,264.2456 80.3058,263.8735 81.4457,262.7335 81.4457,270.678"/>
    <polygon points="78.734,195.1123 77.9661,196.2404 77.5941,198.1365 77.5941,199.2646 77.9661,201.1607 78.734,202.2948 79.862,202.6728 80.6179,202.6728 81.7579,202.2948 82.5018,201.1607 82.8858,199.2646 82.8858,198.1365 82.5018,196.2404 81.7579,195.1123 80.6179,194.7283 79.862,194.7283"/>
    <polyline points="78.734,126.2353 79.478,125.8632 80.6179,124.7232 80.6179,132.6677"/>
    <polyline points="173.8508,589.6799 173.8508,596.1074 174.2348,597.2406 174.9788,597.6184 175.7468,597.6184"/>
    <line x1="172.7228" x2="175.3628" y1="592.3301" y2="592.3301"/>
    <line x1="178.0028" x2="178.0028" y1="589.6799" y2="597.6184"/>
    <polyline points="178.0028,593.841 179.1428,592.7018 179.8988,592.3301 181.0268,592.3301 181.7948,592.7018 182.1668,593.841 182.1668,597.6184"/>
    <line x1="189.3428" x2="189.3428" y1="592.3301" y2="597.6184"/>
    <polyline points="189.3428,593.4693 188.5868,592.7018 187.8308,592.3301 186.6908,592.3301 185.9468,592.7018 185.1788,593.4693 184.8068,594.5965 184.8068,595.352 185.1788,596.4852 185.9468,597.2406 186.6908,597.6184 187.8308,597.6184 188.5868,597.2406 189.3428,596.4852"/>
    <polyline points="192.7388,589.6799 192.7388,596.1074 193.1228,597.2406 193.8668,597.6184 194.6348,597.6184"/>
    <line x1="191.6108" x2="194.2508" y1="592.3301" y2="592.3301"/>
    <polygon points="201.0548,589.6799 201.4268,590.0637 201.8108,589.6799 201.4268,589.3082"/>
    <line x1="201.4268" x2="201.4268" y1="592.3301" y2="597.6184"/>
    <polyline points="208.2428,593.4693 207.8588,592.7018 206.7308,592.3301 205.5908,592.3301 204.4508,592.7018 204.0788,593.4693 204.4508,594.2128 205.2188,594.5965 207.1028,594.9802 207.8588,595.352 208.2428,596.1074 208.2428,596.4852 207.8588,597.2406 206.7308,597.6184 205.5908,597.6184 204.4508,597.2406 204.0788,596.4852"/>
    <line x1="215.4189" x2="215.4189" y1="589.6799" y2="597.6184"/>
    <polyline points="218.0709,594.5965 222.607,594.5965 222.607,593.841 222.235,593.0855 221.851,592.7018 221.0949,592.3301 219.9549,592.3301 219.2109,592.7018 218.4429,593.4693 218.0709,594.5965 218.0709,595.352 218.4429,596.4852 219.2109,597.2406 219.9549,597.6184 221.0949,597.6184 221.851,597.2406 222.607,596.4852"/>
    <polyline points="229.0389,593.4693 228.6549,592.7018 227.5269,592.3301 226.3869,592.3301 225.2469,592.7018 224.8749,593.4693 225.2469,594.2128 226.0149,594.5965 227.8989,594.9802 228.6549,595.352 229.0389,596.1074 229.0389,596.4852 228.6549,597.2406 227.5269,597.6184 226.3869,597.6184 225.2469,597.2406 224.8749,596.4852"/>
    <polyline points="235.4709,593.4693 235.0869,592.7018 233.9589,592.3301 232.8189,592.3301 231.6789,592.7018 231.3069,593.4693 231.6789,594.2128 232.4469,594.5965 234.3309,594.9802 235.0869,595.352 235.4709,596.1074 235.4709,596.4852 235.0869,597.2406 233.9589,597.6184 232.8189,597.6184 231.6789,597.2406 231.3069,596.4852"/>
    <polyline points="243.0309,589.6799 243.0309,596.1074 243.4149,597.2406 244.1589,597.6184 244.9269,597.6184"/>
    <line x1="241.9029" x2="244.5429" y1="592.3301" y2="592.3301"/>
    <line x1="247.1829" x2="247.1829" y1="589.6799" y2="597.6184"/>
    <polyline points="247.1829,593.841 248.3229,592.7018 249.0789,592.3301 250.2069,592.3301 250.9749,592.7018 251.3469,593.841 251.3469,597.6184"/>
    <line x1="258.5229" x2="258.5229" y1="592.3301" y2="597.6184"/>
    <polyline points="258.5229,593.4693 257.7669,592.7018 257.0109,592.3301 255.8709,592.3301 255.1269,592.7018 254.3589,593.4693 253.9869,594.5965 253.9869,595.352 254.3589,596.4852 255.1269,597.2406 255.8709,597.6184 257.0109,597.6184 257.7669,597.2406 258.5229,596.4852"/>
    <line x1="261.5349" x2="261.5349" y1="592.3301" y2="597.6184"/>
    <polyline points="261.5349,593.841 262.6749,592.7018 263.4309,592.3301 264.559,592.3301 265.327,592.7018 265.699,593.841 265.699,597.6184"/>
    <polyline points="274.015,591.1909 274.759,590.8191 275.899,589.6799 275.899,597.6184"/>
    <line x1="284.9711" x2="286.4831" y1="592.3301" y2="597.6184"/>
    <line x1="287.9951" x2="286.4831" y1="592.3301" y2="597.6184"/>
    <line x1="287.9951" x2="289.5071" y1="592.3301" y2="597.6184"/>
    <line x1="291.0191" x2="289.5071" y1="592.3301" y2="597.6184"/>
    <polygon points="293.287,589.6799 293.659,590.0637 294.043,589.6799 293.659,589.3082"/>
    <line x1="293.659" x2="293.659" y1="592.3301" y2="597.6184"/>
    <line x1="296.6831" x2="296.6831" y1="589.6799" y2="597.6184"/>
    <line x1="299.7071" x2="299.7071" y1="589.6799" y2="597.6184"/>
    <line x1="307.2668" x2="307.2668" y1="589.6799" y2="597.6184"/>
    <polygon points="311.8028,592.3301 311.0588,592.7018 310.2908,593.4693 309.9188,594.5965 309.9188,595.352 310.2908,596.4852 311.0588,597.2406 311.8028,597.6184 312.9428,597.6184 313.6988,597.2406 314.4548,596.4852 314.8268,595.352 314.8268,594.5965 314.4548,593.4693 313.6988,592.7018 312.9428,592.3301"/>
    <line x1="317.0953" x2="318.6073" y1="592.3301" y2="597.6184"/>
    <line x1="320.1193" x2="318.6073" y1="592.3301" y2="597.6184"/>
    <line x1="320.1193" x2="321.6314" y1="592.3301" y2="597.6184"/>
    <line x1="323.1434" x2="321.6314" y1="592.3301" y2="597.6184"/>
    <polyline points="325.4113,594.5965 329.9473,594.5965 329.9473,593.841 329.5753,593.0855 329.1913,592.7018 328.4353,592.3301 327.2953,592.3301 326.5513,592.7018 325.7833,593.4693 325.4113,594.5965 325.4113,595.352 325.7833,596.4852 326.5513,597.2406 327.2953,597.6184 328.4353,597.6184 329.1913,597.2406 329.9473,596.4852"/>
    <line x1="332.5866" x2="332.5866" y1="592.3301" y2="597.6184"/>
    <polyline points="332.5866,594.5965 332.9706,593.4693 333.7266,592.7018 334.4826,592.3301 335.6106,592.3301"/>
    <polyline points="342.427,589.6799 342.427,596.1074 342.811,597.2406 343.555,597.6184 344.323,597.6184"/>
    <line x1="341.299" x2="343.939" y1="592.3301" y2="592.3301"/>
    <line x1="346.5785" x2="346.5785" y1="589.6799" y2="597.6184"/>
    <polyline points="346.5785,593.841 347.7186,592.7018 348.4746,592.3301 349.6026,592.3301 350.3706,592.7018 350.7426,593.841 350.7426,597.6184"/>
    <polyline points="353.3831,594.5965 357.9191,594.5965 357.9191,593.841 357.5471,593.0855 357.1631,592.7018 356.4071,592.3301 355.2671,592.3301 354.5231,592.7018 353.7551,593.4693 353.3831,594.5965 353.3831,595.352 353.7551,596.4852 354.5231,597.2406 355.2671,597.6184 356.4071,597.6184 357.1631,597.2406 357.9191,596.4852"/>
    <line x1="369.259" x2="369.259" y1="592.3301" y2="597.6184"/>
    <polyline points="369.259,593.4693 368.503,592.7018 367.747,592.3301 366.607,592.3301 365.863,592.7018 365.095,593.4693 364.723,594.5965 364.723,595.352 365.095,596.4852 365.863,597.2406 366.607,597.6184 367.747,597.6184 368.503,597.2406 369.259,596.4852"/>
    <line x1="372.2706" x2="372.2706" y1="592.3301" y2="597.6184"/>
    <polyline points="372.2706,593.841 373.4106,592.7018 374.1666,592.3301 375.2946,592.3301 376.0626,592.7018 376.4346,593.841 376.4346,597.6184"/>
    <polyline points="376.4346,593.841 377.5746,592.7018 378.3186,592.3301 379.4586,592.3301 380.2146,592.7018 380.5986,593.841 380.5986,597.6184"/>
    <line x1="383.6105" x2="383.6105" y1="592.3301" y2="600.2565"/>
    <polyline points="383.6105,593.4693 384.3785,592.7018 385.1225,592.3301 386.2625,592.3301 387.0185,592.7018 387.7745,593.4693 388.1465,594.5965 388.1465,595.352 387.7745,596.4852 387.0185,597.2406 386.2625,597.6184 385.1225,597.6184 384.3785,597.2406 383.6105,596.4852"/>
    <line x1="390.787" x2="390.787" y1="589.6799" y2="597.6184"/>
    <polygon points="393.4391,589.6799 393.8111,590.0637 394.1951,589.6799 393.8111,589.3082"/>
    <line x1="393.8111" x2="393.8111" y1="592.3301" y2="597.6184"/>
    <polyline points="397.2193,589.6799 397.2193,596.1074 397.6033,597.2406 398.3473,597.6184 399.1153,597.6184"/>
    <line x1="396.0913" x2="398.7313" y1="592.3301" y2="592.3301"/>
    <polyline points="401.3708,592.3301 401.3708,596.1074 401.7549,597.2406 402.5109,597.6184 403.6509,597.6184 404.3949,597.2406 405.5349,596.1074"/>
    <line x1="405.5349" x2="405.5349" y1="592.3301" y2="597.6184"/>
    <line x1="412.7114" x2="412.7114" y1="589.6799" y2="597.6184"/>
    <polyline points="412.7114,593.4693 411.9554,592.7018 411.1994,592.3301 410.0594,592.3301 409.3154,592.7018 408.5474,593.4693 408.1754,594.5965 408.1754,595.352 408.5474,596.4852 409.3154,597.2406 410.0594,597.6184 411.1994,597.6184 411.9554,597.2406 412.7114,596.4852"/>
    <polyline points="415.3509,594.5965 419.8869,594.5965 419.8869,593.841 419.5149,593.0855 419.1309,592.7018 418.3749,592.3301 417.2349,592.3301 416.4909,592.7018 415.7229,593.4693 415.3509,594.5965 415.3509,595.352 415.7229,596.4852 416.4909,597.2406 417.2349,597.6184 418.3749,597.6184 419.1309,597.2406 419.8869,596.4852"/>
    <polygon points="422.5273,595.7237 422.1553,596.1074 422.5273,596.4852 422.9113,596.1074"/>
    <line x1="158.5144" x2="151.7224" y1="568.183" y2="580.2705"/>
    <line x1="166.8304" x2="160.0384" y1="568.183" y2="580.2705"/>
    <line x1="173.6344" x2="173.6344" y1="572.3441" y2="577.6324"/>
    <polyline points="173.6344,573.855 174.7744,572.7158 175.5304,572.3441 176.6584,572.3441 177.4264,572.7158 177.7984,573.855 177.7984,577.6324"/>
    <polyline points="177.7984,573.855 178.9384,572.7158 179.6824,572.3441 180.8225,572.3441 181.5785,572.7158 181.9625,573.855 181.9625,577.6324"/>
    <polyline points="184.9744,572.3441 184.9744,576.1214 185.3584,577.2546 186.1144,577.6324 187.2544,577.6324 187.9984,577.2546 189.1384,576.1214"/>
    <line x1="189.1384" x2="189.1384" y1="572.3441" y2="577.6324"/>
    <line x1="192.1504" x2="192.1504" y1="569.6939" y2="577.6324"/>
    <polyline points="195.5585,569.6939 195.5585,576.1214 195.9425,577.2546 196.6865,577.6324 197.4545,577.6324"/>
    <line x1="194.4305" x2="197.0705" y1="572.3441" y2="572.3441"/>
    <polygon points="199.3385,569.6939 199.7105,570.0776 200.0945,569.6939 199.7105,569.3222"/>
    <line x1="199.7105" x2="199.7105" y1="572.3441" y2="577.6324"/>
    <line x1="202.7344" x2="202.7344" y1="572.3441" y2="580.2705"/>
    <polyline points="202.7344,573.4833 203.5024,572.7158 204.2464,572.3441 205.3864,572.3441 206.1424,572.7158 206.8984,573.4833 207.2704,574.6105 207.2704,575.3659 206.8984,576.4991 206.1424,577.2546 205.3864,577.6324 204.2464,577.6324 203.5024,577.2546 202.7344,576.4991"/>
    <line x1="209.9105" x2="209.9105" y1="569.6939" y2="577.6324"/>
    <line x1="212.1905" x2="214.4465" y1="572.3441" y2="577.6324"/>
    <polyline points="216.7265,572.3441 214.4465,577.6324 213.7025,579.1433 212.9345,579.8988 212.1905,580.2705 211.8065,580.2705"/>
    <polygon points="218.6105,569.6939 218.9825,570.0776 219.3665,569.6939 218.9825,569.3222"/>
    <line x1="218.9825" x2="218.9825" y1="572.3441" y2="577.6324"/>
    <line x1="222.0066" x2="222.0066" y1="572.3441" y2="577.6324"/>
    <polyline points="222.0066,573.855 223.1466,572.7158 223.9026,572.3441 225.0306,572.3441 225.7986,572.7158 226.1706,573.855 226.1706,577.6324"/>
    <polyline points="233.3465,572.3441 233.3465,578.3878 232.9745,579.527 232.5905,579.8988 231.8345,580.2705 230.6945,580.2705 229.9505,579.8988"/>
    <polyline points="233.3465,573.4833 232.5905,572.7158 231.8345,572.3441 230.6945,572.3441 229.9505,572.7158 229.1825,573.4833 228.8105,574.6105 228.8105,575.3659 229.1825,576.4991 229.9505,577.2546 230.6945,577.6324 231.8345,577.6324 232.5905,577.2546 233.3465,576.4991"/>
    <polyline points="241.2786,569.6939 241.2786,576.1214 241.6626,577.2546 242.4066,577.6324 243.1746,577.6324"/>
    <line x1="240.1506" x2="242.7906" y1="572.3441" y2="572.3441"/>
    <line x1="245.4306" x2="245.4306" y1="569.6939" y2="577.6324"/>
    <polyline points="245.4306,573.855 246.5706,572.7158 247.3266,572.3441 248.4546,572.3441 249.2226,572.7158 249.5946,573.855 249.5946,577.6324"/>
    <polyline points="252.2346,574.6105 256.7706,574.6105 256.7706,573.855 256.3986,573.0995 256.0146,572.7158 255.2586,572.3441 254.1186,572.3441 253.3746,572.7158 252.6066,573.4833 252.2346,574.6105 252.2346,575.3659 252.6066,576.4991 253.3746,577.2546 254.1186,577.6324 255.2586,577.6324 256.0146,577.2546 256.7706,576.4991"/>
    <polyline points="267.7386,573.4833 267.3546,572.7158 266.2266,572.3441 265.0866,572.3441 263.9466,572.7158 263.5746,573.4833 263.9466,574.2267 264.7146,574.6105 266.5986,574.9942 267.3546,575.3659 267.7386,576.1214 267.7386,576.4991 267.3546,577.2546 266.2266,577.6324 265.0866,577.6324 263.9466,577.2546 263.5746,576.4991"/>
    <polygon points="270.0068,569.6939 270.3788,570.0776 270.7628,569.6939 270.3788,569.3222"/>
    <line x1="270.3788" x2="270.3788" y1="572.3441" y2="577.6324"/>
    <polyline points="277.5669,572.3441 277.5669,578.3878 277.1949,579.527 276.8109,579.8988 276.0549,580.2705 274.9149,580.2705 274.1709,579.8988"/>
    <polyline points="277.5669,573.4833 276.8109,572.7158 276.0549,572.3441 274.9149,572.3441 274.1709,572.7158 273.4029,573.4833 273.0309,574.6105 273.0309,575.3659 273.4029,576.4991 274.1709,577.2546 274.9149,577.6324 276.0549,577.6324 276.8109,577.2546 277.5669,576.4991"/>
    <line x1="280.5784" x2="280.5784" y1="572.3441" y2="577.6324"/>
    <polyline points="280.5784,573.855 281.7184,572.7158 282.4744,572.3441 283.6024,572.3441 284.3704,572.7158 284.7424,573.855 284.7424,577.6324"/>
    <line x1="291.9189" x2="291.9189" y1="572.3441" y2="577.6324"/>
    <polyline points="291.9189,573.4833 291.1629,572.7158 290.4069,572.3441 289.2669,572.3441 288.5229,572.7158 287.7549,573.4833 287.3829,574.6105 287.3829,575.3659 287.7549,576.4991 288.5229,577.2546 289.2669,577.6324 290.4069,577.6324 291.1629,577.2546 291.9189,576.4991"/>
    <line x1="294.9305" x2="294.9305" y1="569.6939" y2="577.6324"/>
    <line x1="302.1181" x2="303.6301" y1="572.3441" y2="577.6324"/>
    <line x1="305.1421" x2="303.6301" y1="572.3441" y2="577.6324"/>
    <line x1="305.1421" x2="306.6541" y1="572.3441" y2="577.6324"/>
    <line x1="308.1661" x2="306.6541" y1="572.3441" y2="577.6324"/>
    <polygon points="310.435,569.6939 310.807,570.0776 311.191,569.6939 310.807,569.3222"/>
    <line x1="310.807" x2="310.807" y1="572.3441" y2="577.6324"/>
    <polyline points="314.2151,569.6939 314.2151,576.1214 314.5991,577.2546 315.3431,577.6324 316.1111,577.6324"/>
    <line x1="313.0871" x2="315.7271" y1="572.3441" y2="572.3441"/>
    <line x1="318.3667" x2="318.3667" y1="569.6939" y2="577.6324"/>
    <polyline points="318.3667,573.855 319.5067,572.7158 320.2627,572.3441 321.3907,572.3441 322.1587,572.7158 322.5307,573.855 322.5307,577.6324"/>
    <line x1="334.2428" x2="334.2428" y1="572.3441" y2="577.6324"/>
    <polyline points="334.2428,573.4833 333.4868,572.7158 332.7308,572.3441 331.5908,572.3441 330.8468,572.7158 330.0788,573.4833 329.7068,574.6105 329.7068,575.3659 330.0788,576.4991 330.8468,577.2546 331.5908,577.6324 332.7308,577.6324 333.4868,577.2546 334.2428,576.4991"/>
    <line x1="341.0469" x2="343.3029" y1="572.3441" y2="577.6324"/>
    <line x1="345.5829" x2="343.3029" y1="572.3441" y2="577.6324"/>
    <line x1="352.003" x2="352.003" y1="572.3441" y2="577.6324"/>
    <polyline points="352.003,573.4833 351.247,572.7158 350.491,572.3441 349.351,572.3441 348.607,572.7158 347.839,573.4833 347.467,574.6105 347.467,575.3659 347.839,576.4991 348.607,577.2546 349.351,577.6324 350.491,577.6324 351.247,577.2546 352.003,576.4991"/>
    <line x1="355.0145" x2="355.0145" y1="569.6939" y2="577.6324"/>
    <polyline points="358.0386,572.3441 358.0386,576.1214 358.4226,577.2546 359.1786,577.6324 360.3186,577.6324 361.0626,577.2546 362.2026,576.1214"/>
    <line x1="362.2026" x2="362.2026" y1="572.3441" y2="577.6324"/>
    <polyline points="364.8431,574.6105 369.3791,574.6105 369.3791,573.855 369.0071,573.0995 368.6231,572.7158 367.8671,572.3441 366.7271,572.3441 365.9831,572.7158 365.2151,573.4833 364.8431,574.6105 364.8431,575.3659 365.2151,576.4991 365.9831,577.2546 366.7271,577.6324 367.8671,577.6324 368.6231,577.2546 369.3791,576.4991"/>
    <line x1="93.6306" x2="93.6306" y1="399.4644" y2="404.7527"/>
    <polyline points="93.6306,400.6036 92.8746,399.8361 92.1186,399.4644 90.9786,399.4644 90.2346,399.8361 89.4666,400.6036 89.0946,401.7308 89.0946,402.4863 89.4666,403.6195 90.2346,404.375 90.9786,404.7527 92.1186,404.7527 92.8746,404.375 93.6306,403.6195"/>
    <line x1="96.6426" x2="96.6426" y1="399.4644" y2="404.7527"/>
    <polyline points="96.6426,400.9753 97.7826,399.8361 98.5386,399.4644 99.6666,399.4644 100.4346,399.8361 100.8066,400.9753 100.8066,404.7527"/>
    <polyline points="100.8066,400.9753 101.9466,399.8361 102.6906,399.4644 103.8306,399.4644 104.5866,399.8361 104.9706,400.9753 104.9706,404.7527"/>
    <line x1="107.9825" x2="107.9825" y1="399.4644" y2="407.3908"/>
    <polyline points="107.9825,400.6036 108.7505,399.8361 109.4945,399.4644 110.6345,399.4644 111.3905,399.8361 112.1465,400.6036 112.5185,401.7308 112.5185,402.4863 112.1465,403.6195 111.3905,404.375 110.6345,404.7527 109.4945,404.7527 108.7505,404.375 107.9825,403.6195"/>
    <line x1="115.1586" x2="115.1586" y1="396.8142" y2="404.7527"/>
    <polygon points="117.8105,396.8142 118.1825,397.198 118.5665,396.8142 118.1825,396.4425"/>
    <line x1="118.1825" x2="118.1825" y1="399.4644" y2="404.7527"/>
    <polyline points="121.5906,396.8142 121.5906,403.2417 121.9746,404.375 122.7186,404.7527 123.4866,404.7527"/>
    <line x1="120.4626" x2="123.1026" y1="399.4644" y2="399.4644"/>
    <polyline points="125.7426,399.4644 125.7426,403.2417 126.1266,404.375 126.8826,404.7527 128.0226,404.7527 128.7666,404.375 129.9066,403.2417"/>
    <line x1="129.9066" x2="129.9066" y1="399.4644" y2="404.7527"/>
    <line x1="137.0826" x2="137.0826" y1="396.8142" y2="404.7527"/>
    <polyline points="137.0826,400.6036 136.3266,399.8361 135.5706,399.4644 134.4306,399.4644 133.6866,399.8361 132.9186,400.6036 132.5466,401.7308 132.5466,402.4863 132.9186,403.6195 133.6866,404.375 134.4306,404.7527 135.5706,404.7527 136.3266,404.375 137.0826,403.6195"/>
    <polyline points="139.7226,401.7308 144.2586,401.7308 144.2586,400.9753 143.8866,400.2199 143.5026,399.8361 142.7466,399.4644 141.6066,399.4644 140.8626,399.8361 140.0946,400.6036 139.7226,401.7308 139.7226,402.4863 140.0946,403.6195 140.8626,404.375 141.6066,404.7527 142.7466,404.7527 143.5026,404.375 144.2586,403.6195"/>
    <line x1="145.3926" x2="152.2026" y1="407.3908" y2="407.3908"/>
    <polyline points="157.8666,400.6036 157.1106,399.8361 156.3546,399.4644 155.2146,399.4644 154.4706,399.8361 153.7026,400.6036 153.3306,401.7308 153.3306,402.4863 153.7026,403.6195 154.4706,404.375 155.2146,404.7527 156.3546,404.7527 157.1106,404.375 157.8666,403.6195"/>
    <line x1="160.5065" x2="160.5065" y1="396.8142" y2="404.7527"/>
    <polyline points="160.5065,400.9753 161.6465,399.8361 162.4025,399.4644 163.5305,399.4644 164.2985,399.8361 164.6705,400.9753 164.6705,404.7527"/>
    <line x1="171.8466" x2="171.8466" y1="399.4644" y2="404.7527"/>
    <polyline points="171.8466,400.6036 171.0906,399.8361 170.3346,399.4644 169.1946,399.4644 168.4506,399.8361 167.6826,400.6036 167.3106,401.7308 167.3106,402.4863 167.6826,403.6195 168.4506,404.375 169.1946,404.7527 170.3346,404.7527 171.0906,404.375 171.8466,403.6195"/>
    <line x1="174.8586" x2="174.8586" y1="399.4644" y2="404.7527"/>
    <polyline points="174.8586,400.9753 175.9986,399.8361 176.7546,399.4644 177.8826,399.4644 178.6506,399.8361 179.0226,400.9753 179.0226,404.7527"/>
    <polyline points="186.1986,399.4644 186.1986,405.5082 185.8266,406.6474 185.4426,407.0191 184.6866,407.3908 183.5466,407.3908 182.8026,407.0191"/>
    <polyline points="186.1986,400.6036 185.4426,399.8361 184.6866,399.4644 183.5466,399.4644 182.8026,399.8361 182.0346,400.6036 181.6626,401.7308 181.6626,402.4863 182.0346,403.6195 182.8026,404.375 183.5466,404.7527 184.6866,404.7527 185.4426,404.375 186.1986,403.6195"/>
    <polyline points="188.8386,401.7308 193.3746,401.7308 193.3746,400.9753 193.0026,400.2199 192.6186,399.8361 191.8626,399.4644 190.7226,399.4644 189.9786,399.8361 189.2106,400.6036 188.8386,401.7308 188.8386,402.4863 189.2106,403.6195 189.9786,404.375 190.7226,404.7527 191.8626,404.7527 192.6186,404.375 193.3746,403.6195"/>
    <polyline points="92.8506,623.656 92.8506,630.0835 93.2346,631.2168 93.9786,631.5945 94.7466,631.5945"/>
    <line x1="91.7226" x2="94.3626" y1="626.3062" y2="626.3062"/>
    <line x1="101.1666" x2="101.1666" y1="626.3062" y2="631.5945"/>
    <polyline points="101.1666,627.4454 100.4106,626.6779 99.6546,626.3062 98.5146,626.3062 97.7706,626.6779 97.0026,627.4454 96.6306,628.5726 96.6306,629.3281 97.0026,630.4613 97.7706,631.2168 98.5146,631.5945 99.6546,631.5945 100.4106,631.2168 101.1666,630.4613"/>
    <line x1="104.1786" x2="104.1786" y1="623.656" y2="631.5945"/>
    <polyline points="104.1786,627.4454 104.9466,626.6779 105.6906,626.3062 106.8306,626.3062 107.5866,626.6779 108.3426,627.4454 108.7146,628.5726 108.7146,629.3281 108.3426,630.4613 107.5866,631.2168 106.8306,631.5945 105.6906,631.5945 104.9466,631.2168 104.1786,630.4613"/>
    <line x1="110.9826" x2="112.4946" y1="626.3062" y2="631.5945"/>
    <line x1="114.0066" x2="112.4946" y1="626.3062" y2="631.5945"/>
    <line x1="114.0066" x2="115.5186" y1="626.3062" y2="631.5945"/>
    <line x1="117.0306" x2="115.5186" y1="626.3062" y2="631.5945"/>
    <line x1="119.6706" x2="119.6706" y1="626.3062" y2="631.5945"/>
    <polyline points="119.6706,628.5726 120.0546,627.4454 120.8106,626.6779 121.5666,626.3062 122.6946,626.3062"/>
    <polygon points="124.2187,623.656 124.5907,624.0398 124.9747,623.656 124.5907,623.2843"/>
    <line x1="124.5907" x2="124.5907" y1="626.3062" y2="631.5945"/>
    <polyline points="127.9986,623.656 127.9986,630.0835 128.3826,631.2168 129.1266,631.5945 129.8946,631.5945"/>
    <line x1="126.8706" x2="129.5106" y1="626.3062" y2="626.3062"/>
    <polyline points="131.7786,628.5726 136.3146,628.5726 136.3146,627.8171 135.9426,627.0617 135.5586,626.6779 134.8026,626.3062 133.6626,626.3062 132.9186,626.6779 132.1506,627.4454 131.7786,628.5726 131.7786,629.3281 132.1506,630.4613 132.9186,631.2168 133.6626,631.5945 134.8026,631.5945 135.5586,631.2168 136.3146,630.4613"/>
    <polyline points="138.5826,629.3281 138.5826,628.5726 138.9546,627.4454 139.7226,627.0617 140.4666,627.0617 141.2346,627.4454 142.7466,628.5726 143.4906,628.9563 144.2586,628.9563 145.0026,628.5726 145.3866,627.8171"/>
    <polyline points="138.5826,628.5726 138.9546,627.8171 139.7226,627.4454 140.4666,627.4454 141.2346,627.8171 142.7466,628.9563 143.4906,629.3281 144.2586,629.3281 145.0026,628.9563 145.3866,627.8171 145.3866,627.0617"/>
    <line x1="156.7267" x2="156.7267" y1="626.3062" y2="631.5945"/>
    <polyline points="156.7267,627.4454 155.9707,626.6779 155.2147,626.3062 154.0747,626.3062 153.3307,626.6779 152.5627,627.4454 152.1907,628.5726 152.1907,629.3281 152.5627,630.4613 153.3307,631.2168 154.0747,631.5945 155.2147,631.5945 155.9707,631.2168 156.7267,630.4613"/>
    <line x1="159.7387" x2="159.7387" y1="626.3062" y2="631.5945"/>
    <polyline points="159.7387,627.8171 160.8787,626.6779 161.6347,626.3062 162.7627,626.3062 163.5307,626.6779 163.9027,627.8171 163.9027,631.5945"/>
    <polyline points="163.9027,627.8171 165.0427,626.6779 165.7867,626.3062 166.9267,626.3062 167.6827,626.6779 168.0667,627.8171 168.0667,631.5945"/>
    <line x1="171.0787" x2="171.0787" y1="626.3062" y2="634.2326"/>
    <polyline points="171.0787,627.4454 171.8467,626.6779 172.5907,626.3062 173.7307,626.3062 174.4867,626.6779 175.2427,627.4454 175.6147,628.5726 175.6147,629.3281 175.2427,630.4613 174.4867,631.2168 173.7307,631.5945 172.5907,631.5945 171.8467,631.2168 171.0787,630.4613"/>
    <line x1="178.2547" x2="178.2547" y1="623.656" y2="631.5945"/>
    <polygon points="180.9066,623.656 181.2786,624.0398 181.6626,623.656 181.2786,623.2843"/>
    <line x1="181.2786" x2="181.2786" y1="626.3062" y2="631.5945"/>
    <polyline points="184.6867,623.656 184.6867,630.0835 185.0707,631.2168 185.8147,631.5945 186.5827,631.5945"/>
    <line x1="183.5587" x2="186.1987" y1="626.3062" y2="626.3062"/>
    <polyline points="188.8387,626.3062 188.8387,630.0835 189.2227,631.2168 189.9787,631.5945 191.1187,631.5945 191.8627,631.2168 193.0027,630.0835"/>
    <line x1="193.0027" x2="193.0027" y1="626.3062" y2="631.5945"/>
    <line x1="200.1789" x2="200.1789" y1="623.656" y2="631.5945"/>
    <polyline points="200.1789,627.4454 199.4229,626.6779 198.6669,626.3062 197.5269,626.3062 196.7829,626.6779 196.0149,627.4454 195.6429,628.5726 195.6429,629.3281 196.0149,630.4613 196.7829,631.2168 197.5269,631.5945 198.6669,631.5945 199.4229,631.2168 200.1789,630.4613"/>
    <polyline points="202.8184,628.5726 207.3544,628.5726 207.3544,627.8171 206.9824,627.0617 206.5984,626.6779 205.8424,626.3062 204.7024,626.3062 203.9584,626.6779 203.1904,627.4454 202.8184,628.5726 202.8184,629.3281 203.1904,630.4613 203.9584,631.2168 204.7024,631.5945 205.8424,631.5945 206.5984,631.2168 207.3544,630.4613"/>
    <line x1="208.4888" x2="215.2989" y1="634.2326" y2="634.2326"/>
    <polyline points="220.9623,627.4454 220.2063,626.6779 219.4503,626.3062 218.3103,626.3062 217.5663,626.6779 216.7983,627.4454 216.4263,628.5726 216.4263,629.3281 216.7983,630.4613 217.5663,631.2168 218.3103,631.5945 219.4503,631.5945 220.2063,631.2168 220.9623,630.4613"/>
    <line x1="223.6027" x2="223.6027" y1="623.656" y2="631.5945"/>
    <polyline points="223.6027,627.8171 224.7427,626.6779 225.4987,626.3062 226.6267,626.3062 227.3947,626.6779 227.7667,627.8171 227.7667,631.5945"/>
    <line x1="234.9432" x2="234.9432" y1="626.3062" y2="631.5945"/>
    <polyline points="234.9432,627.4454 234.1872,626.6779 233.4312,626.3062 232.2912,626.3062 231.5472,626.6779 230.7792,627.4454 230.4072,628.5726 230.4072,629.3281 230.7792,630.4613 231.5472,631.2168 232.2912,631.5945 233.4312,631.5945 234.1872,631.2168 234.9432,630.4613"/>
    <line x1="237.9547" x2="237.9547" y1="626.3062" y2="631.5945"/>
    <polyline points="237.9547,627.8171 239.0947,626.6779 239.8507,626.3062 240.9787,626.3062 241.7467,626.6779 242.1187,627.8171 242.1187,631.5945"/>
    <polyline points="249.2952,626.3062 249.2952,632.35 248.9232,633.4892 248.5392,633.8609 247.7832,634.2326 246.6432,634.2326 245.8992,633.8609"/>
    <polyline points="249.2952,627.4454 248.5392,626.6779 247.7832,626.3062 246.6432,626.3062 245.8992,626.6779 245.1312,627.4454 244.7592,628.5726 244.7592,629.3281 245.1312,630.4613 245.8992,631.2168 246.6432,631.5945 247.7832,631.5945 248.5392,631.2168 249.2952,630.4613"/>
    <polyline points="251.9347,628.5726 256.4707,628.5726 256.4707,627.8171 256.0987,627.0617 255.7147,626.6779 254.9587,626.3062 253.8187,626.3062 253.0747,626.6779 252.3067,627.4454 251.9347,628.5726 251.9347,629.3281 252.3067,630.4613 253.0747,631.2168 253.8187,631.5945 254.9587,631.5945 255.7147,631.2168 256.4707,630.4613"/>
    <line x1="93.9786" x2="93.9786" y1="595.9559" y2="600.4828"/>
    <line x1="92.0946" x2="95.8746" y1="597.0831" y2="599.3496"/>
    <line x1="95.8746" x2="92.0946" y1="597.0831" y2="599.3496"/>
    <polyline points="98.1426,599.3496 98.1426,598.5941 98.5146,597.4669 99.2826,597.0831 100.0266,597.0831 100.7946,597.4669 102.3066,598.5941 103.0506,598.9778 103.8186,598.9778 104.5626,598.5941 104.9466,597.8386"/>
    <polyline points="98.1426,598.5941 98.5146,597.8386 99.2826,597.4669 100.0266,597.4669 100.7946,597.8386 102.3066,598.9778 103.0506,599.3496 103.8186,599.3496 104.5626,598.9778 104.9466,597.8386 104.9466,597.0831"/>
    <polygon points="114.0186,593.6775 112.8906,594.0613 112.1226,595.1885 111.7506,597.0831 111.7506,598.2104 112.1226,600.105 112.8906,601.2382 114.0186,601.616 114.7746,601.616 115.9146,601.2382 116.6586,600.105 117.0426,598.2104 117.0426,597.0831 116.6586,595.1885 115.9146,594.0613 114.7746,593.6775"/>
    <polygon points="119.6826,599.7213 119.3106,600.105 119.6826,600.4828 120.0666,600.105"/>
    <polyline points="122.7066,595.5722 122.7066,595.1885 123.0906,594.445 123.4746,594.0613 124.2186,593.6775 125.7306,593.6775 126.4986,594.0613 126.8706,594.445 127.2426,595.1885 127.2426,595.9559 126.8706,596.6994 126.1146,597.8386 122.3346,601.616 127.6266,601.616"/>
    <polygon points="93.9786,567.3478 93.2346,567.7195 92.4666,568.487 92.0946,569.6142 92.0946,570.3697 92.4666,571.5029 93.2346,572.2584 93.9786,572.6361 95.1186,572.6361 95.8746,572.2584 96.6306,571.5029 97.0026,570.3697 97.0026,569.6142 96.6306,568.487 95.8746,567.7195 95.1186,567.3478"/>
    <polyline points="103.4346,568.487 103.0506,567.7195 101.9226,567.3478 100.7826,567.3478 99.6426,567.7195 99.2706,568.487 99.6426,569.2305 100.4106,569.6142 102.2946,569.9979 103.0506,570.3697 103.4346,571.1252 103.4346,571.5029 103.0506,572.2584 101.9226,572.6361 100.7826,572.6361 99.6426,572.2584 99.2706,571.5029"/>
    <polyline points="110.2386,568.487 109.4826,567.7195 108.7266,567.3478 107.5866,567.3478 106.8426,567.7195 106.0746,568.487 105.7026,569.6142 105.7026,570.3697 106.0746,571.5029 106.8426,572.2584 107.5866,572.6361 108.7266,572.6361 109.4826,572.2584 110.2386,571.5029"/>
    <polyline points="112.5067,570.3697 112.5067,569.6142 112.8787,568.487 113.6467,568.1033 114.3907,568.1033 115.1587,568.487 116.6707,569.6142 117.4147,569.9979 118.1827,569.9979 118.9267,569.6142 119.3107,568.8587"/>
    <polyline points="112.5067,569.6142 112.8787,568.8587 113.6467,568.487 114.3907,568.487 115.1587,568.8587 116.6707,569.9979 117.4147,570.3697 118.1827,570.3697 118.9267,569.9979 119.3107,568.8587 119.3107,568.1033"/>
    <polyline points="127.2546,566.2086 127.9986,565.8369 129.1386,564.6977 129.1386,572.6361"/>
  </g>
</svg>
