<?xml version="1.0" encoding="utf-8" ?>
<svg xmlns="http://www.w3.org/2000/svg" xmlns:cc="http://creativecommons.org/ns#" xmlns:dc="http://purl.org/dc/elements/1.1/" xmlns:ev="http://www.w3.org/2001/xml-events" xmlns:inkscape="http://www.inkscape.org/namespaces/inkscape" xmlns:rdf="http://www.w3.org/1999/02/22-rdf-syntax-ns#" xmlns:sodipodi="http://sodipodi.sourceforge.net/DTD/sodipodi-0.dtd" xmlns:xlink="http://www.w3.org/1999/xlink" baseProfile="tiny" height="25.0000135cm" version="1.2" viewBox="0 0 850.39416 944.8824000000001" width="22.50001215cm">
  <metadata>
    <rdf:RDF>
      <cc:Work>
        <dc:format>image/svg+xml</dc:format>
        <dc:source>vpype read page_3.svg write page3_new.svg
</dc:source>
        <dc:date>2021-06-09T22:28:42.680600</dc:date>
      </cc:Work>
    </rdf:RDF>
  </metadata>
  <defs/>
  <g fill="none" id="layer1" inkscape:groupmode="layer" inkscape:label="1" stroke="#00f" style="display:inline">
    <polyline points="144.7038,302.0941 144.2344,301.1701 143.3104,300.2461 142.3864,299.7767 140.5384,299.7767 139.6144,300.2461 138.6904,301.1701 138.2211,302.0941 137.7664,303.4727 137.7664,305.7901 138.2211,307.1687 138.6904,308.1001 139.6144,309.0241 140.5384,309.4861 142.3864,309.4861 143.3104,309.0241 144.2344,308.1001 144.7038,307.1687 144.7038,305.7901"/>
    <line x1="142.3864" x2="144.7038" y1="305.7901" y2="305.7901"/>
    <polyline points="147.4758,305.7901 153.0198,305.7901 153.0198,304.8661 152.5651,303.9421 152.0958,303.4727 151.1718,303.0181 149.7784,303.0181 148.8691,303.4727 147.9304,304.4114 147.4758,305.7901 147.4758,306.7141 147.9304,308.1001 148.8691,309.0241 149.7784,309.4861 151.1718,309.4861 152.0958,309.0241 153.0198,308.1001"/>
    <line x1="156.2464" x2="156.2464" y1="303.0181" y2="309.4861"/>
    <polyline points="156.2464,304.8661 157.6398,303.4727 158.5638,303.0181 159.9424,303.0181 160.8811,303.4727 161.3358,304.8661 161.3358,309.4861"/>
    <polyline points="164.5624,305.7901 170.1064,305.7901 170.1064,304.8661 169.6518,303.9421 169.1824,303.4727 168.2584,303.0181 166.8651,303.0181 165.9558,303.4727 165.0171,304.4114 164.5624,305.7901 164.5624,306.7141 165.0171,308.1001 165.9558,309.0241 166.8651,309.4861 168.2584,309.4861 169.1824,309.0241 170.1064,308.1001"/>
    <line x1="173.3331" x2="173.3331" y1="303.0181" y2="309.4861"/>
    <polyline points="173.3331,305.7901 173.8024,304.4114 174.7264,303.4727 175.6504,303.0181 177.0291,303.0181"/>
    <line x1="184.4357" x2="184.4357" y1="303.0181" y2="309.4861"/>
    <polyline points="184.4357,304.4114 183.5117,303.4727 182.5877,303.0181 181.1944,303.0181 180.285,303.4727 179.3464,304.4114 178.8917,305.7901 178.8917,306.7141 179.3464,308.1001 180.285,309.0241 181.1944,309.4861 182.5877,309.4861 183.5117,309.0241 184.4357,308.1001"/>
    <polyline points="188.5864,299.7767 188.5864,307.6381 189.0557,309.0241 189.965,309.4861 190.9037,309.4861"/>
    <line x1="187.2077" x2="190.4344" y1="303.0181" y2="303.0181"/>
    <polygon points="194.1304,299.7767 193.661,299.3221 193.2064,299.7767 193.661,300.2461"/>
    <line x1="193.661" x2="193.661" y1="303.0181" y2="309.4861"/>
    <line x1="197.357" x2="197.357" y1="303.0181" y2="309.4861"/>
    <polyline points="197.357,304.8661 198.7504,303.4727 199.6743,303.0181 201.053,303.0181 201.9917,303.4727 202.4463,304.8661 202.4463,309.4861"/>
    <polyline points="211.217,303.0181 211.217,310.4101 210.7624,311.8034 210.293,312.2581 209.369,312.7127 207.9757,312.7127 207.0664,312.2581"/>
    <polyline points="211.217,304.4114 210.293,303.4727 209.369,303.0181 207.9757,303.0181 207.0664,303.4727 206.1277,304.4114 205.673,305.7901 205.673,306.7141 206.1277,308.1001 207.0664,309.0241 207.9757,309.4861 209.369,309.4861 210.293,309.0241 211.217,308.1001"/>
    <line x1="225.5317" x2="225.5317" y1="303.0181" y2="309.4861"/>
    <polyline points="225.5317,304.4114 224.6077,303.4727 223.6837,303.0181 222.2903,303.0181 221.381,303.4727 220.4423,304.4114 219.9877,305.7901 219.9877,306.7141 220.4423,308.1001 221.381,309.0241 222.2903,309.4861 223.6837,309.4861 224.6077,309.0241 225.5317,308.1001"/>
    <polyline points="239.3917,304.4114 238.9223,303.4727 237.5437,303.0181 236.1503,303.0181 234.757,303.4727 234.3023,304.4114 234.757,305.3207 235.6957,305.7901 237.9983,306.2594 238.9223,306.7141 239.3917,307.6381 239.3917,308.1001 238.9223,309.0241 237.5437,309.4861 236.1503,309.4861 234.757,309.0241 234.3023,308.1001"/>
    <polygon points="243.0881,299.7767 242.6188,299.3221 242.1641,299.7767 242.6188,300.2461"/>
    <line x1="242.6188" x2="242.6188" y1="303.0181" y2="309.4861"/>
    <line x1="246.3148" x2="246.3148" y1="303.0181" y2="309.4861"/>
    <polyline points="246.3148,304.8661 247.7081,303.4727 248.6321,303.0181 250.0108,303.0181 250.9494,303.4727 251.4041,304.8661 251.4041,309.4861"/>
    <polyline points="254.6301,305.7901 260.1741,305.7901 260.1741,304.8661 259.7194,303.9421 259.2501,303.4727 258.3261,303.0181 256.9327,303.0181 256.0234,303.4727 255.0847,304.4114 254.6301,305.7901 254.6301,306.7141 255.0847,308.1001 256.0234,309.0241 256.9327,309.4861 258.3261,309.4861 259.2501,309.0241 260.1741,308.1001"/>
    <polyline points="269.414,299.7767 269.414,307.6381 269.8834,309.0241 270.7927,309.4861 271.7314,309.4861"/>
    <line x1="268.0354" x2="271.262" y1="303.0181" y2="303.0181"/>
    <polygon points="274.4887,304.4114 274.034,305.7901 274.034,306.7141 274.4887,308.1001 275.4274,309.0241 276.3367,309.4861 277.73,309.4861 278.654,309.0241 279.578,308.1001 280.0327,306.7141 280.0327,305.7901 279.578,304.4114 278.654,303.4727 277.73,303.0181 276.3367,303.0181 275.4274,303.4727"/>
    <line x1="283.2597" x2="283.2597" y1="303.0181" y2="309.4861"/>
    <polyline points="283.2597,304.8661 284.653,303.4727 285.577,303.0181 286.9557,303.0181 287.8943,303.4727 288.349,304.8661 288.349,309.4861"/>
    <polyline points="291.576,305.7901 297.12,305.7901 297.12,304.8661 296.6653,303.9421 296.196,303.4727 295.272,303.0181 293.8786,303.0181 292.9693,303.4727 292.0306,304.4114 291.576,305.7901 291.576,306.7141 292.0306,308.1001 292.9693,309.0241 293.8786,309.4861 295.272,309.4861 296.196,309.0241 297.12,308.1001"/>
    <polygon points="306.3599,299.7767 305.8906,299.3221 305.4359,299.7767 305.8906,300.2461"/>
    <line x1="305.8907" x2="305.8907" y1="303.0181" y2="309.4861"/>
    <line x1="309.5866" x2="309.5866" y1="303.0181" y2="309.4861"/>
    <polyline points="309.5866,304.8661 310.98,303.4727 311.904,303.0181 313.2827,303.0181 314.2213,303.4727 314.676,304.8661 314.676,309.4861"/>
    <line x1="323.9006" x2="323.9006" y1="299.7767" y2="309.4861"/>
    <polyline points="323.9006,299.7767 328.066,299.7767 329.4446,300.2461 329.914,300.7154 330.3833,301.6247 330.3833,303.0181 329.914,303.9421 329.4446,304.4114 328.066,304.8661 323.9006,304.8661"/>
    <polyline points="333.6106,303.0181 333.6106,307.6381 334.0799,309.0241 335.0039,309.4861 336.3973,309.4861 337.3066,309.0241 338.6999,307.6381"/>
    <line x1="338.6999" x2="338.6999" y1="303.0181" y2="309.4861"/>
    <line x1="342.3806" x2="342.3806" y1="303.0181" y2="309.4861"/>
    <polyline points="342.3806,305.7901 342.8499,304.4114 343.7739,303.4727 344.6979,303.0181 346.0766,303.0181"/>
    <polyline points="347.9399,305.7901 353.4839,305.7901 353.4839,304.8661 353.0292,303.9421 352.5599,303.4727 351.6359,303.0181 350.2426,303.0181 349.3332,303.4727 348.3946,304.4114 347.9399,305.7901 347.9399,306.7141 348.3946,308.1001 349.3332,309.0241 350.2426,309.4861 351.6359,309.4861 352.5599,309.0241 353.4839,308.1001"/>
    <line x1="362.2545" x2="362.2545" y1="299.7767" y2="309.4861"/>
    <polyline points="362.2545,299.7767 365.4959,299.7767 366.8892,300.2461 367.7985,301.1701 368.2679,302.0941 368.7372,303.4727 368.7372,305.7901 368.2679,307.1687 367.7985,308.1001 366.8892,309.0241 365.4959,309.4861 362.2545,309.4861"/>
    <line x1="377.0528" x2="377.0528" y1="303.0181" y2="309.4861"/>
    <polyline points="377.0528,304.4114 376.1288,303.4727 375.2048,303.0181 373.8115,303.0181 372.9022,303.4727 371.9635,304.4114 371.5088,305.7901 371.5088,306.7141 371.9635,308.1001 372.9022,309.0241 373.8115,309.4861 375.2048,309.4861 376.1288,309.0241 377.0528,308.1001"/>
    <polyline points="381.2038,299.7767 381.2038,307.6381 381.6731,309.0241 382.5825,309.4861 383.5211,309.4861"/>
    <line x1="379.8251" x2="383.0518" y1="303.0181" y2="303.0181"/>
    <line x1="391.3678" x2="391.3678" y1="303.0181" y2="309.4861"/>
    <polyline points="391.3678,304.4114 390.4438,303.4727 389.5198,303.0181 388.1264,303.0181 387.2171,303.4727 386.2785,304.4114 385.8238,305.7901 385.8238,306.7141 386.2785,308.1001 387.2171,309.0241 388.1264,309.4861 389.5198,309.4861 390.4438,309.0241 391.3678,308.1001"/>
    <polygon points="92.0662,544.4866 92.0662,525.4851 201.0609,525.4851 201.0609,544.4866"/>
    <polygon points="99.0659,525.4842 99.0659,527.4843 92.0662,527.4843 92.0662,525.4842"/>
    <polygon points="83.0667,497.482 83.0667,512.4832 68.0674,512.4832 68.0674,497.482"/>
    <polygon points="75.0671,511.4831 75.0671,512.4832 68.0674,512.4832 68.0674,511.4831"/>
    <polygon points="75.0671,497.482 75.0671,498.4821 68.0674,498.4821 68.0674,497.482"/>
    <polygon points="79.1387,510.4137 78.8169,510.6122 78.4841,510.7917 78.1414,510.9515 77.7901,511.0911 77.4312,511.21 77.066,511.3079 76.6957,511.3843 76.3216,511.4391 75.945,511.4721 75.567,511.4831 75.1891,511.4721 74.8125,511.4391 74.4384,511.3843 74.0681,511.3079 73.7029,511.21 73.344,511.0911 72.9926,510.9515 72.65,510.7917 72.3172,510.6122 71.9954,510.4137 71.6857,510.1968 71.3891,509.9623 71.1067,509.7109 70.8393,509.4435 70.588,509.161 70.3535,508.8644 70.1366,508.5547 69.9382,508.2328 69.7587,507.9 69.5989,507.5573 69.4593,507.2059 69.3404,506.847 69.2426,506.4817 69.1661,506.1114 69.1113,505.7373 69.0784,505.3606 69.0674,504.9826 69.0784,504.6046 69.1113,504.2279 69.1661,503.8538 69.2426,503.4835 69.3404,503.1182 69.4593,502.7593 69.5989,502.4079 69.7587,502.0652 69.9382,501.7324 70.1366,501.4105 70.3535,501.1008 70.588,500.8042 70.8393,500.5217 71.1067,500.2543 71.3891,500.0029 71.6857,499.7684 71.9954,499.5515 72.3172,499.353 72.65,499.1735 72.9926,499.0137 73.344,498.8741 73.7029,498.7552 74.0681,498.6573 74.4384,498.5809 74.8125,498.5261 75.1891,498.4931 75.567,498.4821 75.945,498.4931 76.3216,498.5261 76.6957,498.5809 77.066,498.6573 77.4312,498.7552 77.7901,498.8741 78.1414,499.0137 78.4841,499.1735 78.8169,499.353 79.1387,499.5515 79.4484,499.7684 79.7449,500.0029 80.0274,500.2543 80.2947,500.5217 80.5461,500.8042 80.7806,501.1008 80.9974,501.4105 81.1959,501.7324 81.3754,502.0652 81.5351,502.4079 81.6747,502.7593 81.7937,503.1182 81.8915,503.4835 81.968,503.8538 82.0228,504.2279 82.0557,504.6046 82.0667,504.9826 82.0557,505.3606 82.0228,505.7373 81.968,506.1114 81.8915,506.4817 81.7937,506.847 81.6747,507.2059 81.5351,507.5573 81.3754,507.9 81.1959,508.2328 80.9974,508.5547 80.7806,508.8644 80.5461,509.161 80.2947,509.4435 80.0274,509.7109 79.7449,509.9623 79.4484,510.1968"/>
    <polygon points="92.0662,515.4843 92.0662,496.4828 138.064,496.4828 138.064,515.4843"/>
    <polygon points="99.0659,513.4833 99.0659,515.4834 92.0662,515.4834 92.0662,513.4833"/>
    <polygon points="99.0659,496.482 99.0659,498.4821 92.0662,498.4821 92.0662,496.482"/>
    <polygon points="138.064,496.482 138.064,498.4821 131.0644,498.4821 131.0644,496.482"/>
    <polygon points="454.0483,345.4706 446.0487,353.4713 446.0487,370.4726 454.0483,378.4733 302.0558,378.4733 302.0558,345.4706"/>
    <polygon points="309.0556,376.4727 309.0556,378.4729 302.0558,378.4729 302.0558,376.4727"/>
    <polygon points="309.0556,345.4704 309.0556,347.4705 302.0558,347.4705 302.0558,345.4704"/>
    <polygon points="468.0476,383.4737 460.048,391.4743 460.048,408.4758 468.0476,416.4764 302.0558,416.4764 302.0558,383.4737"/>
    <polygon points="309.0556,414.4757 309.0556,416.4759 302.0558,416.4759 302.0558,414.4757"/>
    <polygon points="309.0556,383.4732 309.0556,385.4734 302.0558,385.4734 302.0558,383.4732"/>
    <line x1="71.0673" x2="95.0661" y1="512.4832" y2="525.4842"/>
    <line x1="95.0661" x2="95.0661" y1="515.4834" y2="525.4842"/>
    <polygon points="92.0662,486.482 292.0563,486.482 292.0563,346.4707 92.0662,346.4707"/>
    <line x1="92.0662" x2="96.066" y1="416.4764" y2="416.4764"/>
    <line x1="292.0564" x2="288.0565" y1="416.4764" y2="416.4764"/>
    <line x1="92.0662" x2="96.066" y1="381.4735" y2="381.4735"/>
    <line x1="292.0564" x2="288.0565" y1="381.4735" y2="381.4735"/>
    <line x1="92.0662" x2="96.066" y1="451.4792" y2="451.4792"/>
    <line x1="292.0564" x2="288.0565" y1="451.4792" y2="451.4792"/>
    <polyline points="92.0662,406.566 92.3417,406.2535 92.5968,405.9416 92.8315,405.6302 93.0458,405.3195 93.2396,405.0093 93.4131,404.6997 93.5661,404.3907 93.7328,404.0305 93.8995,403.6705 94.0661,403.3105 94.2328,402.9506 94.3994,402.5907 94.5661,402.231 94.7327,401.8716 94.8994,401.513 95.0661,401.155 95.2327,400.7978 95.3994,400.4412 95.566,400.0854 95.7327,399.73 95.8994,399.3748 96.066,399.0199 96.2327,398.6651 96.3993,398.3105 96.566,397.9561 96.7326,397.6022 96.8993,397.2491 97.066,396.8968 97.2326,396.5454 97.3993,396.1947 97.5659,395.8449 97.7326,395.4957 97.8993,395.1467 98.0659,394.7981 98.2326,394.4498 98.3992,394.1019 98.5659,393.7542 98.7325,393.4072 98.8992,393.0611 99.0659,392.7159 99.2325,392.3716 99.3992,392.0283 99.5658,391.6858 99.7325,391.344 99.8992,391.0027 100.0658,390.6619 100.2325,390.3215 100.3991,389.9815 100.5658,389.642 100.7658,389.2356 100.9658,388.8307 101.1658,388.4272 101.3657,388.0251 101.5657,387.6245 101.7657,387.225 101.9657,386.8264 102.1657,386.4287 102.3657,386.0317 102.5657,385.6356 102.7657,385.2408 102.9657,384.8475 103.1657,384.4557 103.3656,384.0656 103.5656,383.677 103.7656,383.2897 103.9656,382.9035 104.1656,382.5183 104.3656,382.1341 104.5656,381.7509 104.7656,381.3692 104.9656,380.9891 105.1656,380.6107 105.3655,380.2341 105.5655,379.8592 105.7655,379.4857 105.9655,379.1134 106.1655,378.7422 106.3655,378.3723 106.5655,378.0035 106.7655,377.6362 106.9655,377.2708 107.1655,376.9072 107.3654,376.5456 107.5654,376.1858 107.7654,375.8276 107.9654,375.4707 108.1654,375.115 108.3654,374.7607 108.5654,374.4077 108.7654,374.0564 108.9654,373.7071 109.1654,373.3598 109.3653,373.0145 109.5653,372.6713 109.7653,372.3298 109.9653,371.9897 110.1653,371.651 110.3653,371.3138 110.5653,370.9779 110.7653,370.6439 110.9653,370.312 111.1653,369.9824 111.3652,369.6549 111.5652,369.3296 111.8152,368.9255 112.0652,368.5239 112.3152,368.1246 112.5652,367.7278 112.8152,367.334 113.0652,366.9438 113.3151,366.5571 113.5651,366.174 113.8151,365.7941 114.0651,365.4168 114.3151,365.0422 114.5651,364.6702 114.8151,364.3014 115.0651,363.9363 115.315,363.5749 115.565,363.2171 115.815,362.8627 116.065,362.5112 116.315,362.1626 116.565,361.8169 116.815,361.4746 117.065,361.1361 117.3149,360.8013 117.5649,360.4703 117.8149,360.1427 118.0649,359.8184 118.3149,359.4972 118.5649,359.1792 118.8149,358.8648 119.0649,358.5541 119.3148,358.2473 119.5648,357.9443 119.8148,357.645 120.0648,357.3491 120.3148,357.0566 120.5649,356.7676 120.8982,356.388 121.2315,356.0153 121.5648,355.6497 121.8982,355.2907 122.2315,354.9381 122.5648,354.5918 122.8981,354.2523 123.2314,353.9201 123.5647,353.5951 123.8981,353.277 124.2314,352.9654 124.5647,352.6603 124.898,352.3622 125.2313,352.0716 125.5646,351.7885 125.898,351.5125 126.2313,351.2432 126.5646,350.9804 126.8979,350.7249 127.2312,350.4771 127.5645,350.2371 127.8979,350.0043 128.2312,349.7783 128.5645,349.559 128.8978,349.3471 129.2311,349.1431 129.5644,348.947 129.8978,348.7584 130.2311,348.5768 130.5644,348.4021 131.0644,348.1541 131.5643,347.9238 132.0643,347.7105 132.5643,347.5136 133.0643,347.3336 133.5642,347.171 134.0642,347.0256 134.5642,346.8972 135.0642,346.7858 135.5641,346.6916 136.0641,346.6146 136.5641,346.5552 137.0641,346.513 137.564,346.4877 138.064,346.4796 138.564,346.4893 139.064,346.5163 139.5639,346.5601 140.0639,346.6212 140.5639,346.6998 141.0639,346.7956 141.5638,346.9084 142.0638,347.0383 142.5638,347.1855 143.0638,347.3499 143.5637,347.5311 144.0637,347.7294 144.5637,347.9446 145.0637,348.1767 145.5636,348.4258 145.897,348.6012 146.2303,348.7841 146.5636,348.9745 146.8969,349.1722 147.2302,349.3772 147.5635,349.5894 147.8969,349.8089 148.2302,350.036 148.5635,350.2707 148.8968,350.5125 149.2301,350.7613 149.5634,351.0169 149.8968,351.2797 150.2301,351.5501 150.5634,351.828 150.8967,352.113 151.23,352.4045 151.5633,352.7026 151.8967,353.0076 152.23,353.3202 152.5633,353.6404 152.8966,353.9674 153.2299,354.3006 153.5632,354.6399 153.8965,354.986 154.2299,355.3396 154.5632,355.7007 154.8965,356.0685 155.2298,356.4421 155.5631,356.8216 155.8131,357.1104 156.0631,357.4033 156.3131,357.7002 156.5631,358.0012 156.8131,358.3057 157.0631,358.6135 157.3131,358.9244 157.563,359.2386 157.813,359.5562 158.063,359.8777 158.313,360.2031 158.563,360.5323 158.813,360.865 159.063,361.2007 159.313,361.5395 159.5629,361.8813 159.8129,362.2265 160.0629,362.5754 160.3129,362.9279 160.5629,363.2841 160.8129,363.6435 161.0629,364.0059 161.3129,364.3712 161.5628,364.7394 161.8128,365.1108 162.0628,365.4857 162.3128,365.8641 162.5628,366.2459 162.8128,366.6309 163.0628,367.0185 163.3128,367.4088 163.5627,367.8018 163.7627,368.1184 163.9627,368.4371 164.1627,368.758 164.3627,369.081 164.5627,369.4061 164.7627,369.7331 164.9627,370.0616 165.1627,370.3917 165.3626,370.7233 165.5626,371.0565 165.7626,371.3914 165.9626,371.7285 166.1626,372.0675 166.3626,372.4087 166.5626,372.7519 166.7626,373.0969 166.9626,373.4432 167.1626,373.7908 167.3626,374.1398 167.5625,374.4902 167.7625,374.8423 167.9625,375.1963 168.1625,375.5523 168.3625,375.9103 168.5625,376.2702 168.7625,376.6317 168.9625,376.9944 169.1625,377.3583 169.3624,377.7234 169.5624,378.0896 169.7624,378.4574 169.9624,378.827 170.1624,379.1985 170.3624,379.5719 170.5624,379.9471 170.7624,380.3238 170.9624,380.7015 171.1624,381.0802 171.3624,381.4599 171.5623,381.8407 171.7623,382.2228 171.9623,382.6066 172.1623,382.9922 172.3623,383.3794 172.5623,383.7684 172.7623,384.1586 172.9623,384.5497 173.1623,384.9417 173.3623,385.3346 173.5622,385.7284 173.7622,386.1234 173.9622,386.5199 174.1622,386.9179 174.3622,387.3175 174.5622,387.7187 174.7622,388.1209 174.9622,388.5239 175.1622,388.9277 175.3621,389.3322 175.5621,389.7374 175.7288,390.0758 175.8955,390.4152 176.0621,390.7556 176.2288,391.0969 176.3954,391.4392 176.5621,391.7824 176.7287,392.1263 176.8954,392.4706 177.0621,392.8153 177.2287,393.1604 177.3954,393.5059 177.562,393.8518 177.7287,394.1984 177.8954,394.5457 178.062,394.8939 178.2287,395.243 178.3953,395.5929 178.562,395.9436 178.7286,396.2949 178.8953,396.6465 179.062,396.9983 179.2286,397.3505 179.3953,397.7029 179.5619,398.0556 179.7286,398.4088 179.8953,398.7628 180.0619,399.1175 180.2286,399.4729 180.3952,399.829 180.5619,400.1859 180.7285,400.5432 180.8952,400.9007 181.0619,401.2583 181.2285,401.6161 181.3952,401.9741 181.5618,402.3322 181.7285,402.6906 181.8952,403.0497 182.0618,403.4095 182.2285,403.7698 182.3951,404.1308 182.5618,404.4924 182.7284,404.8544 182.8951,405.2164 183.0618,405.5783 183.2284,405.9404 183.3951,406.3024 183.5617,406.6645 183.7284,407.0268 183.8951,407.3897 184.0617,407.7531 184.2284,408.117 184.395,408.4814 184.5617,408.8464 184.7284,409.2115 184.895,409.5765 185.0617,409.9414 185.2283,410.3063 185.395,410.671 185.5617,411.0356 185.7283,411.4004 185.895,411.7656 186.0616,412.1312 186.2283,412.4971 186.3949,412.8635 186.5616,413.2303 186.7282,413.5971 186.8949,413.9638 187.0616,414.3302 187.2282,414.6964 187.3949,415.0624 187.5615,415.4281 187.7282,415.7939 187.8949,416.16 188.0615,416.5263 188.2282,416.893 188.3948,417.2599 188.5615,417.627 188.7281,417.9942 188.8948,418.361 189.0615,418.7274 189.2281,419.0935 189.3948,419.4593 189.5614,419.8248 189.7281,420.1901 189.8948,420.5556 190.0614,420.9213 190.2281,421.2871 190.3947,421.6531 190.5614,422.0192 190.728,422.3852 190.8947,422.7507 191.0614,423.1158 191.228,423.4804 191.3947,423.8445 191.5613,424.2082 191.728,424.5717 191.8947,424.9352 192.0613,425.2987 192.228,425.6623 192.3946,426.0259 192.5613,426.3896 192.728,426.7529 192.8946,427.1157 193.0613,427.478 193.2279,427.8396 193.3946,428.2006 193.5612,428.5611 193.7279,428.9213 193.8946,429.2813 194.0612,429.6413 194.2279,430.0012 194.3945,430.361 194.5612,430.7208 194.7278,431.0802 194.8945,431.4388 195.0612,431.7968 195.2278,432.154 195.3945,432.5105 195.5611,432.8664 195.7278,433.2218 195.8945,433.5769 196.0611,433.9319 196.2278,434.2867 196.3944,434.6413 196.5611,434.9957 196.7277,435.3496 196.8944,435.7027 197.0611,436.055 197.2277,436.4064 197.3944,436.7571 197.561,437.1069 197.7277,437.4561 197.8944,437.8051 198.061,438.1537 198.2277,438.502 198.3943,438.8499 198.561,439.1976 198.7277,439.5446 198.8943,439.8907 199.061,440.2359 199.2276,440.5802 199.3943,440.9235 199.561,441.266 199.7276,441.6077 199.8943,441.9491 200.0609,442.2899 200.2276,442.6303 200.3942,442.9703 200.5609,443.3098 200.7609,443.7162 200.9609,444.1211 201.1609,444.5246 201.3609,444.9267 201.5609,445.3273 201.7608,445.7267 201.9608,446.1254 202.1608,446.5231 202.3608,446.9201 202.5608,447.3161 202.7608,447.711 202.9608,448.1043 203.1608,448.496 203.3608,448.8862 203.5607,449.2748 203.7607,449.662 203.9607,450.0483 204.1607,450.4335 204.3607,450.8177 204.5607,451.2008 204.7607,451.5826 204.9607,451.9627 205.1607,452.3411 205.3607,452.7177 205.5606,453.0926 205.7606,453.4661 205.9606,453.8384 206.1606,454.2096 206.3606,454.5795 206.5606,454.9483 206.7606,455.3156 206.9606,455.681 207.1606,456.0446 207.3605,456.4062 207.5605,456.766 207.7605,457.1242 207.9605,457.4811 208.1605,457.8367 208.3605,458.191 208.5605,458.544 208.7605,458.8954 208.9605,459.2447 209.1605,459.592 209.3604,459.9372 209.5604,460.2805 209.7604,460.622 209.9604,460.9621 210.1604,461.3008 210.3604,461.638 210.5604,461.9738 210.7604,462.3079 210.9604,462.6397 211.1604,462.9694 211.3604,463.2969 211.5603,463.6222 211.8103,464.0263 212.0603,464.4279 212.3103,464.8271 212.5603,465.2239 212.8103,465.6178 213.0603,466.008 213.3103,466.3947 213.5602,466.7777 213.8102,467.1577 214.0602,467.535 214.3102,467.9096 214.5602,468.2816 214.8102,468.6504 215.0602,469.0155 215.3102,469.3769 215.5602,469.7346 215.8101,470.0891 216.0601,470.4406 216.3101,470.7892 216.5601,471.1348 216.8101,471.4771 217.0601,471.8157 217.3101,472.1504 217.5601,472.4815 217.81,472.809 218.06,473.1333 218.31,473.4545 218.56,473.7725 218.81,474.087 219.06,474.3976 219.31,474.7044 219.5599,475.0074 219.8099,475.3067 220.0599,475.6027 220.3099,475.8951 220.5599,476.1842 220.8932,476.5638 221.2265,476.9364 221.5598,477.302 221.8932,477.661 222.2265,478.0136 222.5598,478.3599 222.8931,478.6994 223.2264,479.0316 223.5597,479.3566 223.8931,479.6747 224.2264,479.9863 224.5597,480.2914 224.893,480.5895 225.2263,480.8801 225.5596,481.1632 225.893,481.4391 226.2263,481.7085 226.5596,481.9712 226.8929,482.2268 227.2262,482.4746 227.5595,482.7146 227.8929,482.9473 228.2262,483.1734 228.5595,483.3926 228.8928,483.6046 229.2261,483.8085 229.5595,484.0046 229.8928,484.1932 230.2261,484.3749 230.5594,484.5495 231.0594,484.7975 231.5594,485.0278 232.0593,485.2411 232.5593,485.438 233.0593,485.618 233.5593,485.7806 234.0592,485.926 234.5592,486.0544 235.0592,486.1657 235.5592,486.26 236.0591,486.337 236.5591,486.3963 237.0591,486.4385 237.559,486.4638 238.059,486.4718 238.559,486.4618 239.059,486.4348 239.5589,486.391 240.0589,486.33 240.5589,486.2514 241.0589,486.1556 241.5588,486.0428 242.0588,485.9129 242.5588,485.7657 243.0588,485.6013 243.5587,485.4201 244.0587,485.2218 244.5587,485.0066 245.0587,484.7745 245.5587,484.5254 245.892,484.35 246.2253,484.1671 246.5586,483.9767 246.8919,483.779 247.2252,483.574 247.5586,483.3619 247.8919,483.1423 248.2252,482.9152 248.5585,482.6805 248.8918,482.4387 249.2251,482.19 249.5585,481.9343 249.8918,481.6715 250.2251,481.4011 250.5584,481.1232 250.8917,480.8382 251.225,480.5467 251.5584,480.2487 251.8917,479.9436 252.225,479.631 252.5583,479.3109 252.8916,478.9838 253.2249,478.6507 253.5582,478.3114 253.8916,477.9653 254.2249,477.6117 254.5582,477.2506 254.8915,476.8828 255.2248,476.5092 255.5581,476.1297 255.8081,475.8408 256.0581,475.548 256.3081,475.251 256.5581,474.9501 256.8081,474.6455 257.0581,474.3378 257.3081,474.0268 257.558,473.7127 257.808,473.395 258.058,473.0735 258.308,472.7482 258.558,472.419 258.808,472.0863 259.058,471.7506 259.308,471.4118 259.558,471.07 259.8079,470.7248 260.0579,470.3759 260.3079,470.0234 260.5579,469.6672 260.8079,469.3077 261.0579,468.9454 261.3079,468.5801 261.5579,468.2119 261.8078,467.8405 262.0578,467.4656 262.3078,467.0872 262.5578,466.7054 262.8078,466.3204 263.0578,465.9328 263.3078,465.5425 263.5578,465.1495 263.7577,464.8329 263.9577,464.5142 264.1577,464.1933 264.3577,463.8703 264.5577,463.5452 264.7577,463.2182 264.9577,462.8897 265.1577,462.5596 265.3577,462.228 265.5577,461.8949 265.7576,461.5599 265.9576,461.2229 266.1576,460.8838 266.3576,460.5426 266.5576,460.1994 266.7576,459.8545 266.9576,459.5082 267.1576,459.1605 267.3576,458.8115 267.5576,458.4611 267.7575,458.109 267.9575,457.755 268.1575,457.399 268.3575,457.041 268.5575,456.6811 268.7575,456.3196 268.9575,455.9569 269.1575,455.593 269.3575,455.228 269.5575,454.8617 269.7574,454.494 269.9574,454.1243 270.1574,453.7528 270.3574,453.3795 270.5574,453.0042 270.7574,452.6276 270.9574,452.2499 271.1574,451.8711 271.3574,451.4914 271.5573,451.1107 271.7573,450.7285 271.9573,450.3447 272.1573,449.9592 272.3573,449.5719 272.5573,449.183 272.7573,448.7927 272.9573,448.4016 273.1573,448.0096 273.3573,447.6167 273.5572,447.223 273.7572,446.828 273.9572,446.4315 274.1572,446.0334 274.3572,445.6338 274.5572,445.2327 274.7572,444.8304 274.9572,444.4274 275.1572,444.0237 275.3572,443.6192 275.5572,443.214 275.7238,442.8755 275.8905,442.5361 276.0571,442.1958 276.2238,441.8545 276.3904,441.5122 276.5571,441.169 276.7238,440.8251 276.8904,440.4808 277.0571,440.1361 277.2237,439.7909 277.3904,439.4454 277.5571,439.0995 277.7237,438.753 277.8904,438.4056 278.057,438.0574 278.2237,437.7084 278.3903,437.3585 278.557,437.0078 278.7237,436.6565 278.8903,436.3049 279.057,435.9531 279.2236,435.6009 279.3903,435.2485 279.557,434.8958 279.7236,434.5426 279.8903,434.1886 280.0569,433.8339 280.2236,433.4785 280.3902,433.1223 280.5569,432.7655 280.7236,432.4081 280.8902,432.0507 281.0569,431.693 281.2235,431.3353 281.3902,430.9773 281.5569,430.6192 281.7235,430.2608 281.8902,429.9016 282.0568,429.5419 282.2235,429.1816 282.3901,428.8206 282.5568,428.4589 282.7235,428.097 282.8901,427.735 283.0568,427.373 283.2234,427.011 283.3901,426.649 283.5568,426.2869 283.7234,425.9246 283.8901,425.5617 284.0567,425.1983 284.2234,424.8345 284.39,424.4701 284.5567,424.1051 284.7234,423.74 284.89,423.375 285.0567,423.0101 285.2233,422.6452 285.39,422.2805 285.5567,421.9159 285.7233,421.5511 285.89,421.1859 286.0566,420.8204 286.2233,420.4544 286.3899,420.088 286.5566,419.7212 286.7233,419.3544 286.8899,418.9877 287.0566,418.6213 287.2232,418.2551 287.3899,417.8891 287.5565,417.5234 287.7232,417.1576 287.8899,416.7915 288.0565,416.4252 288.2232,416.0586 288.3898,415.6917 288.5565,415.3245 288.7232,414.9574 288.8898,414.5906 289.0565,414.2241 289.2231,413.858 289.3898,413.4922 289.5565,413.1267 289.7231,412.7614 289.8898,412.3959 290.0564,412.0302 290.2231,411.6644 290.3897,411.2984 290.5564,410.9323 290.6737,410.6748 290.8033,410.3906 290.9453,410.0797 291.0996,409.742 291.2662,409.3776 291.4452,408.9865 291.6366,408.5687 291.8403,408.1242 292.0563,407.653"/>
    <polyline points="97.0899,531.5401 97.0899,537.9725 97.4739,539.1066 98.2179,539.4846 98.9858,539.4846"/>
    <line x1="95.962" x2="98.6018" y1="534.1923" y2="534.1923"/>
    <line x1="105.4055" x2="105.4055" y1="534.1923" y2="539.4846"/>
    <polyline points="105.4055,535.3324 104.6495,534.5643 103.8936,534.1923 102.7536,534.1923 102.0097,534.5643 101.2417,535.3324 100.8697,536.4604 100.8697,537.2165 101.2417,538.3506 102.0097,539.1066 102.7536,539.4846 103.8936,539.4846 104.6495,539.1066 105.4055,538.3506"/>
    <line x1="108.4173" x2="108.4173" y1="531.5401" y2="539.4846"/>
    <polyline points="108.4173,535.3324 109.1853,534.5643 109.9292,534.1923 111.0692,534.1923 111.8251,534.5643 112.5811,535.3324 112.9531,536.4604 112.9531,537.2165 112.5811,538.3506 111.8251,539.1066 111.0692,539.4846 109.9292,539.4846 109.1853,539.1066 108.4173,538.3506"/>
    <line x1="115.2211" x2="116.7329" y1="534.1923" y2="539.4846"/>
    <line x1="118.2448" x2="116.7329" y1="534.1923" y2="539.4846"/>
    <line x1="118.2448" x2="119.7568" y1="534.1923" y2="539.4846"/>
    <line x1="121.2688" x2="119.7568" y1="534.1923" y2="539.4846"/>
    <line x1="123.9085" x2="123.9085" y1="534.1923" y2="539.4846"/>
    <polyline points="123.9085,536.4604 124.2925,535.3324 125.0485,534.5643 125.8044,534.1923 126.9324,534.1923"/>
    <polygon points="128.8283,531.9241 129.2123,531.5401 128.8283,531.1681 128.4564,531.5401"/>
    <line x1="128.8283" x2="128.8283" y1="534.1923" y2="539.4846"/>
    <polyline points="132.2361,531.5401 132.2361,537.9725 132.6201,539.1066 133.3641,539.4846 134.132,539.4846"/>
    <line x1="131.1082" x2="133.748" y1="534.1923" y2="534.1923"/>
    <polyline points="136.0159,536.4604 140.5516,536.4604 140.5516,535.7044 140.1796,534.9483 139.7957,534.5643 139.0397,534.1923 137.8998,534.1923 137.1558,534.5643 136.3879,535.3324 136.0159,536.4604 136.0159,537.2165 136.3879,538.3506 137.1558,539.1066 137.8998,539.4846 139.0397,539.4846 139.7957,539.1066 140.5516,538.3506"/>
    <polyline points="142.8195,537.2165 142.8195,536.4604 143.1915,535.3324 143.9595,534.9483 144.7034,534.9483 145.4714,535.3324 146.9833,536.4604 147.7273,536.8445 148.4952,536.8445 149.2392,536.4604 149.6232,535.7044"/>
    <polyline points="142.8195,536.4604 143.1915,535.7044 143.9595,535.3324 144.7034,535.3324 145.4714,535.7044 146.9833,536.8445 147.7273,537.2165 148.4952,537.2165 149.2392,536.8445 149.6232,535.7044 149.6232,534.9483"/>
    <polyline points="160.5906,535.3324 160.2066,534.5643 159.0786,534.1923 157.9387,534.1923 156.7988,534.5643 156.4268,535.3324 156.7988,536.0764 157.5667,536.4604 159.4506,536.8445 160.2066,537.2165 160.5906,537.9725 160.5906,538.3506 160.2066,539.1066 159.0786,539.4846 157.9387,539.4846 156.7988,539.1066 156.4268,538.3506"/>
    <polyline points="167.3942,535.3324 166.6383,534.5643 165.8823,534.1923 164.7424,534.1923 163.9984,534.5643 163.2305,535.3324 162.8585,536.4604 162.8585,537.2165 163.2305,538.3506 163.9984,539.1066 164.7424,539.4846 165.8823,539.4846 166.6383,539.1066 167.3942,538.3506"/>
    <polygon points="170.802,534.5643 170.034,535.3324 169.6621,536.4604 169.6621,537.2165 170.034,538.3506 170.802,539.1066 171.546,539.4846 172.6859,539.4846 173.4418,539.1066 174.1978,538.3506 174.5698,537.2165 174.5698,536.4604 174.1978,535.3324 173.4418,534.5643 172.6859,534.1923 171.546,534.1923"/>
    <line x1="177.2097" x2="177.2097" y1="534.1923" y2="542.1248"/>
    <polyline points="177.2097,535.3324 177.9776,534.5643 178.7216,534.1923 179.8615,534.1923 180.6175,534.5643 181.3735,535.3324 181.7454,536.4604 181.7454,537.2165 181.3735,538.3506 180.6175,539.1066 179.8615,539.4846 178.7216,539.4846 177.9776,539.1066 177.2097,538.3506"/>
    <polyline points="184.0132,536.4604 188.549,536.4604 188.549,535.7044 188.177,534.9483 187.793,534.5643 187.0371,534.1923 185.8971,534.1923 185.1532,534.5643 184.3852,535.3324 184.0132,536.4604 184.0132,537.2165 184.3852,538.3506 185.1532,539.1066 185.8971,539.4846 187.0371,539.4846 187.793,539.1066 188.549,538.3506"/>
    <polygon points="97.4739,505.5616 96.706,506.3296 96.334,507.4577 96.334,508.2137 96.706,509.3478 97.4739,510.1039 98.2179,510.4819 99.3578,510.4819 100.1138,510.1039 100.8697,509.3478 101.2417,508.2137 101.2417,507.4577 100.8697,506.3296 100.1138,505.5616 99.3578,505.1895 98.2179,505.1895"/>
    <polyline points="107.6734,506.3296 107.2894,505.5616 106.1614,505.1895 105.0215,505.1895 103.8816,505.5616 103.5096,506.3296 103.8816,507.0737 104.6495,507.4577 106.5334,507.8417 107.2894,508.2137 107.6734,508.9698 107.6734,509.3478 107.2894,510.1039 106.1614,510.4819 105.0215,510.4819 103.8816,510.1039 103.5096,509.3478"/>
    <polyline points="114.477,506.3296 113.721,505.5616 112.9651,505.1895 111.8251,505.1895 111.0812,505.5616 110.3132,506.3296 109.9412,507.4577 109.9412,508.2137 110.3132,509.3478 111.0812,510.1039 111.8251,510.4819 112.9651,510.4819 113.721,510.1039 114.477,509.3478"/>
    <polyline points="116.7449,508.2137 116.7449,507.4577 117.1169,506.3296 117.8848,505.9456 118.6288,505.9456 119.3967,506.3296 120.9088,507.4577 121.6527,507.8417 122.4207,507.8417 123.1646,507.4577 123.5486,506.7016"/>
    <polyline points="116.7449,507.4577 117.1169,506.7016 117.8848,506.3296 118.6288,506.3296 119.3967,506.7016 120.9088,507.8417 121.6527,508.2137 122.4207,508.2137 123.1646,507.8417 123.5486,506.7016 123.5486,505.9456"/>
    <polyline points="131.4922,504.0495 132.2361,503.6774 133.3761,502.5374 133.3761,510.4819"/>
    <polygon points="306.3238,355.3189 306.6958,355.6909 307.0798,355.3189 306.6958,354.9348"/>
    <polyline points="307.0798,357.959 306.6958,358.3371 306.3238,357.959 306.6958,357.575 307.0798,357.959 307.0798,358.7151 306.3238,359.4711"/>
    <polyline points="309.5115,365.3189 309.1275,364.5508 307.9995,364.1788 306.8596,364.1788 305.7197,364.5508 305.3476,365.3189 305.7197,366.0629 306.4876,366.4469 308.3715,366.831 309.1275,367.203 309.5115,367.959 309.5115,368.3371 309.1275,369.0931 307.9995,369.4711 306.8596,369.4711 305.7197,369.0931 305.3476,368.3371"/>
    <polyline points="316.3151,365.3189 315.5591,364.5508 314.8032,364.1788 313.6632,364.1788 312.9193,364.5508 312.1513,365.3189 311.7793,366.4469 311.7793,367.203 312.1513,368.3371 312.9193,369.0931 313.6632,369.4711 314.8032,369.4711 315.5591,369.0931 316.3151,368.3371"/>
    <polygon points="319.7229,364.5508 318.9549,365.3189 318.5829,366.4469 318.5829,367.203 318.9549,368.3371 319.7229,369.0931 320.4668,369.4711 321.6068,369.4711 322.3627,369.0931 323.1187,368.3371 323.4907,367.203 323.4907,366.4469 323.1187,365.3189 322.3627,364.5508 321.6068,364.1788 320.4668,364.1788"/>
    <line x1="326.1305" x2="326.1305" y1="364.1788" y2="372.1113"/>
    <polyline points="326.1305,365.3189 326.8985,364.5508 327.6425,364.1788 328.7824,364.1788 329.5384,364.5508 330.2943,365.3189 330.6663,366.4469 330.6663,367.203 330.2943,368.3371 329.5384,369.0931 328.7824,369.4711 327.6425,369.4711 326.8985,369.0931 326.1305,368.3371"/>
    <polyline points="332.9342,366.4469 337.47,366.4469 337.47,365.6909 337.098,364.9348 336.714,364.5508 335.9581,364.1788 334.8181,364.1788 334.0742,364.5508 333.3062,365.3189 332.9342,366.4469 332.9342,367.203 333.3062,368.3371 334.0742,369.0931 334.8181,369.4711 335.9581,369.4711 336.714,369.0931 337.47,368.3371"/>
    <line x1="343.9015" x2="346.1574" y1="364.1788" y2="369.4711"/>
    <polyline points="348.4373,364.1788 346.1574,369.4711 345.4134,370.9832 344.6455,371.7393 343.9015,372.1113 343.5175,372.1113"/>
    <polyline points="351.0772,361.5266 351.0772,367.959 351.4612,369.0931 352.2051,369.4711 352.9731,369.4711"/>
    <line x1="349.9492" x2="352.5891" y1="364.1788" y2="364.1788"/>
    <polygon points="355.2289,361.9106 355.6129,361.5266 355.2289,361.1546 354.8569,361.5266"/>
    <line x1="355.2289" x2="355.2289" y1="364.1788" y2="369.4711"/>
    <polyline points="362.4166,365.3189 361.6606,364.5508 360.9047,364.1788 359.7647,364.1788 359.0208,364.5508 358.2528,365.3189 357.8808,366.4469 357.8808,367.203 358.2528,368.3371 359.0208,369.0931 359.7647,369.4711 360.9047,369.4711 361.6606,369.0931 362.4166,368.3371"/>
    <line x1="365.0564" x2="365.0564" y1="361.5266" y2="369.4711"/>
    <line x1="368.8482" x2="365.0564" y1="364.1788" y2="367.959"/>
    <line x1="366.5683" x2="369.2202" y1="366.4469" y2="369.4711"/>
    <polyline points="375.2799,365.3189 374.8959,364.5508 373.768,364.1788 372.628,364.1788 371.4881,364.5508 371.1161,365.3189 371.4881,366.0629 372.256,366.4469 374.1399,366.831 374.8959,367.203 375.2799,367.959 375.2799,368.3371 374.8959,369.0931 373.768,369.4711 372.628,369.4711 371.4881,369.0931 371.1161,368.3371"/>
    <polygon points="383.2235,361.9106 382.4555,363.0387 382.0835,364.9348 382.0835,366.0629 382.4555,367.959 383.2235,369.0931 384.3514,369.4711 385.1074,369.4711 386.2473,369.0931 386.9913,367.959 387.3752,366.0629 387.3752,364.9348 386.9913,363.0387 386.2473,361.9106 385.1074,361.5266 384.3514,361.5266"/>
    <polygon points="395.3188,361.9106 394.5508,363.0387 394.1789,364.9348 394.1789,366.0629 394.5508,367.959 395.3188,369.0931 396.4467,369.4711 397.2027,369.4711 398.3426,369.0931 399.0866,367.959 399.4706,366.0629 399.4706,364.9348 399.0866,363.0387 398.3426,361.9106 397.2027,361.5266 396.4467,361.5266"/>
    <polygon points="401.7384,367.959 402.1104,368.3371 402.4943,367.959 402.1104,367.575"/>
    <polyline points="409.2981,361.5266 405.5183,361.5266 405.1344,364.9348 405.5183,364.5508 406.6463,364.1788 407.7862,364.1788 408.9262,364.5508 409.6701,365.3189 410.0541,366.4469 410.0541,367.203 409.6701,368.3371 408.9262,369.0931 407.7862,369.4711 406.6463,369.4711 405.5183,369.0931 405.1344,368.7151 404.7624,367.959"/>
    <polyline points="417.9976,363.0387 418.7415,362.6667 419.8815,361.5266 419.8815,369.4711"/>
    <polygon points="306.3238,393.3217 306.6958,393.6938 307.0798,393.3217 306.6958,392.9377"/>
    <polyline points="307.0798,395.9619 306.6958,396.3399 306.3238,395.9619 306.6958,395.5779 307.0798,395.9619 307.0798,396.718 306.3238,397.474"/>
    <polyline points="309.5115,403.3217 309.1275,402.5537 307.9995,402.1817 306.8596,402.1817 305.7197,402.5537 305.3476,403.3217 305.7197,404.0658 306.4876,404.4498 308.3715,404.8338 309.1275,405.2059 309.5115,405.9619 309.5115,406.3399 309.1275,407.096 307.9995,407.4741 306.8596,407.4741 305.7197,407.096 305.3476,406.3399"/>
    <polyline points="316.3151,403.3217 315.5591,402.5537 314.8032,402.1817 313.6632,402.1817 312.9193,402.5537 312.1513,403.3217 311.7793,404.4498 311.7793,405.2059 312.1513,406.3399 312.9193,407.096 313.6632,407.4741 314.8032,407.4741 315.5591,407.096 316.3151,406.3399"/>
    <polygon points="319.7229,402.5537 318.9549,403.3217 318.5829,404.4498 318.5829,405.2059 318.9549,406.3399 319.7229,407.096 320.4668,407.4741 321.6068,407.4741 322.3627,407.096 323.1187,406.3399 323.4907,405.2059 323.4907,404.4498 323.1187,403.3217 322.3627,402.5537 321.6068,402.1817 320.4668,402.1817"/>
    <line x1="326.1305" x2="326.1305" y1="402.1817" y2="410.1142"/>
    <polyline points="326.1305,403.3217 326.8985,402.5537 327.6425,402.1817 328.7824,402.1817 329.5384,402.5537 330.2943,403.3217 330.6663,404.4498 330.6663,405.2059 330.2943,406.3399 329.5384,407.096 328.7824,407.4741 327.6425,407.4741 326.8985,407.096 326.1305,406.3399"/>
    <polyline points="332.9342,404.4498 337.47,404.4498 337.47,403.6938 337.098,402.9377 336.714,402.5537 335.9581,402.1817 334.8181,402.1817 334.0742,402.5537 333.3062,403.3217 332.9342,404.4498 332.9342,405.2059 333.3062,406.3399 334.0742,407.096 334.8181,407.4741 335.9581,407.4741 336.714,407.096 337.47,406.3399"/>
    <line x1="343.9015" x2="346.1574" y1="402.1817" y2="407.474"/>
    <polyline points="348.4373,402.1817 346.1574,407.4741 345.4134,408.9862 344.6455,409.7423 343.9015,410.1143 343.5175,410.1143"/>
    <line x1="350.6932" x2="350.6932" y1="399.5295" y2="407.474"/>
    <line x1="357.8808" x2="357.8808" y1="402.1817" y2="407.474"/>
    <polyline points="357.8808,403.3217 357.1248,402.5537 356.3689,402.1817 355.2289,402.1817 354.485,402.5537 353.717,403.3217 353.345,404.4498 353.345,405.2059 353.717,406.3399 354.485,407.096 355.2289,407.4741 356.3689,407.4741 357.1248,407.096 357.8808,406.3399"/>
    <line x1="360.8927" x2="360.8927" y1="399.5295" y2="407.474"/>
    <polyline points="360.8927,403.3217 361.6606,402.5537 362.4046,402.1817 363.5445,402.1817 364.3005,402.5537 365.0564,403.3217 365.4284,404.4498 365.4284,405.2059 365.0564,406.3399 364.3005,407.096 363.5445,407.4741 362.4046,407.4741 361.6606,407.096 360.8927,406.3399"/>
    <polyline points="367.6962,404.4498 372.232,404.4498 372.232,403.6938 371.86,402.9377 371.476,402.5537 370.7201,402.1817 369.5801,402.1817 368.8362,402.5537 368.0682,403.3217 367.6962,404.4498 367.6962,405.2059 368.0682,406.3399 368.8362,407.096 369.5801,407.4741 370.7201,407.4741 371.476,407.096 372.232,406.3399"/>
    <line x1="374.8719" x2="374.8719" y1="399.5295" y2="407.474"/>
    <line x1="382.4315" x2="389.2471" y1="404.0658" y2="404.0658"/>
    <polyline points="393.0268,401.0416 393.7708,400.6696 394.9107,399.5295 394.9107,407.4741"/>
    <line x1="404.3544" x2="411.17" y1="404.0658" y2="404.0658"/>
    <polyline points="414.9498,401.0416 415.6937,400.6696 416.8336,399.5295 416.8336,407.4741"/>
    <polygon points="427.045,399.9135 426.277,401.0416 425.9051,402.9377 425.9051,404.0658 426.277,405.9619 427.045,407.096 428.1729,407.4741 428.9289,407.4741 430.0688,407.096 430.8128,405.9619 431.1968,404.0658 431.1968,402.9377 430.8128,401.0416 430.0688,399.9135 428.9289,399.5295 428.1729,399.5295"/>
    <polyline points="439.1402,401.0416 439.8842,400.6696 441.0241,399.5295 441.0241,407.4741"/>
    <line x1="101.2107" x2="92.9093" y1="554.7907" y2="569.5747"/>
    <line x1="111.3746" x2="103.0733" y1="554.7907" y2="569.5747"/>
    <polyline points="120.16,556.6387 120.16,564.5 120.6295,565.886 121.5388,566.348 122.4775,566.348"/>
    <line x1="118.7814" x2="122.008" y1="559.8801" y2="559.8801"/>
    <line x1="125.2348" x2="125.2348" y1="556.6387" y2="566.348"/>
    <polyline points="125.2348,561.728 126.6281,560.3347 127.5521,559.88 128.9308,559.88 129.8694,560.3347 130.3241,561.728 130.3241,566.348"/>
    <polygon points="134.0055,557.108 134.4748,556.6387 134.0055,556.184 133.5508,556.6387"/>
    <line x1="134.0055" x2="134.0055" y1="559.8801" y2="566.348"/>
    <polyline points="142.3361,561.2734 141.8668,560.3347 140.4881,559.88 139.0948,559.88 137.7014,560.3347 137.2468,561.2734 137.7014,562.1827 138.6401,562.652 140.9428,563.1214 141.8668,563.576 142.3361,564.5 142.3361,564.962 141.8668,565.886 140.4881,566.348 139.0948,566.348 137.7014,565.886 137.2468,564.962"/>
    <line x1="156.196" x2="156.196" y1="559.8801" y2="566.348"/>
    <polyline points="156.196,561.2734 155.272,560.3347 154.348,559.88 152.9547,559.88 152.0454,560.3347 151.1067,561.2734 150.652,562.652 150.652,563.576 151.1067,564.962 152.0454,565.886 152.9547,566.348 154.348,566.348 155.272,565.886 156.196,564.962"/>
    <line x1="159.8774" x2="159.8774" y1="559.8801" y2="566.348"/>
    <polyline points="159.8774,562.652 160.3467,561.2734 161.2707,560.3347 162.1947,559.88 163.5734,559.88"/>
    <line x1="165.8908" x2="165.8908" y1="559.8801" y2="566.348"/>
    <polyline points="165.8908,562.652 166.3601,561.2734 167.2841,560.3347 168.2081,559.88 169.5868,559.88"/>
    <line x1="176.9934" x2="176.9934" y1="559.8801" y2="566.348"/>
    <polyline points="176.9934,561.2734 176.0694,560.3347 175.1454,559.88 173.752,559.88 172.8427,560.3347 171.904,561.2734 171.4494,562.652 171.4494,563.576 171.904,564.962 172.8427,565.886 173.752,566.348 175.1454,566.348 176.0694,565.886 176.9934,564.962"/>
    <line x1="179.7654" x2="182.5227" y1="559.8801" y2="566.348"/>
    <polyline points="185.3094,559.88 182.5227,566.348 181.6134,568.196 180.6747,569.12 179.7654,569.5747 179.2961,569.5747"/>
    <line x1="193.6107" x2="193.6107" y1="556.6387" y2="566.348"/>
    <polyline points="193.6107,561.728 195.004,560.3347 195.928,559.88 197.3067,559.88 198.2453,560.3347 198.7,561.728 198.7,566.348"/>
    <line x1="207.4708" x2="207.4708" y1="559.8801" y2="566.348"/>
    <polyline points="207.4708,561.2734 206.5468,560.3347 205.6228,559.88 204.2295,559.88 203.3201,560.3347 202.3815,561.2734 201.9268,562.652 201.9268,563.576 202.3815,564.962 203.3201,565.886 204.2295,566.348 205.6228,566.348 206.5468,565.886 207.4708,564.962"/>
    <polyline points="215.7871,561.2734 215.3178,560.3347 213.9391,559.88 212.5458,559.88 211.1524,560.3347 210.6978,561.2734 211.1524,562.1827 212.0911,562.652 214.3938,563.1214 215.3178,563.576 215.7871,564.5 215.7871,564.962 215.3178,565.886 213.9391,566.348 212.5458,566.348 211.1524,565.886 210.6978,564.962"/>
    <polyline points="228.7227,556.6387 224.1027,563.1214 231.04,563.1214"/>
    <line x1="228.7227" x2="228.7227" y1="556.6387" y2="566.348"/>
    <polyline points="237.9627,556.6387 233.3427,563.1214 240.28,563.1214"/>
    <line x1="237.9627" x2="237.9627" y1="556.6387" y2="566.348"/>
    <polyline points="243.5067,564.5 243.0373,564.962 242.5827,564.5 243.0373,564.0307 243.5067,564.5 243.5067,565.424 242.5827,566.348"/>
    <polyline points="247.672,558.4867 248.5813,558.032 249.9747,556.6387 249.9747,566.348"/>
    <polygon points="256.912,557.108 255.9733,558.4867 255.5186,560.804 255.5186,562.1827 255.9733,564.5 256.912,565.886 258.2906,566.348 259.2146,566.348 260.608,565.886 261.5173,564.5 261.9866,562.1827 261.9866,560.804 261.5173,558.4867 260.608,557.108 259.2146,556.6387 258.2906,556.6387"/>
    <polygon points="66.5669,777.4472 81.567,777.4472 81.567,792.4367 66.5669,792.4367"/>
    <polygon points="66.5669,791.4375 73.5669,791.4375 73.5669,792.4368 66.5669,792.4368"/>
    <polygon points="66.5669,777.4472 73.5669,777.4472 73.5669,778.4465 66.5669,778.4465"/>
    <polygon points="80.567,784.942 80.556,785.3197 80.523,785.6961 80.4682,786.0699 80.3918,786.44 80.2939,786.8049 80.175,787.1636 80.0354,787.5147 79.8756,787.8572 79.6961,788.1897 79.4976,788.5113 79.2808,788.8208 79.0462,789.1172 78.7949,789.3995 78.5275,789.6666 78.2451,789.9178 77.9485,790.1522 77.6388,790.3689 77.317,790.5673 76.9841,790.7466 76.6415,790.9063 76.2901,791.0458 75.9312,791.1646 75.5659,791.2624 75.1957,791.3388 74.8215,791.3936 74.4449,791.4265 74.0669,791.4375 73.689,791.4265 73.3123,791.3936 72.9382,791.3388 72.5679,791.2624 72.2027,791.1646 71.8438,791.0458 71.4924,790.9063 71.1497,790.7466 70.8169,790.5673 70.4951,790.3689 70.1854,790.1522 69.8888,789.9178 69.6064,789.6666 69.339,789.3995 69.0876,789.1172 68.8531,788.8208 68.6363,788.5113 68.4378,788.1897 68.2583,787.8572 68.0985,787.5147 67.9589,787.1636 67.84,786.8049 67.7421,786.44 67.6657,786.0699 67.6109,785.6961 67.5779,785.3197 67.5669,784.942 67.5779,784.5643 67.6109,784.1879 67.6657,783.8141 67.7421,783.4441 67.84,783.0791 67.9589,782.7204 68.0985,782.3693 68.2583,782.0269 68.4378,781.6943 68.6363,781.3727 68.8531,781.0632 69.0876,780.7668 69.339,780.4846 69.6064,780.2174 69.8888,779.9662 70.1854,779.7318 70.4951,779.5151 70.8169,779.3168 71.1497,779.1375 71.4924,778.9778 71.8438,778.8383 72.2027,778.7194 72.5679,778.6216 72.9382,778.5452 73.3123,778.4905 73.689,778.4575 74.0669,778.4465 74.4449,778.4575 74.8215,778.4905 75.1957,778.5452 75.5659,778.6216 75.9312,778.7194 76.2901,778.8383 76.6415,778.9778 76.9841,779.1375 77.317,779.3168 77.6388,779.5151 77.9485,779.7318 78.2451,779.9662 78.5275,780.2174 78.7949,780.4846 79.0462,780.7668 79.2808,781.0632 79.4976,781.3727 79.6961,781.6943 79.8756,782.0269 80.0354,782.3693 80.175,782.7204 80.2939,783.0791 80.3918,783.4441 80.4682,783.8141 80.523,784.1879 80.556,784.5643"/>
    <polygon points="90.5669,795.4345 90.5669,776.4478 136.5669,776.4478 136.5669,795.4345"/>
    <polygon points="90.567,793.4361 97.567,793.4361 97.567,795.4347 90.567,795.4347"/>
    <polygon points="90.567,776.4479 97.567,776.4479 97.567,778.4465 90.567,778.4465"/>
    <polygon points="129.5671,776.4479 136.5671,776.4479 136.5671,778.4465 129.5671,778.4465"/>
    <polygon points="90.5669,824.4143 90.5669,805.4275 136.5669,805.4275 136.5669,824.4143"/>
    <polygon points="90.567,822.4159 97.567,822.4159 97.567,824.4145 90.567,824.4145"/>
    <polygon points="90.567,805.4277 97.567,805.4277 97.567,807.4264 90.567,807.4264"/>
    <polygon points="129.5671,805.4277 136.5671,805.4277 136.5671,807.4264 129.5671,807.4264"/>
    <polygon points="90.5669,854.3934 90.5669,835.4066 276.567,835.4066 276.567,854.3934"/>
    <polygon points="90.567,835.4068 97.567,835.4068 97.567,837.4054 90.567,837.4054"/>
    <polygon points="89.5669,626.5524 89.5669,766.4547 289.567,766.4547 289.567,626.5524"/>
    <polyline points="89.567,697.6175 90.0357,697.5072 90.442,697.3972 90.7857,697.2874 91.067,697.1778 91.567,696.9585 92.067,696.7386 92.567,696.5186 93.067,696.2992 93.567,696.0797 94.067,695.8599 94.567,695.6403 95.067,695.4213 95.567,695.2026 96.067,694.9838 96.567,694.7653 97.067,694.5478 97.567,694.3307 98.067,694.1137 98.567,693.8972 99.067,693.6819 99.567,693.4673 100.067,693.253 100.567,693.0394 101.067,692.8272 101.567,692.6159 102.067,692.4051 102.567,692.1953 103.067,691.987 103.567,691.7798 104.067,691.5734 104.567,691.3681 105.067,691.1646 105.567,690.9624 106.067,690.7612 106.567,690.5613 107.067,690.3633 107.567,690.1669 108.0671,689.9716 108.5671,689.7778 109.0671,689.5863 109.5671,689.3964 110.0671,689.2077 110.5671,689.0209 111.0671,688.8365 111.5671,688.6539 112.0671,688.4728 112.5671,688.2936 113.0671,688.117 113.5671,687.9424 114.0671,687.7695 114.5671,687.5987 115.0671,687.4306 115.5671,687.2646 116.0671,687.1006 116.5671,686.9389 117.0671,686.7799 117.5671,686.6233 118.0671,686.4689 118.5671,686.3169 119.0671,686.1677 119.5671,686.0211 120.0671,685.8768 120.5671,685.7351 121.0671,685.5963 121.5671,685.4602 122.0671,685.3266 122.5671,685.1957 123.0671,685.0679 123.5671,684.9429 124.0671,684.8205 124.5671,684.701 125.0671,684.5846 125.5671,684.4712 126.0671,684.3605 126.5671,684.2527 127.0671,684.1484 127.5671,684.0471 128.0671,683.9485 128.5671,683.8529 129.0671,683.7609 129.5671,683.672 130.0671,683.586 130.5671,683.5032 131.0671,683.4238 131.5671,683.3476 132.0671,683.2745 132.5671,683.2047 133.0671,683.1382 133.5671,683.0751 134.0671,683.0152 134.5671,682.9586 135.0671,682.9053 135.5671,682.8555 136.0671,682.8089 136.5671,682.7659 137.0671,682.7262 137.5671,682.6899 138.0671,682.657 138.5671,682.6276 139.0672,682.6015 139.5672,682.5789 140.0672,682.5597 140.5672,682.544 141.0672,682.5316 141.5672,682.5227 142.0672,682.5172 142.5672,682.5151 143.0672,682.5168 143.5672,682.5216 144.0672,682.5301 144.5672,682.5418 145.0672,682.5572 145.5672,682.5759 146.0672,682.598 146.5672,682.6235 147.0672,682.6525 147.5672,682.6849 148.0672,682.7207 148.5672,682.7598 149.0672,682.8025 149.5672,682.8485 150.0672,682.8979 150.5672,682.9505 151.0672,683.0066 151.5672,683.066 152.0672,683.1287 152.5672,683.1947 153.0672,683.2641 153.5672,683.3367 154.0672,683.4124 154.5672,683.4914 155.0672,683.5738 155.5672,683.6593 156.0672,683.7478 156.5672,683.8395 157.0672,683.9345 157.5672,684.0325 158.0672,684.1335 158.5672,684.2375 159.0672,684.3448 159.5672,684.4551 160.0672,684.568 160.5672,684.6839 161.0672,684.803 161.5672,684.9251 162.0672,685.0496 162.5672,685.177 163.0672,685.3075 163.5672,685.4408 164.0672,685.5765 164.5672,685.7148 165.0672,685.8562 165.5672,686.0002 166.0672,686.1464 166.5672,686.2952 167.0672,686.4468 167.5672,686.6009 168.0672,686.7572 168.5672,686.9159 169.0672,687.0772 169.5672,687.2408 170.0672,687.4065 170.5672,687.5744 171.0672,687.7448 171.5672,687.9174 172.0672,688.0917 172.5673,688.2681 173.0673,688.4469 173.5673,688.6277 174.0673,688.8101 174.5673,688.9943 175.0673,689.1808 175.5673,689.3692 176.0673,689.5588 176.5673,689.7501 177.0673,689.9436 177.5673,690.1387 178.0673,690.3349 178.5673,690.5327 179.0673,690.7323 179.5673,690.9334 180.0673,691.1354 180.5673,691.3388 181.0673,691.5438 181.5673,691.7501 182.0673,691.9571 182.5673,692.1653 183.0673,692.3749 183.5673,692.5856 184.0673,692.7967 184.5673,693.0088 185.0673,693.2222 185.5673,693.4365 186.0673,693.651 186.5673,693.8662 187.0673,694.0826 187.5673,694.2995 188.0673,694.5165 188.5673,694.734 189.0673,694.9524 189.5673,695.1712 190.0673,695.3899 190.5673,695.6088 191.0673,695.8284 191.5673,696.0482 192.0673,696.2676 192.5673,696.4871 193.0673,696.707 193.5673,696.927 194.0673,697.1463 194.5673,697.3654 195.0673,697.5849 195.5673,697.804 196.0673,698.0224 196.5673,698.2404 197.0673,698.4584 197.5673,698.676 198.0673,698.8925 198.5673,699.1085 199.0673,699.3243 199.5673,699.5394 200.0673,699.7532 200.5673,699.9663 201.0673,700.179 201.5673,700.3908 202.0673,700.6011 202.5673,700.8105 203.0674,701.0192 203.5674,701.2269 204.0673,701.4329 204.5673,701.6377 205.0674,701.8416 205.5674,702.0443 206.0674,702.2451 206.5674,702.4445 207.0674,702.6429 207.5674,702.8398 208.0674,703.0347 208.5674,703.228 209.0674,703.42 209.5674,703.6104 210.0674,703.7986 210.5674,703.985 211.0674,704.1699 211.5674,704.3529 212.0674,704.5336 212.5674,704.7123 213.0674,704.8894 213.5674,705.0644 214.0674,705.2369 214.5674,705.4073 215.0674,705.5759 215.5674,705.7422 216.0674,705.9058 216.5674,706.0672 217.0674,706.2265 217.5674,706.3835 218.0674,706.5376 218.5674,706.6893 219.0674,706.8388 219.5674,706.9858 220.0674,707.1298 220.5674,707.2712 221.0674,707.4103 221.5674,707.5467 222.0674,707.68 222.5674,707.8106 223.0674,707.9387 223.5674,708.064 224.0674,708.1861 224.5674,708.3054 225.0674,708.422 225.5674,708.5357 226.0674,708.6462 226.5674,708.7537 227.0674,708.8583 227.5674,708.9599 228.0674,709.0583 228.5674,709.1536 229.0674,709.2458 229.5674,709.3349 230.0674,709.4208 230.5674,709.5034 231.0674,709.583 231.5674,709.6594 232.0674,709.7324 232.5674,709.802 233.0674,709.8687 233.5674,709.9319 234.0674,709.9917 234.5674,710.0482 235.0674,710.1015 235.5675,710.1515 236.0675,710.1979 236.5674,710.2409 237.0675,710.2807 237.5675,710.3171 238.0675,710.3499 238.5675,710.3794 239.0675,710.4054 239.5675,710.4282 240.0675,710.4473 240.5675,710.4631 241.0675,710.4754 241.5675,710.4843 242.0675,710.4898 242.5675,710.492 243.0675,710.4904 243.5675,710.4856 244.0675,710.4772 244.5675,710.4654 245.0675,710.4501 245.5675,710.4313 246.0675,710.4093 246.5675,710.3837 247.0675,710.3548 247.5675,710.3224 248.0675,710.2866 248.5675,710.2473 249.0675,710.2049 249.5675,710.159 250.0675,710.1095 250.5675,710.0567 251.0675,710.0008 251.5675,709.9415 252.0675,709.8787 252.5675,709.8125 253.0675,709.7434 253.5675,709.671 254.0675,709.5951 254.5675,709.5159 255.0675,709.4337 255.5675,709.3484 256.0675,709.2597 256.5675,709.1679 257.0675,709.0731 257.5675,708.9753 258.0675,708.8741 258.5675,708.7699 259.0675,708.6629 259.5675,708.5528 260.0675,708.4397 260.5675,708.3236 261.0675,708.2047 261.5675,708.0829 262.0675,707.9581 262.5675,707.8304 263.0675,707.7002 263.5675,707.5673 264.0675,707.4313 264.5675,707.2926 265.0675,707.1516 265.5675,707.008 266.0676,706.8614 266.5675,706.7123 267.0675,706.561 267.5675,706.4073 268.0676,706.2507 268.5676,706.0917 269.0676,705.9307 269.5676,705.7674 270.0675,705.6014 270.5676,705.4332 271.0676,705.2632 271.5676,705.091 272.0676,704.9163 272.5676,704.7395 273.0676,704.5611 273.5676,704.3807 274.0676,704.1979 274.5676,704.0133 275.0676,703.8272 275.5676,703.6393 276.0676,703.4492 276.5676,703.2574 277.0676,703.0644 277.5676,702.8697 278.0676,702.6731 278.5676,702.4749 279.0676,702.2757 279.5676,702.0751 280.0676,701.8726 280.5676,701.6688 281.0676,701.4643 281.5676,701.2584 282.0676,701.051 282.5676,700.8424 283.0676,700.6332 283.5676,700.423 284.0676,700.2114 284.5676,699.9988 285.0676,699.7859 285.5676,699.5722 286.0676,699.3571 286.5676,699.1414 287.0676,698.9256 287.5676,698.7091 288.0676,698.4916 288.3489,698.369 288.6926,698.2192 289.0989,698.0421 289.5676,697.8378"/>
    <line x1="93.567" x2="93.567" y1="795.4347" y2="805.4277"/>
    <line x1="69.5669" x2="93.567" y1="792.4368" y2="835.4068"/>
    <line x1="93.567" x2="93.567" y1="824.4145" y2="835.4068"/>
    <polygon points="266.1519,557.108 265.2133,558.4867 264.7586,560.804 264.7586,562.1827 265.2133,564.5 266.1519,565.886 267.5306,566.348 268.4546,566.348 269.8479,565.886 270.7573,564.5 271.2266,562.1827 271.2266,560.804 270.7573,558.4867 269.8479,557.108 268.4546,556.6387 267.5306,556.6387"/>
    <polyline points="285.0865,561.2734 284.1626,560.3347 283.2386,559.88 281.8452,559.88 280.9359,560.3347 279.9972,561.2734 279.5426,562.652 279.5426,563.576 279.9972,564.962 280.9359,565.886 281.8452,566.348 283.2386,566.348 284.1626,565.886 285.0865,564.962"/>
    <polygon points="289.2519,560.3347 288.3132,561.2734 287.8585,562.652 287.8585,563.576 288.3132,564.962 289.2519,565.886 290.1612,566.348 291.5545,566.348 292.4785,565.886 293.4025,564.962 293.8572,563.576 293.8572,562.652 293.4025,561.2734 292.4785,560.3347 291.5545,559.88 290.1612,559.88"/>
    <line x1="297.0842" x2="297.0842" y1="556.6387" y2="566.348"/>
    <line x1="300.7803" x2="300.7803" y1="556.6387" y2="566.348"/>
    <polyline points="304.0215,562.652 309.5656,562.652 309.5656,561.728 309.1109,560.804 308.6416,560.3347 307.7176,559.88 306.3242,559.88 305.4148,560.3347 304.4761,561.2734 304.0215,562.652 304.0215,563.576 304.4761,564.962 305.4148,565.886 306.3242,566.348 307.7176,566.348 308.6416,565.886 309.5656,564.962"/>
    <polyline points="317.8816,561.2734 316.9576,560.3347 316.0336,559.88 314.6402,559.88 313.7309,560.3347 312.7922,561.2734 312.3376,562.652 312.3376,563.576 312.7922,564.962 313.7309,565.886 314.6402,566.348 316.0336,566.348 316.9576,565.886 317.8816,564.962"/>
    <polyline points="321.5775,556.6387 321.5775,564.5 322.0469,565.886 322.9562,566.348 323.8949,566.348"/>
    <line x1="320.1988" x2="323.4255" y1="559.8801" y2="559.8801"/>
    <polyline points="326.1975,562.652 331.7415,562.652 331.7415,561.728 331.2868,560.804 330.8175,560.3347 329.8935,559.88 328.5002,559.88 327.5908,560.3347 326.6522,561.2734 326.1975,562.652 326.1975,563.576 326.6522,564.962 327.5908,565.886 328.5002,566.348 329.8935,566.348 330.8175,565.886 331.7415,564.962"/>
    <line x1="340.0575" x2="340.0575" y1="556.6387" y2="566.348"/>
    <polyline points="340.0575,561.2734 339.1335,560.3347 338.2095,559.88 336.8162,559.88 335.9068,560.3347 334.9682,561.2734 334.5135,562.652 334.5135,563.576 334.9682,564.962 335.9068,565.886 336.8162,566.348 338.2095,566.348 339.1335,565.886 340.0575,564.962"/>
    <polyline points="98.4533,579.6067 97.984,578.6681 96.6053,578.2134 95.212,578.2134 93.8187,578.6681 93.364,579.6067 93.8187,580.5161 94.7573,580.9854 97.06,581.4547 97.984,581.9094 98.4533,582.8334 98.4533,583.2954 97.984,584.2194 96.6053,584.6814 95.212,584.6814 93.8187,584.2194 93.364,583.2954"/>
    <line x1="106.7693" x2="106.7693" y1="578.2134" y2="584.6815"/>
    <polyline points="106.7693,579.6067 105.8453,578.6681 104.9213,578.2134 103.528,578.2134 102.6187,578.6681 101.68,579.6067 101.2253,580.9854 101.2253,581.9094 101.68,583.2954 102.6187,584.2194 103.528,584.6814 104.9213,584.6814 105.8453,584.2194 106.7693,583.2954"/>
    <line x1="110.4506" x2="110.4506" y1="578.2134" y2="584.6815"/>
    <polyline points="110.4506,580.0614 111.844,578.6681 112.768,578.2134 114.1466,578.2134 115.0853,578.6681 115.54,580.0614 115.54,584.6814"/>
    <polyline points="115.54,580.0614 116.9333,578.6681 117.8426,578.2134 119.236,578.2134 120.16,578.6681 120.6294,580.0614 120.6294,584.6814"/>
    <line x1="124.3108" x2="124.3108" y1="578.2134" y2="587.9082"/>
    <polyline points="124.3108,579.6067 125.2495,578.6681 126.1588,578.2134 127.5521,578.2134 128.4761,578.6681 129.4001,579.6067 129.8548,580.9854 129.8548,581.9094 129.4001,583.2954 128.4761,584.2194 127.5521,584.6814 126.1588,584.6814 125.2495,584.2194 124.3108,583.2954"/>
    <line x1="133.0815" x2="133.0815" y1="574.9722" y2="584.6815"/>
    <polyline points="136.3228,580.9854 141.8668,580.9854 141.8668,580.0614 141.4121,579.1374 140.9428,578.6681 140.0188,578.2134 138.6254,578.2134 137.7161,578.6681 136.7774,579.6067 136.3228,580.9854 136.3228,581.9094 136.7774,583.2954 137.7161,584.2194 138.6254,584.6814 140.0188,584.6814 140.9428,584.2194 141.8668,583.2954"/>
    <polyline points="149.7281,579.6067 149.2588,578.6681 147.8801,578.2134 146.4868,578.2134 145.0934,578.6681 144.6388,579.6067 145.0934,580.5161 146.0321,580.9854 148.3348,581.4547 149.2588,581.9094 149.7281,582.8334 149.7281,583.2954 149.2588,584.2194 147.8801,584.6814 146.4868,584.6814 145.0934,584.2194 144.6388,583.2954"/>
    <line x1="163.588" x2="163.588" y1="578.2134" y2="584.6815"/>
    <polyline points="163.588,579.6067 162.664,578.6681 161.74,578.2134 160.3467,578.2134 159.4374,578.6681 158.4987,579.6067 158.044,580.9854 158.044,581.9094 158.4987,583.2954 159.4374,584.2194 160.3467,584.6814 161.74,584.6814 162.664,584.2194 163.588,583.2954"/>
    <polyline points="171.904,579.6067 171.4347,578.6681 170.056,578.2134 168.6627,578.2134 167.2694,578.6681 166.8147,579.6067 167.2694,580.5161 168.208,580.9854 170.5107,581.4547 171.4347,581.9094 171.904,582.8334 171.904,583.2954 171.4347,584.2194 170.056,584.6814 168.6627,584.6814 167.2694,584.2194 166.8147,583.2954"/>
    <polyline points="181.1441,574.9721 181.1441,582.8334 181.6134,584.2194 182.5227,584.6814 183.4614,584.6814"/>
    <line x1="179.7654" x2="182.992" y1="578.2134" y2="578.2134"/>
    <line x1="186.2187" x2="186.2187" y1="574.9722" y2="584.6815"/>
    <polyline points="186.2187,580.0614 187.612,578.6681 188.536,578.2134 189.9147,578.2134 190.8534,578.6681 191.308,580.0614 191.308,584.6814"/>
    <polyline points="194.5348,580.9854 200.0788,580.9854 200.0788,580.0614 199.6241,579.1374 199.1548,578.6681 198.2308,578.2134 196.8375,578.2134 195.9281,578.6681 194.9895,579.6067 194.5348,580.9854 194.5348,581.9094 194.9895,583.2954 195.9281,584.2194 196.8375,584.6814 198.2308,584.6814 199.1548,584.2194 200.0788,583.2954"/>
    <line x1="208.3948" x2="214.8628" y1="574.9722" y2="584.6815"/>
    <line x1="214.8628" x2="208.3948" y1="574.9722" y2="584.6815"/>
    <line x1="228.7227" x2="228.7227" y1="578.2134" y2="584.6815"/>
    <polyline points="228.7227,579.6067 227.7987,578.6681 226.8747,578.2134 225.4814,578.2134 224.5721,578.6681 223.6334,579.6067 223.1787,580.9854 223.1787,581.9094 223.6334,583.2954 224.5721,584.2194 225.4814,584.6814 226.8747,584.6814 227.7987,584.2194 228.7227,583.2954"/>
    <line x1="231.9497" x2="237.039" y1="578.2134" y2="584.6815"/>
    <line x1="237.039" x2="231.9497" y1="578.2134" y2="584.6815"/>
    <polygon points="240.2653,575.4414 240.7347,574.9721 240.2653,574.5174 239.8107,574.9721"/>
    <line x1="240.2653" x2="240.2653" y1="578.2134" y2="584.6815"/>
    <polyline points="248.596,579.6067 248.1267,578.6681 246.748,578.2134 245.3547,578.2134 243.9613,578.6681 243.5067,579.6067 243.9613,580.5161 244.9,580.9854 247.2027,581.4547 248.1267,581.9094 248.596,582.8334 248.596,583.2954 248.1267,584.2194 246.748,584.6814 245.3547,584.6814 243.9613,584.2194 243.5067,583.2954"/>
    <polygon points="251.3676,582.8334 251.8223,583.2954 252.2916,582.8334 251.8223,582.3641"/>
    <polyline points="98.4979,338.3176 98.1139,337.5496 96.986,337.1776 95.846,337.1776 94.7061,337.5496 94.3341,338.3176 94.7061,339.0617 95.474,339.4457 97.3579,339.8297 98.1139,340.2018 98.4979,340.9578 98.4979,341.3358 98.1139,342.0919 96.986,342.4699 95.846,342.4699 94.7061,342.0919 94.3341,341.3358"/>
    <polyline points="105.3015,338.3176 104.5455,337.5496 103.7896,337.1776 102.6496,337.1776 101.9057,337.5496 101.1377,338.3176 100.7657,339.4457 100.7657,340.2018 101.1377,341.3358 101.9057,342.0919 102.6496,342.4699 103.7896,342.4699 104.5455,342.0919 105.3015,341.3358"/>
    <polygon points="108.7093,337.5496 107.9413,338.3176 107.5694,339.4457 107.5694,340.2018 107.9413,341.3358 108.7093,342.0919 109.4533,342.4699 110.5932,342.4699 111.3492,342.0919 112.1051,341.3358 112.4771,340.2018 112.4771,339.4457 112.1051,338.3176 111.3492,337.5496 110.5932,337.1776 109.4533,337.1776"/>
    <line x1="115.117" x2="115.117" y1="337.1776" y2="345.1101"/>
    <polyline points="115.117,338.3176 115.885,337.5496 116.6289,337.1776 117.7688,337.1776 118.5248,337.5496 119.2808,338.3176 119.6527,339.4457 119.6527,340.2018 119.2808,341.3358 118.5248,342.0919 117.7688,342.4699 116.6289,342.4699 115.885,342.0919 115.117,341.3358"/>
    <polyline points="121.9207,339.4457 126.4564,339.4457 126.4564,338.6897 126.0844,337.9336 125.7005,337.5496 124.9445,337.1776 123.8046,337.1776 123.0606,337.5496 122.2926,338.3176 121.9207,339.4457 121.9207,340.2018 122.2926,341.3358 123.0606,342.0919 123.8046,342.4699 124.9445,342.4699 125.7005,342.0919 126.4564,341.3358"/>
    <line x1="71.7068" x2="78.5225" y1="485.0725" y2="485.0725"/>
    <polyline points="82.3022,482.0483 83.0462,481.6762 84.1861,480.5362 84.1861,488.4807"/>
    <polygon points="81.4744,412.915 80.7065,414.0431 80.3345,415.9392 80.3345,417.0673 80.7065,418.9634 81.4744,420.0975 82.6024,420.4755 83.3583,420.4755 84.4983,420.0975 85.2422,418.9634 85.6262,417.0673 85.6262,415.9392 85.2422,414.0431 84.4983,412.915 83.3583,412.531 82.6024,412.531"/>
    <polyline points="81.4744,344.0381 82.2184,343.666 83.3583,342.526 83.3583,350.4705"/>
    <polyline points="176.5912,807.4824 176.5912,813.9099 176.9752,815.0431 177.7192,815.4209 178.4872,815.4209"/>
    <line x1="175.4632" x2="178.1032" y1="810.1326" y2="810.1326"/>
    <line x1="180.7432" x2="180.7432" y1="807.4824" y2="815.4209"/>
    <polyline points="180.7432,811.6435 181.8832,810.5043 182.6392,810.1326 183.7672,810.1326 184.5352,810.5043 184.9072,811.6435 184.9072,815.4209"/>
    <line x1="192.0832" x2="192.0832" y1="810.1326" y2="815.4209"/>
    <polyline points="192.0832,811.2718 191.3272,810.5043 190.5712,810.1326 189.4312,810.1326 188.6872,810.5043 187.9192,811.2718 187.5472,812.399 187.5472,813.1545 187.9192,814.2877 188.6872,815.0431 189.4312,815.4209 190.5712,815.4209 191.3272,815.0431 192.0832,814.2877"/>
    <polyline points="195.4792,807.4824 195.4792,813.9099 195.8632,815.0431 196.6072,815.4209 197.3752,815.4209"/>
    <line x1="194.3512" x2="196.9912" y1="810.1326" y2="810.1326"/>
    <polygon points="203.7952,807.4824 204.1672,807.8662 204.5512,807.4824 204.1672,807.1107"/>
    <line x1="204.1672" x2="204.1672" y1="810.1326" y2="815.4209"/>
    <polyline points="210.9832,811.2718 210.5992,810.5043 209.4712,810.1326 208.3312,810.1326 207.1912,810.5043 206.8192,811.2718 207.1912,812.0153 207.9592,812.399 209.8432,812.7827 210.5992,813.1545 210.9832,813.9099 210.9832,814.2877 210.5992,815.0431 209.4712,815.4209 208.3312,815.4209 207.1912,815.0431 206.8192,814.2877"/>
    <line x1="218.1592" x2="218.1592" y1="807.4824" y2="815.4209"/>
    <polyline points="220.8112,812.399 225.3473,812.399 225.3473,811.6435 224.9753,810.888 224.5913,810.5043 223.8352,810.1326 222.6952,810.1326 221.9512,810.5043 221.1832,811.2718 220.8112,812.399 220.8112,813.1545 221.1832,814.2877 221.9512,815.0431 222.6952,815.4209 223.8352,815.4209 224.5913,815.0431 225.3473,814.2877"/>
    <polyline points="231.7792,811.2718 231.3952,810.5043 230.2672,810.1326 229.1272,810.1326 227.9872,810.5043 227.6152,811.2718 227.9872,812.0153 228.7552,812.399 230.6392,812.7827 231.3952,813.1545 231.7792,813.9099 231.7792,814.2877 231.3952,815.0431 230.2672,815.4209 229.1272,815.4209 227.9872,815.0431 227.6152,814.2877"/>
    <polyline points="238.2112,811.2718 237.8272,810.5043 236.6992,810.1326 235.5592,810.1326 234.4192,810.5043 234.0472,811.2718 234.4192,812.0153 235.1872,812.399 237.0712,812.7827 237.8272,813.1545 238.2112,813.9099 238.2112,814.2877 237.8272,815.0431 236.6992,815.4209 235.5592,815.4209 234.4192,815.0431 234.0472,814.2877"/>
    <polyline points="245.7712,807.4824 245.7712,813.9099 246.1552,815.0431 246.8992,815.4209 247.6672,815.4209"/>
    <line x1="244.6432" x2="247.2832" y1="810.1326" y2="810.1326"/>
    <line x1="249.9232" x2="249.9232" y1="807.4824" y2="815.4209"/>
    <polyline points="249.9232,811.6435 251.0632,810.5043 251.8192,810.1326 252.9472,810.1326 253.7152,810.5043 254.0872,811.6435 254.0872,815.4209"/>
    <line x1="261.2632" x2="261.2632" y1="810.1326" y2="815.4209"/>
    <polyline points="261.2632,811.2718 260.5072,810.5043 259.7512,810.1326 258.6112,810.1326 257.8672,810.5043 257.0992,811.2718 256.7272,812.399 256.7272,813.1545 257.0992,814.2877 257.8672,815.0431 258.6112,815.4209 259.7512,815.4209 260.5072,815.0431 261.2632,814.2877"/>
    <line x1="264.2752" x2="264.2752" y1="810.1326" y2="815.4209"/>
    <polyline points="264.2752,811.6435 265.4152,810.5043 266.1712,810.1326 267.2993,810.1326 268.0673,810.5043 268.4393,811.6435 268.4393,815.4209"/>
    <polyline points="276.7553,808.9934 277.4993,808.6216 278.6393,807.4824 278.6393,815.4209"/>
    <line x1="287.7114" x2="289.2234" y1="810.1326" y2="815.4209"/>
    <line x1="290.7354" x2="289.2234" y1="810.1326" y2="815.4209"/>
    <line x1="290.7354" x2="292.2474" y1="810.1326" y2="815.4209"/>
    <line x1="293.7594" x2="292.2474" y1="810.1326" y2="815.4209"/>
    <polygon points="296.0273,807.4824 296.3993,807.8662 296.7833,807.4824 296.3993,807.1107"/>
    <line x1="296.3993" x2="296.3993" y1="810.1326" y2="815.4209"/>
    <line x1="299.4234" x2="299.4234" y1="807.4824" y2="815.4209"/>
    <line x1="302.4474" x2="302.4474" y1="807.4824" y2="815.4209"/>
    <line x1="310.0071" x2="310.0071" y1="807.4824" y2="815.4209"/>
    <polygon points="314.5431,810.1326 313.7991,810.5043 313.0311,811.2718 312.6591,812.399 312.6591,813.1545 313.0311,814.2877 313.7991,815.0431 314.5431,815.4209 315.6831,815.4209 316.4391,815.0431 317.1951,814.2877 317.5671,813.1545 317.5671,812.399 317.1951,811.2718 316.4391,810.5043 315.6831,810.1326"/>
    <line x1="319.8356" x2="321.3476" y1="810.1326" y2="815.4209"/>
    <line x1="322.8596" x2="321.3476" y1="810.1326" y2="815.4209"/>
    <line x1="322.8596" x2="324.3717" y1="810.1326" y2="815.4209"/>
    <line x1="325.8837" x2="324.3717" y1="810.1326" y2="815.4209"/>
    <polyline points="328.1516,812.399 332.6876,812.399 332.6876,811.6435 332.3156,810.888 331.9316,810.5043 331.1756,810.1326 330.0356,810.1326 329.2916,810.5043 328.5236,811.2718 328.1516,812.399 328.1516,813.1545 328.5236,814.2877 329.2916,815.0431 330.0356,815.4209 331.1756,815.4209 331.9316,815.0431 332.6876,814.2877"/>
    <line x1="335.3269" x2="335.3269" y1="810.1326" y2="815.4209"/>
    <polyline points="335.3269,812.399 335.7109,811.2718 336.4669,810.5043 337.2229,810.1326 338.3509,810.1326"/>
    <polyline points="345.1673,807.4824 345.1673,813.9099 345.5513,815.0431 346.2953,815.4209 347.0633,815.4209"/>
    <line x1="344.0393" x2="346.6793" y1="810.1326" y2="810.1326"/>
    <line x1="349.3188" x2="349.3188" y1="807.4824" y2="815.4209"/>
    <polyline points="349.3188,811.6435 350.4589,810.5043 351.2149,810.1326 352.3429,810.1326 353.1109,810.5043 353.4829,811.6435 353.4829,815.4209"/>
    <polyline points="356.1234,812.399 360.6594,812.399 360.6594,811.6435 360.2874,810.888 359.9034,810.5043 359.1474,810.1326 358.0074,810.1326 357.2634,810.5043 356.4954,811.2718 356.1234,812.399 356.1234,813.1545 356.4954,814.2877 357.2634,815.0431 358.0074,815.4209 359.1474,815.4209 359.9034,815.0431 360.6594,814.2877"/>
    <line x1="371.9993" x2="371.9993" y1="810.1326" y2="815.4209"/>
    <polyline points="371.9993,811.2718 371.2433,810.5043 370.4873,810.1326 369.3473,810.1326 368.6033,810.5043 367.8353,811.2718 367.4633,812.399 367.4633,813.1545 367.8353,814.2877 368.6033,815.0431 369.3473,815.4209 370.4873,815.4209 371.2433,815.0431 371.9993,814.2877"/>
    <line x1="375.0109" x2="375.0109" y1="810.1326" y2="815.4209"/>
    <polyline points="375.0109,811.6435 376.1509,810.5043 376.9069,810.1326 378.0349,810.1326 378.8029,810.5043 379.1749,811.6435 379.1749,815.4209"/>
    <polyline points="379.1749,811.6435 380.3149,810.5043 381.0589,810.1326 382.1989,810.1326 382.9549,810.5043 383.3389,811.6435 383.3389,815.4209"/>
    <line x1="386.3508" x2="386.3508" y1="810.1326" y2="818.059"/>
    <polyline points="386.3508,811.2718 387.1188,810.5043 387.8628,810.1326 389.0028,810.1326 389.7588,810.5043 390.5148,811.2718 390.8868,812.399 390.8868,813.1545 390.5148,814.2877 389.7588,815.0431 389.0028,815.4209 387.8628,815.4209 387.1188,815.0431 386.3508,814.2877"/>
    <line x1="393.5273" x2="393.5273" y1="807.4824" y2="815.4209"/>
    <polygon points="396.1794,807.4824 396.5514,807.8662 396.9354,807.4824 396.5514,807.1107"/>
    <line x1="396.5514" x2="396.5514" y1="810.1326" y2="815.4209"/>
    <polyline points="399.9595,807.4824 399.9595,813.9099 400.3435,815.0431 401.0875,815.4209 401.8555,815.4209"/>
    <line x1="398.8315" x2="401.4715" y1="810.1326" y2="810.1326"/>
    <polyline points="404.111,810.1326 404.111,813.9099 404.4951,815.0431 405.2511,815.4209 406.3911,815.4209 407.1351,815.0431 408.2751,813.9099"/>
    <line x1="408.2751" x2="408.2751" y1="810.1326" y2="815.4209"/>
    <line x1="415.4516" x2="415.4516" y1="807.4824" y2="815.4209"/>
    <polyline points="415.4516,811.2718 414.6956,810.5043 413.9396,810.1326 412.7996,810.1326 412.0556,810.5043 411.2876,811.2718 410.9156,812.399 410.9156,813.1545 411.2876,814.2877 412.0556,815.0431 412.7996,815.4209 413.9396,815.4209 414.6956,815.0431 415.4516,814.2877"/>
    <polyline points="418.0911,812.399 422.6271,812.399 422.6271,811.6435 422.2551,810.888 421.8711,810.5043 421.1151,810.1326 419.9751,810.1326 419.2311,810.5043 418.4631,811.2718 418.0911,812.399 418.0911,813.1545 418.4631,814.2877 419.2311,815.0431 419.9751,815.4209 421.1151,815.4209 421.8711,815.0431 422.6271,814.2877"/>
    <polygon points="425.2675,813.5262 424.8955,813.9099 425.2675,814.2877 425.6515,813.9099"/>
    <line x1="161.2548" x2="154.4628" y1="785.9855" y2="798.073"/>
    <line x1="169.5708" x2="162.7788" y1="785.9855" y2="798.073"/>
    <line x1="176.3748" x2="176.3748" y1="790.1466" y2="795.4349"/>
    <polyline points="176.3748,791.6575 177.5148,790.5183 178.2708,790.1466 179.3988,790.1466 180.1668,790.5183 180.5388,791.6575 180.5388,795.4349"/>
    <polyline points="180.5388,791.6575 181.6788,790.5183 182.4228,790.1466 183.5629,790.1466 184.3189,790.5183 184.7029,791.6575 184.7029,795.4349"/>
    <polyline points="187.7148,790.1466 187.7148,793.9239 188.0988,795.0571 188.8548,795.4349 189.9948,795.4349 190.7388,795.0571 191.8788,793.9239"/>
    <line x1="191.8788" x2="191.8788" y1="790.1466" y2="795.4349"/>
    <line x1="194.8908" x2="194.8908" y1="787.4964" y2="795.4349"/>
    <polyline points="198.2989,787.4964 198.2989,793.9239 198.6829,795.0571 199.4269,795.4349 200.1949,795.4349"/>
    <line x1="197.1709" x2="199.8109" y1="790.1466" y2="790.1466"/>
    <polygon points="202.0789,787.4964 202.4509,787.8801 202.8349,787.4964 202.4509,787.1247"/>
    <line x1="202.4509" x2="202.4509" y1="790.1466" y2="795.4349"/>
    <line x1="205.4748" x2="205.4748" y1="790.1466" y2="798.073"/>
    <polyline points="205.4748,791.2858 206.2428,790.5183 206.9868,790.1466 208.1268,790.1466 208.8828,790.5183 209.6388,791.2858 210.0108,792.413 210.0108,793.1684 209.6388,794.3016 208.8828,795.0571 208.1268,795.4349 206.9868,795.4349 206.2428,795.0571 205.4748,794.3016"/>
    <line x1="212.6509" x2="212.6509" y1="787.4964" y2="795.4349"/>
    <line x1="214.9308" x2="217.1868" y1="790.1466" y2="795.4349"/>
    <polyline points="219.4668,790.1466 217.1868,795.4349 216.4428,796.9458 215.6748,797.7013 214.9308,798.073 214.5468,798.073"/>
    <polygon points="221.3508,787.4964 221.7228,787.8801 222.1068,787.4964 221.7228,787.1247"/>
    <line x1="221.7228" x2="221.7228" y1="790.1466" y2="795.4349"/>
    <line x1="224.7469" x2="224.7469" y1="790.1466" y2="795.4349"/>
    <polyline points="224.7469,791.6575 225.8869,790.5183 226.6429,790.1466 227.7709,790.1466 228.5389,790.5183 228.9109,791.6575 228.9109,795.4349"/>
    <polyline points="236.0868,790.1466 236.0868,796.1903 235.7148,797.3295 235.3308,797.7013 234.5748,798.073 233.4348,798.073 232.6908,797.7013"/>
    <polyline points="236.0868,791.2858 235.3308,790.5183 234.5748,790.1466 233.4348,790.1466 232.6908,790.5183 231.9228,791.2858 231.5508,792.413 231.5508,793.1684 231.9228,794.3016 232.6908,795.0571 233.4348,795.4349 234.5748,795.4349 235.3308,795.0571 236.0868,794.3016"/>
    <polyline points="244.0189,787.4964 244.0189,793.9239 244.4029,795.0571 245.1469,795.4349 245.9149,795.4349"/>
    <line x1="242.8909" x2="245.5309" y1="790.1466" y2="790.1466"/>
    <line x1="248.1709" x2="248.1709" y1="787.4964" y2="795.4349"/>
    <polyline points="248.1709,791.6575 249.3109,790.5183 250.0669,790.1466 251.1949,790.1466 251.9629,790.5183 252.3349,791.6575 252.3349,795.4349"/>
    <polyline points="254.9749,792.413 259.5109,792.413 259.5109,791.6575 259.1389,790.902 258.7549,790.5183 257.9989,790.1466 256.8589,790.1466 256.1149,790.5183 255.3469,791.2858 254.9749,792.413 254.9749,793.1684 255.3469,794.3016 256.1149,795.0571 256.8589,795.4349 257.9989,795.4349 258.7549,795.0571 259.5109,794.3016"/>
    <polyline points="270.4789,791.2858 270.0949,790.5183 268.9669,790.1466 267.8269,790.1466 266.6869,790.5183 266.3149,791.2858 266.6869,792.0292 267.4549,792.413 269.3389,792.7967 270.0949,793.1684 270.4789,793.9239 270.4789,794.3016 270.0949,795.0571 268.9669,795.4349 267.8269,795.4349 266.6869,795.0571 266.3149,794.3016"/>
    <polygon points="272.7471,787.4964 273.1191,787.8801 273.5031,787.4964 273.1191,787.1247"/>
    <line x1="273.1191" x2="273.1191" y1="790.1466" y2="795.4349"/>
    <polyline points="280.3072,790.1466 280.3072,796.1903 279.9352,797.3295 279.5512,797.7013 278.7952,798.073 277.6552,798.073 276.9112,797.7013"/>
    <polyline points="280.3072,791.2858 279.5512,790.5183 278.7952,790.1466 277.6552,790.1466 276.9112,790.5183 276.1432,791.2858 275.7712,792.413 275.7712,793.1684 276.1432,794.3016 276.9112,795.0571 277.6552,795.4349 278.7952,795.4349 279.5512,795.0571 280.3072,794.3016"/>
    <line x1="283.3187" x2="283.3187" y1="790.1466" y2="795.4349"/>
    <polyline points="283.3187,791.6575 284.4587,790.5183 285.2147,790.1466 286.3427,790.1466 287.1107,790.5183 287.4827,791.6575 287.4827,795.4349"/>
    <line x1="294.6592" x2="294.6592" y1="790.1466" y2="795.4349"/>
    <polyline points="294.6592,791.2858 293.9032,790.5183 293.1472,790.1466 292.0072,790.1466 291.2632,790.5183 290.4952,791.2858 290.1232,792.413 290.1232,793.1684 290.4952,794.3016 291.2632,795.0571 292.0072,795.4349 293.1472,795.4349 293.9032,795.0571 294.6592,794.3016"/>
    <line x1="297.6708" x2="297.6708" y1="787.4964" y2="795.4349"/>
    <line x1="304.8584" x2="306.3704" y1="790.1466" y2="795.4349"/>
    <line x1="307.8824" x2="306.3704" y1="790.1466" y2="795.4349"/>
    <line x1="307.8824" x2="309.3944" y1="790.1466" y2="795.4349"/>
    <line x1="310.9064" x2="309.3944" y1="790.1466" y2="795.4349"/>
    <polygon points="313.1753,787.4964 313.5473,787.8801 313.9313,787.4964 313.5473,787.1247"/>
    <line x1="313.5473" x2="313.5473" y1="790.1466" y2="795.4349"/>
    <polyline points="316.9554,787.4964 316.9554,793.9239 317.3394,795.0571 318.0834,795.4349 318.8514,795.4349"/>
    <line x1="315.8274" x2="318.4674" y1="790.1466" y2="790.1466"/>
    <line x1="321.107" x2="321.107" y1="787.4964" y2="795.4349"/>
    <polyline points="321.107,791.6575 322.247,790.5183 323.003,790.1466 324.131,790.1466 324.899,790.5183 325.271,791.6575 325.271,795.4349"/>
    <line x1="336.9831" x2="336.9831" y1="790.1466" y2="795.4349"/>
    <polyline points="336.9831,791.2858 336.2271,790.5183 335.4711,790.1466 334.3311,790.1466 333.5871,790.5183 332.8191,791.2858 332.4471,792.413 332.4471,793.1684 332.8191,794.3016 333.5871,795.0571 334.3311,795.4349 335.4711,795.4349 336.2271,795.0571 336.9831,794.3016"/>
    <line x1="343.7872" x2="346.0432" y1="790.1466" y2="795.4349"/>
    <line x1="348.3232" x2="346.0432" y1="790.1466" y2="795.4349"/>
    <line x1="354.7433" x2="354.7433" y1="790.1466" y2="795.4349"/>
    <polyline points="354.7433,791.2858 353.9873,790.5183 353.2313,790.1466 352.0913,790.1466 351.3473,790.5183 350.5793,791.2858 350.2073,792.413 350.2073,793.1684 350.5793,794.3016 351.3473,795.0571 352.0913,795.4349 353.2313,795.4349 353.9873,795.0571 354.7433,794.3016"/>
    <line x1="357.7548" x2="357.7548" y1="787.4964" y2="795.4349"/>
    <polyline points="360.7789,790.1466 360.7789,793.9239 361.1629,795.0571 361.9189,795.4349 363.0589,795.4349 363.8029,795.0571 364.9429,793.9239"/>
    <line x1="364.9429" x2="364.9429" y1="790.1466" y2="795.4349"/>
    <polyline points="367.5834,792.413 372.1194,792.413 372.1194,791.6575 371.7474,790.902 371.3634,790.5183 370.6074,790.1466 369.4674,790.1466 368.7234,790.5183 367.9554,791.2858 367.5834,792.413 367.5834,793.1684 367.9554,794.3016 368.7234,795.0571 369.4674,795.4349 370.6074,795.4349 371.3634,795.0571 372.1194,794.3016"/>
    <line x1="96.371" x2="96.371" y1="617.267" y2="622.5553"/>
    <polyline points="96.371,618.4062 95.615,617.6387 94.859,617.267 93.719,617.267 92.975,617.6387 92.207,618.4062 91.835,619.5334 91.835,620.2889 92.207,621.4221 92.975,622.1776 93.719,622.5553 94.859,622.5553 95.615,622.1776 96.371,621.4221"/>
    <line x1="99.383" x2="99.383" y1="617.267" y2="622.5553"/>
    <polyline points="99.383,618.7779 100.523,617.6387 101.279,617.267 102.407,617.267 103.175,617.6387 103.547,618.7779 103.547,622.5553"/>
    <polyline points="103.547,618.7779 104.687,617.6387 105.431,617.267 106.571,617.267 107.327,617.6387 107.711,618.7779 107.711,622.5553"/>
    <line x1="110.7229" x2="110.7229" y1="617.267" y2="625.1934"/>
    <polyline points="110.7229,618.4062 111.4909,617.6387 112.2349,617.267 113.3749,617.267 114.1309,617.6387 114.8869,618.4062 115.2589,619.5334 115.2589,620.2889 114.8869,621.4221 114.1309,622.1776 113.3749,622.5553 112.2349,622.5553 111.4909,622.1776 110.7229,621.4221"/>
    <line x1="117.899" x2="117.899" y1="614.6168" y2="622.5553"/>
    <polygon points="120.5509,614.6168 120.9229,615.0006 121.3069,614.6168 120.9229,614.2451"/>
    <line x1="120.9229" x2="120.9229" y1="617.267" y2="622.5553"/>
    <polyline points="124.331,614.6168 124.331,621.0443 124.715,622.1776 125.459,622.5553 126.227,622.5553"/>
    <line x1="123.203" x2="125.843" y1="617.267" y2="617.267"/>
    <polyline points="128.483,617.267 128.483,621.0443 128.867,622.1776 129.623,622.5553 130.763,622.5553 131.507,622.1776 132.647,621.0443"/>
    <line x1="132.647" x2="132.647" y1="617.267" y2="622.5553"/>
    <line x1="139.823" x2="139.823" y1="614.6168" y2="622.5553"/>
    <polyline points="139.823,618.4062 139.067,617.6387 138.311,617.267 137.171,617.267 136.427,617.6387 135.659,618.4062 135.287,619.5334 135.287,620.2889 135.659,621.4221 136.427,622.1776 137.171,622.5553 138.311,622.5553 139.067,622.1776 139.823,621.4221"/>
    <polyline points="142.463,619.5334 146.999,619.5334 146.999,618.7779 146.627,618.0225 146.243,617.6387 145.487,617.267 144.347,617.267 143.603,617.6387 142.835,618.4062 142.463,619.5334 142.463,620.2889 142.835,621.4221 143.603,622.1776 144.347,622.5553 145.487,622.5553 146.243,622.1776 146.999,621.4221"/>
    <line x1="148.133" x2="154.943" y1="625.1934" y2="625.1934"/>
    <polyline points="160.607,618.4062 159.851,617.6387 159.095,617.267 157.955,617.267 157.211,617.6387 156.443,618.4062 156.071,619.5334 156.071,620.2889 156.443,621.4221 157.211,622.1776 157.955,622.5553 159.095,622.5553 159.851,622.1776 160.607,621.4221"/>
    <line x1="163.2469" x2="163.2469" y1="614.6168" y2="622.5553"/>
    <polyline points="163.2469,618.7779 164.3869,617.6387 165.1429,617.267 166.2709,617.267 167.0389,617.6387 167.4109,618.7779 167.4109,622.5553"/>
    <line x1="174.587" x2="174.587" y1="617.267" y2="622.5553"/>
    <polyline points="174.587,618.4062 173.831,617.6387 173.075,617.267 171.935,617.267 171.191,617.6387 170.423,618.4062 170.051,619.5334 170.051,620.2889 170.423,621.4221 171.191,622.1776 171.935,622.5553 173.075,622.5553 173.831,622.1776 174.587,621.4221"/>
    <line x1="177.599" x2="177.599" y1="617.267" y2="622.5553"/>
    <polyline points="177.599,618.7779 178.739,617.6387 179.495,617.267 180.623,617.267 181.391,617.6387 181.763,618.7779 181.763,622.5553"/>
    <polyline points="188.939,617.267 188.939,623.3108 188.567,624.45 188.183,624.8217 187.427,625.1934 186.287,625.1934 185.543,624.8217"/>
    <polyline points="188.939,618.4062 188.183,617.6387 187.427,617.267 186.287,617.267 185.543,617.6387 184.775,618.4062 184.403,619.5334 184.403,620.2889 184.775,621.4221 185.543,622.1776 186.287,622.5553 187.427,622.5553 188.183,622.1776 188.939,621.4221"/>
    <polyline points="191.579,619.5334 196.115,619.5334 196.115,618.7779 195.743,618.0225 195.359,617.6387 194.603,617.267 193.463,617.267 192.719,617.6387 191.951,618.4062 191.579,619.5334 191.579,620.2889 191.951,621.4221 192.719,622.1776 193.463,622.5553 194.603,622.5553 195.359,622.1776 196.115,621.4221"/>
    <polyline points="95.591,841.4585 95.591,847.886 95.975,849.0193 96.719,849.397 97.487,849.397"/>
    <line x1="94.463" x2="97.103" y1="844.1087" y2="844.1087"/>
    <line x1="103.907" x2="103.907" y1="844.1087" y2="849.397"/>
    <polyline points="103.907,845.2479 103.151,844.4804 102.395,844.1087 101.255,844.1087 100.511,844.4804 99.743,845.2479 99.371,846.3751 99.371,847.1306 99.743,848.2638 100.511,849.0193 101.255,849.397 102.395,849.397 103.151,849.0193 103.907,848.2638"/>
    <line x1="106.919" x2="106.919" y1="841.4585" y2="849.397"/>
    <polyline points="106.919,845.2479 107.687,844.4804 108.431,844.1087 109.571,844.1087 110.327,844.4804 111.083,845.2479 111.455,846.3751 111.455,847.1306 111.083,848.2638 110.327,849.0193 109.571,849.397 108.431,849.397 107.687,849.0193 106.919,848.2638"/>
    <line x1="113.723" x2="115.235" y1="844.1087" y2="849.397"/>
    <line x1="116.747" x2="115.235" y1="844.1087" y2="849.397"/>
    <line x1="116.747" x2="118.259" y1="844.1087" y2="849.397"/>
    <line x1="119.771" x2="118.259" y1="844.1087" y2="849.397"/>
    <line x1="122.411" x2="122.411" y1="844.1087" y2="849.397"/>
    <polyline points="122.411,846.3751 122.795,845.2479 123.551,844.4804 124.307,844.1087 125.435,844.1087"/>
    <polygon points="126.9591,841.4585 127.3311,841.8423 127.7151,841.4585 127.3311,841.0868"/>
    <line x1="127.3311" x2="127.3311" y1="844.1087" y2="849.397"/>
    <polyline points="130.739,841.4585 130.739,847.886 131.123,849.0193 131.867,849.397 132.635,849.397"/>
    <line x1="129.611" x2="132.251" y1="844.1087" y2="844.1087"/>
    <polyline points="134.519,846.3751 139.055,846.3751 139.055,845.6196 138.683,844.8642 138.299,844.4804 137.543,844.1087 136.403,844.1087 135.659,844.4804 134.891,845.2479 134.519,846.3751 134.519,847.1306 134.891,848.2638 135.659,849.0193 136.403,849.397 137.543,849.397 138.299,849.0193 139.055,848.2638"/>
    <polyline points="141.323,847.1306 141.323,846.3751 141.695,845.2479 142.463,844.8642 143.207,844.8642 143.975,845.2479 145.487,846.3751 146.231,846.7588 146.999,846.7588 147.743,846.3751 148.127,845.6196"/>
    <polyline points="141.323,846.3751 141.695,845.6196 142.463,845.2479 143.207,845.2479 143.975,845.6196 145.487,846.7588 146.231,847.1306 146.999,847.1306 147.743,846.7588 148.127,845.6196 148.127,844.8642"/>
    <line x1="159.4671" x2="159.4671" y1="844.1087" y2="849.397"/>
    <polyline points="159.4671,845.2479 158.7111,844.4804 157.9551,844.1087 156.8151,844.1087 156.0711,844.4804 155.3031,845.2479 154.9311,846.3751 154.9311,847.1306 155.3031,848.2638 156.0711,849.0193 156.8151,849.397 157.9551,849.397 158.7111,849.0193 159.4671,848.2638"/>
    <line x1="162.4791" x2="162.4791" y1="844.1087" y2="849.397"/>
    <polyline points="162.4791,845.6196 163.6191,844.4804 164.3751,844.1087 165.5031,844.1087 166.2711,844.4804 166.6431,845.6196 166.6431,849.397"/>
    <polyline points="166.6431,845.6196 167.7831,844.4804 168.5271,844.1087 169.6671,844.1087 170.4231,844.4804 170.8071,845.6196 170.8071,849.397"/>
    <line x1="173.8191" x2="173.8191" y1="844.1087" y2="852.0351"/>
    <polyline points="173.8191,845.2479 174.5871,844.4804 175.3311,844.1087 176.4711,844.1087 177.2271,844.4804 177.9831,845.2479 178.3551,846.3751 178.3551,847.1306 177.9831,848.2638 177.2271,849.0193 176.4711,849.397 175.3311,849.397 174.5871,849.0193 173.8191,848.2638"/>
    <line x1="180.9951" x2="180.9951" y1="841.4585" y2="849.397"/>
    <polygon points="183.647,841.4585 184.019,841.8423 184.403,841.4585 184.019,841.0868"/>
    <line x1="184.019" x2="184.019" y1="844.1087" y2="849.397"/>
    <polyline points="187.4271,841.4585 187.4271,847.886 187.8111,849.0193 188.5551,849.397 189.3231,849.397"/>
    <line x1="186.2991" x2="188.9391" y1="844.1087" y2="844.1087"/>
    <polyline points="191.5791,844.1087 191.5791,847.886 191.9631,849.0193 192.7191,849.397 193.8591,849.397 194.6031,849.0193 195.7431,847.886"/>
    <line x1="195.7431" x2="195.7431" y1="844.1087" y2="849.397"/>
    <line x1="202.9193" x2="202.9193" y1="841.4585" y2="849.397"/>
    <polyline points="202.9193,845.2479 202.1633,844.4804 201.4073,844.1087 200.2673,844.1087 199.5233,844.4804 198.7553,845.2479 198.3833,846.3751 198.3833,847.1306 198.7553,848.2638 199.5233,849.0193 200.2673,849.397 201.4073,849.397 202.1633,849.0193 202.9193,848.2638"/>
    <polyline points="205.5588,846.3751 210.0948,846.3751 210.0948,845.6196 209.7228,844.8642 209.3388,844.4804 208.5828,844.1087 207.4428,844.1087 206.6988,844.4804 205.9308,845.2479 205.5588,846.3751 205.5588,847.1306 205.9308,848.2638 206.6988,849.0193 207.4428,849.397 208.5828,849.397 209.3388,849.0193 210.0948,848.2638"/>
    <line x1="211.2292" x2="218.0392" y1="852.0351" y2="852.0351"/>
    <polyline points="223.7026,845.2479 222.9466,844.4804 222.1906,844.1087 221.0506,844.1087 220.3066,844.4804 219.5386,845.2479 219.1666,846.3751 219.1666,847.1306 219.5386,848.2638 220.3066,849.0193 221.0506,849.397 222.1906,849.397 222.9466,849.0193 223.7026,848.2638"/>
    <line x1="226.343" x2="226.343" y1="841.4585" y2="849.397"/>
    <polyline points="226.343,845.6196 227.483,844.4804 228.239,844.1087 229.367,844.1087 230.135,844.4804 230.507,845.6196 230.507,849.397"/>
    <line x1="237.6835" x2="237.6835" y1="844.1087" y2="849.397"/>
    <polyline points="237.6835,845.2479 236.9275,844.4804 236.1715,844.1087 235.0315,844.1087 234.2875,844.4804 233.5195,845.2479 233.1475,846.3751 233.1475,847.1306 233.5195,848.2638 234.2875,849.0193 235.0315,849.397 236.1715,849.397 236.9275,849.0193 237.6835,848.2638"/>
    <line x1="240.695" x2="240.695" y1="844.1087" y2="849.397"/>
    <polyline points="240.695,845.6196 241.835,844.4804 242.591,844.1087 243.719,844.1087 244.487,844.4804 244.859,845.6196 244.859,849.397"/>
    <polyline points="252.0355,844.1087 252.0355,850.1525 251.6635,851.2917 251.2795,851.6634 250.5235,852.0351 249.3835,852.0351 248.6395,851.6634"/>
    <polyline points="252.0355,845.2479 251.2795,844.4804 250.5235,844.1087 249.3835,844.1087 248.6395,844.4804 247.8715,845.2479 247.4995,846.3751 247.4995,847.1306 247.8715,848.2638 248.6395,849.0193 249.3835,849.397 250.5235,849.397 251.2795,849.0193 252.0355,848.2638"/>
    <polyline points="254.675,846.3751 259.211,846.3751 259.211,845.6196 258.839,844.8642 258.455,844.4804 257.699,844.1087 256.559,844.1087 255.815,844.4804 255.047,845.2479 254.675,846.3751 254.675,847.1306 255.047,848.2638 255.815,849.0193 256.559,849.397 257.699,849.397 258.455,849.0193 259.211,848.2638"/>
    <line x1="96.719" x2="96.719" y1="813.7584" y2="818.2853"/>
    <line x1="94.835" x2="98.615" y1="814.8856" y2="817.1521"/>
    <line x1="98.615" x2="94.835" y1="814.8856" y2="817.1521"/>
    <polyline points="100.883,817.1521 100.883,816.3966 101.255,815.2694 102.023,814.8856 102.767,814.8856 103.535,815.2694 105.047,816.3966 105.791,816.7803 106.559,816.7803 107.303,816.3966 107.687,815.6411"/>
    <polyline points="100.883,816.3966 101.255,815.6411 102.023,815.2694 102.767,815.2694 103.535,815.6411 105.047,816.7803 105.791,817.1521 106.559,817.1521 107.303,816.7803 107.687,815.6411 107.687,814.8856"/>
    <polygon points="116.759,811.48 115.631,811.8638 114.863,812.991 114.491,814.8856 114.491,816.0129 114.863,817.9075 115.631,819.0407 116.759,819.4185 117.515,819.4185 118.655,819.0407 119.399,817.9075 119.783,816.0129 119.783,814.8856 119.399,812.991 118.655,811.8638 117.515,811.48"/>
    <polygon points="122.423,817.5238 122.051,817.9075 122.423,818.2853 122.807,817.9075"/>
    <polyline points="125.447,813.3747 125.447,812.991 125.831,812.2475 126.215,811.8638 126.959,811.48 128.471,811.48 129.239,811.8638 129.611,812.2475 129.983,812.991 129.983,813.7584 129.611,814.5019 128.855,815.6411 125.075,819.4185 130.367,819.4185"/>
    <polygon points="96.719,785.1503 95.975,785.522 95.207,786.2895 94.835,787.4167 94.835,788.1722 95.207,789.3054 95.975,790.0609 96.719,790.4386 97.859,790.4386 98.615,790.0609 99.371,789.3054 99.743,788.1722 99.743,787.4167 99.371,786.2895 98.615,785.522 97.859,785.1503"/>
    <polyline points="106.175,786.2895 105.791,785.522 104.663,785.1503 103.523,785.1503 102.383,785.522 102.011,786.2895 102.383,787.033 103.151,787.4167 105.035,787.8004 105.791,788.1722 106.175,788.9277 106.175,789.3054 105.791,790.0609 104.663,790.4386 103.523,790.4386 102.383,790.0609 102.011,789.3054"/>
    <polyline points="112.979,786.2895 112.223,785.522 111.467,785.1503 110.327,785.1503 109.583,785.522 108.815,786.2895 108.443,787.4167 108.443,788.1722 108.815,789.3054 109.583,790.0609 110.327,790.4386 111.467,790.4386 112.223,790.0609 112.979,789.3054"/>
    <polyline points="115.2471,788.1722 115.2471,787.4167 115.6191,786.2895 116.3871,785.9058 117.1311,785.9058 117.8991,786.2895 119.4111,787.4167 120.1551,787.8004 120.9231,787.8004 121.6671,787.4167 122.0511,786.6612"/>
    <polyline points="115.2471,787.4167 115.6191,786.6612 116.3871,786.2895 117.1311,786.2895 117.8991,786.6612 119.4111,787.8004 120.1551,788.1722 120.9231,788.1722 121.6671,787.8004 122.0511,786.6612 122.0511,785.9058"/>
    <polyline points="129.995,784.0111 130.739,783.6394 131.879,782.5002 131.879,790.4386"/>
  </g>
</svg>
