<?xml version="1.0" encoding="utf-8" ?>
<svg xmlns="http://www.w3.org/2000/svg" xmlns:cc="http://creativecommons.org/ns#" xmlns:dc="http://purl.org/dc/elements/1.1/" xmlns:ev="http://www.w3.org/2001/xml-events" xmlns:inkscape="http://www.inkscape.org/namespaces/inkscape" xmlns:rdf="http://www.w3.org/1999/02/22-rdf-syntax-ns#" xmlns:sodipodi="http://sodipodi.sourceforge.net/DTD/sodipodi-0.dtd" xmlns:xlink="http://www.w3.org/1999/xlink" baseProfile="tiny" height="25.0000135cm" version="1.2" viewBox="0 0 850.39416 944.8824000000001" width="22.50001215cm">
  <metadata>
    <rdf:RDF>
      <cc:Work>
        <dc:format>image/svg+xml</dc:format>
        <dc:source>vpype read makecircle_colors.svg ldelete 1,3,4 write makecircle_pink.svg
</dc:source>
        <dc:date>2021-06-11T18:23:42.009977</dc:date>
      </cc:Work>
    </rdf:RDF>
  </metadata>
  <defs/>
  <g fill="none" id="layer2" inkscape:groupmode="layer" inkscape:label="2" stroke="#00f" style="display:inline">
    <polyline points="461.5706,810.0844 462.4946,810.0844 463.4186,809.615 463.8733,808.2363 463.8733,800.375 463.4186,800.375"/>
    <polyline points="461.5706,810.0844 461.5706,809.615 462.4946,809.615 463.4186,809.1457"/>
    <polyline points="462.9639,809.615 463.4186,808.2363 463.4186,800.375"/>
    <polyline points="465.2666,806.843 462.0253,806.843 462.0253,806.3883"/>
    <polyline points="465.2666,806.843 465.2666,806.3883 462.0253,806.3883"/>
    <polyline points="458.3439,806.843 458.3439,802.223 457.8746,800.837 456.9506,800.375 455.5572,800.375 454.6479,800.837 453.2546,802.223"/>
    <polyline points="458.3439,806.843 457.8746,806.843 457.8746,802.223 457.4053,801.299 456.4959,800.837 455.5572,800.837 454.6479,801.299 453.2546,802.223"/>
    <polyline points="453.2546,806.843 453.2546,800.375 452.7999,800.375"/>
    <polyline points="453.2546,806.843 452.7999,806.843 452.7999,800.375"/>
    <polyline points="449.1039,806.843 449.1039,800.375 448.6346,800.375"/>
    <polyline points="449.1039,806.843 448.6346,806.843 448.6346,800.375"/>
    <polyline points="448.6346,804.995 447.2559,806.3883 446.3173,806.843 444.9386,806.843 444.0146,806.3883 443.5599,804.995 443.5599,800.375"/>
    <polyline points="448.6346,804.995 447.2559,805.919 446.3173,806.3883 445.4079,806.3883 444.4693,805.919 444.0146,804.995 444.0146,800.375 443.5599,800.375"/>
    <polyline points="434.7745,805.4497 435.6985,806.3883 436.6225,806.843 438.0158,806.843 438.9252,806.3883 439.8638,805.4497 440.3185,804.071 440.3185,803.147 439.8638,801.761 438.9252,800.837 438.0158,800.375 436.6225,800.375 435.6985,800.837 434.7745,801.761"/>
    <polyline points="434.7745,805.4497 435.2291,804.995 435.6985,805.919 436.6225,806.3883 438.0158,806.3883 438.9252,805.919 439.3945,805.4497 439.8638,804.071 439.8638,803.147 439.3945,801.761 438.9252,801.299 438.0158,800.837 436.6225,800.837 435.6985,801.299 435.2291,802.223 434.7745,801.761"/>
    <polyline points="431.0785,810.0844 431.0785,800.375 430.6092,800.375"/>
    <polyline points="431.0785,810.0844 430.6092,810.0844 430.6092,800.375"/>
    <polyline points="432.4572,806.843 429.2305,806.843 429.2305,806.3883"/>
    <polyline points="432.4572,806.843 432.4572,806.3883 429.2305,806.3883"/>
    <polygon points="426.4731,810.0844 426.9278,809.615 426.9278,809.1457 426.4731,808.691 426.0038,808.691 425.5344,809.1457 425.5344,809.615 426.0038,810.0844"/>
    <polygon points="426.4731,809.615 426.4731,809.1457 426.0038,809.1457 426.0038,809.615"/>
    <polyline points="426.4731,806.843 426.4731,800.375 426.0038,800.375"/>
    <polyline points="426.4731,806.843 426.0038,806.843 426.0038,800.375"/>
    <polygon points="420.4598,806.843 421.3691,806.3883 422.3078,805.4497 422.7625,804.071 422.7625,803.147 422.3078,801.761 421.3691,800.837 420.4598,800.375 419.0665,800.375 418.1425,800.837 417.2185,801.761 416.7638,803.147 416.7638,804.071 417.2185,805.4497 418.1425,806.3883 419.0665,806.843"/>
    <polygon points="420.4598,806.3883 421.3691,805.919 421.8385,805.4497 422.3078,804.071 422.3078,803.147 421.8385,801.761 421.3691,801.299 420.4598,800.837 419.0665,800.837 418.1425,801.299 417.6731,801.761 417.2185,803.147 417.2185,804.071 417.6731,805.4497 418.1425,805.919 419.0665,806.3883"/>
    <polyline points="413.5371,806.843 413.5371,800.375 413.0678,800.375"/>
    <polyline points="413.5371,806.843 413.0678,806.843 413.0678,800.375"/>
    <polyline points="413.0678,804.995 411.6891,806.3883 410.7504,806.843 409.3718,806.843 408.4478,806.3883 407.9931,804.995 407.9931,800.375"/>
    <polyline points="413.0678,804.995 411.6891,805.919 410.7504,806.3883 409.8411,806.3883 408.9024,805.919 408.4478,804.995 408.4478,800.375 407.9931,800.375"/>
    <polyline points="288.3125,755.0842 288.3125,745.3748 287.8578,745.3748"/>
    <polyline points="288.3125,755.0842 287.8578,755.0842 287.8578,745.3748"/>
    <polyline points="288.3125,750.4495 289.2365,751.3882 290.1605,751.8428 291.5538,751.8428 292.4632,751.3882 293.4018,750.4495 293.8565,749.0708 293.8565,748.1468 293.4018,746.7608 292.4632,745.8368 291.5538,745.3748 290.1605,745.3748 289.2365,745.8368 288.3125,746.7608"/>
    <polyline points="288.3125,750.4495 290.1605,751.3882 291.5538,751.3882 292.4632,750.9188 292.9325,750.4495 293.4018,749.0708 293.4018,748.1468 292.9325,746.7608 292.4632,746.2988 291.5538,745.8368 290.1605,745.8368 288.3125,746.7608"/>
    <polygon points="282.3138,751.8428 283.2232,751.3882 284.1618,750.4495 284.6165,749.0708 284.6165,748.1468 284.1618,746.7608 283.2232,745.8368 282.3138,745.3748 280.9205,745.3748 279.9965,745.8368 279.0725,746.7608 278.6178,748.1468 278.6178,749.0708 279.0725,750.4495 279.9965,751.3882 280.9205,751.8428"/>
    <polygon points="282.3138,751.3882 283.2232,750.9188 283.6925,750.4495 284.1618,749.0708 284.1618,748.1468 283.6925,746.7608 283.2232,746.2988 282.3138,745.8368 280.9205,745.8368 279.9965,746.2988 279.5272,746.7608 279.0725,748.1468 279.0725,749.0708 279.5272,750.4495 279.9965,750.9188 280.9205,751.3882"/>
    <polygon points="442.6358,736.7502 443.0905,736.2808 443.0905,735.8115 442.6358,735.3568 442.1665,735.3568 441.6972,735.8115 441.6972,736.2808 442.1665,736.7502"/>
    <polygon points="442.6358,736.2808 442.6358,735.8115 442.1665,735.8115 442.1665,736.2808"/>
    <polyline points="442.6358,733.5088 442.6358,727.0408 442.1665,727.0408"/>
    <polyline points="442.6358,733.5088 442.1665,733.5088 442.1665,727.0408"/>
    <polyline points="435.2292,736.7502 436.1532,736.7502 437.0772,736.2808 437.5319,734.9021 437.5319,727.0408 437.0772,727.0408"/>
    <polyline points="435.2292,736.7502 435.2292,736.2808 436.1532,736.2808 437.0772,735.8115"/>
    <polyline points="436.6225,736.2808 437.0772,734.9021 437.0772,727.0408"/>
    <polyline points="438.9252,733.5088 435.6838,733.5088 435.6838,733.0541"/>
    <polyline points="438.9252,733.5088 438.9252,733.0541 435.6838,733.0541"/>
    <polyline points="348.8275,733.5088 348.8275,727.0408 348.3729,727.0408"/>
    <polyline points="348.8275,733.5088 348.3729,733.5088 348.3729,727.0408"/>
    <polyline points="348.8275,732.1155 349.7515,733.0541 350.6755,733.5088 352.0689,733.5088 352.9782,733.0541 353.9169,732.1155 354.3715,730.7368 354.3715,729.8128 353.9169,728.4268 352.9782,727.5028 352.0689,727.0408 350.6755,727.0408 349.7515,727.5028 348.8275,728.4268"/>
    <polyline points="348.8275,732.1155 350.6755,733.0541 352.0689,733.0541 352.9782,732.5848 353.4475,732.1155 353.9169,730.7368 353.9169,729.8128 353.4475,728.4268 352.9782,727.9648 352.0689,727.5028 350.6755,727.5028 348.8275,728.4268"/>
    <polyline points="344.6769,733.5088 344.6769,727.0408 344.2075,727.0408"/>
    <polyline points="344.6769,733.5088 344.2075,733.5088 344.2075,727.0408"/>
    <polyline points="344.2075,731.6608 342.8289,733.0541 341.8902,733.5088 340.5115,733.5088 339.5875,733.0541 339.1329,731.6608 339.1329,727.0408"/>
    <polyline points="344.2075,731.6608 342.8289,732.5848 341.8902,733.0541 340.9809,733.0541 340.0422,732.5848 339.5875,731.6608 339.5875,727.0408 339.1329,727.0408"/>
    <polyline points="330.3475,736.7502 330.3475,727.0408 329.8928,727.0408"/>
    <polyline points="330.3475,736.7502 329.8928,736.7502 329.8928,727.0408"/>
    <polyline points="330.3475,732.1155 331.2715,733.0541 332.1955,733.5088 333.5889,733.5088 334.4982,733.0541 335.4369,732.1155 335.8915,730.7368 335.8915,729.8128 335.4369,728.4268 334.4982,727.5028 333.5889,727.0408 332.1955,727.0408 331.2715,727.5028 330.3475,728.4268"/>
    <polyline points="330.3475,732.1155 332.1955,733.0541 333.5889,733.0541 334.4982,732.5848 334.9675,732.1155 335.4369,730.7368 335.4369,729.8128 334.9675,728.4268 334.4982,727.9648 333.5889,727.5028 332.1955,727.5028 330.3475,728.4268"/>
    <polyline points="189.8845,736.7502 189.8845,727.0408 189.4151,727.0408"/>
    <polyline points="189.8845,736.7502 189.4151,736.7502 189.4151,727.0408"/>
    <polyline points="191.2631,733.5088 188.0365,733.5088 188.0365,733.0541"/>
    <polyline points="191.2631,733.5088 191.2631,733.0541 188.0365,733.0541"/>
    <polyline points="185.2788,736.7502 185.2788,727.0408 184.8094,727.0408"/>
    <polyline points="185.2788,736.7502 184.8094,736.7502 184.8094,727.0408"/>
    <polyline points="184.8094,731.6608 183.4308,733.0541 182.4921,733.5088 181.1134,733.5088 180.1894,733.0541 179.7348,731.6608 179.7348,727.0408"/>
    <polyline points="184.8094,731.6608 183.4308,732.5848 182.4921,733.0541 181.5828,733.0541 180.6441,732.5848 180.1894,731.6608 180.1894,727.0408 179.7348,727.0408"/>
    <polyline points="176.0388,730.2674 170.9494,730.2674 170.9494,731.6608 171.4041,732.5848 171.8734,733.0541 172.7974,733.5088 174.1908,733.5088 175.1001,733.0541 176.0388,732.1155 176.4934,730.7368 176.4934,729.8128 176.0388,728.4268 175.1001,727.5028 174.1908,727.0408 172.7974,727.0408 171.8734,727.5028 170.9494,728.4268"/>
    <polyline points="176.0388,730.7368 171.4041,730.7368 171.4041,731.6608 171.8734,732.5848 172.7974,733.0541 174.1908,733.0541 175.1001,732.5848 175.5694,732.1155 176.0388,730.7368 176.0388,729.8128 175.5694,728.4268 175.1001,727.9648 174.1908,727.5028 172.7974,727.5028 171.8734,727.9648 171.4041,728.8888 170.9494,728.4268"/>
    <polyline points="167.7228,733.5088 167.7228,727.0408 167.2534,727.0408"/>
    <polyline points="167.7228,733.5088 167.2534,733.5088 167.2534,727.0408"/>
    <polyline points="167.2534,731.6608 165.8748,733.0541 164.9361,733.5088 163.5574,733.5088 162.6334,733.0541 162.1788,731.6608 162.1788,727.0408"/>
    <polyline points="167.2534,731.6608 165.8748,732.5848 164.9361,733.0541 164.0268,733.0541 163.0881,732.5848 162.6334,731.6608 162.6334,727.0408 162.1788,727.0408"/>
    <polyline points="442.6358,638.6002 437.5465,638.6002 437.5465,639.9935 438.0011,640.9175 438.4705,641.3869 439.3945,641.8416 440.7878,641.8416 441.6972,641.3869 442.6358,640.4482 443.0905,639.0695 443.0905,638.1455 442.6358,636.7595 441.6972,635.8355 440.7878,635.3735 439.3945,635.3735 438.4705,635.8355 437.5465,636.7595"/>
    <polyline points="442.6358,639.0695 438.0011,639.0695 438.0011,639.9935 438.4705,640.9175 439.3945,641.3869 440.7878,641.3869 441.6972,640.9175 442.1665,640.4482 442.6358,639.0695 442.6358,638.1455 442.1665,636.7595 441.6972,636.2975 440.7878,635.8355 439.3945,635.8355 438.4705,636.2975 438.0011,637.2215 437.5465,636.7595"/>
    <polyline points="434.3198,641.8416 434.3198,635.3735 433.8505,635.3735"/>
    <polyline points="434.3198,641.8416 433.8505,641.8416 433.8505,635.3735"/>
    <polyline points="433.8505,639.9935 432.4718,641.3869 431.5331,641.8416 430.1545,641.8416 429.2305,641.3869 428.7758,639.9935 428.7758,635.3735"/>
    <polyline points="433.8505,639.9935 432.4718,640.9175 431.5331,641.3869 430.6238,641.3869 429.6851,640.9175 429.2305,639.9935 429.2305,635.3735 428.7758,635.3735"/>
    <polyline points="419.9905,645.0829 419.9905,635.3735 419.5358,635.3735"/>
    <polyline points="419.9905,645.0829 419.5358,645.0829 419.5358,635.3735"/>
    <polyline points="419.9905,640.4482 420.9145,641.3869 421.8385,641.8416 423.2318,641.8416 424.1411,641.3869 425.0798,640.4482 425.5345,639.0695 425.5345,638.1455 425.0798,636.7595 424.1411,635.8355 423.2318,635.3735 421.8385,635.3735 420.9145,635.8355 419.9905,636.7595"/>
    <polyline points="419.9905,640.4482 421.8385,641.3869 423.2318,641.3869 424.1411,640.9175 424.6105,640.4482 425.0798,639.0695 425.0798,638.1455 424.6105,636.7595 424.1411,636.2975 423.2318,635.8355 421.8385,635.8355 419.9905,636.7595"/>
    <polygon points="442.6358,608.4168 443.0905,607.9475 443.0905,607.4781 442.6358,607.0235 442.1665,607.0235 441.6972,607.4781 441.6972,607.9475 442.1665,608.4168"/>
    <polygon points="442.6358,607.9475 442.6358,607.4781 442.1665,607.4781 442.1665,607.9475"/>
    <polyline points="442.6358,605.1755 442.6358,598.7074 442.1665,598.7074"/>
    <polyline points="442.6358,605.1755 442.1665,605.1755 442.1665,598.7074"/>
    <polyline points="435.2292,608.4168 436.1532,608.4168 437.0772,607.9475 437.5319,606.5688 437.5319,598.7074 437.0772,598.7074"/>
    <polyline points="435.2292,608.4168 435.2292,607.9475 436.1532,607.9475 437.0772,607.4781"/>
    <polyline points="436.6225,607.9475 437.0772,606.5688 437.0772,598.7074"/>
    <polyline points="438.9252,605.1755 435.6838,605.1755 435.6838,604.7208"/>
    <polyline points="438.9252,605.1755 438.9252,604.7208 435.6838,604.7208"/>
    <polyline points="269.3485,605.1755 269.3485,598.7074 268.8938,598.7074"/>
    <polyline points="269.3485,605.1755 268.8938,605.1755 268.8938,598.7074"/>
    <polyline points="269.3485,603.7821 270.2725,604.7208 271.1965,605.1755 272.5898,605.1755 273.4992,604.7208 274.4378,603.7821 274.8925,602.4034 274.8925,601.4794 274.4378,600.0934 273.4992,599.1694 272.5898,598.7074 271.1965,598.7074 270.2725,599.1694 269.3485,600.0934"/>
    <polyline points="269.3485,603.7821 271.1965,604.7208 272.5898,604.7208 273.4992,604.2514 273.9685,603.7821 274.4378,602.4034 274.4378,601.4794 273.9685,600.0934 273.4992,599.6314 272.5898,599.1694 271.1965,599.1694 269.3485,600.0934"/>
    <polyline points="265.1978,605.1755 265.1978,598.7074 264.7285,598.7074"/>
    <polyline points="265.1978,605.1755 264.7285,605.1755 264.7285,598.7074"/>
    <polyline points="264.7285,603.3274 263.3498,604.7208 262.4112,605.1755 261.0325,605.1755 260.1085,604.7208 259.6538,603.3274 259.6538,598.7074"/>
    <polyline points="264.7285,603.3274 263.3498,604.2514 262.4112,604.7208 261.5018,604.7208 260.5632,604.2514 260.1085,603.3274 260.1085,598.7074 259.6538,598.7074"/>
    <polyline points="250.8685,608.4168 250.8685,598.7074 250.4138,598.7074"/>
    <polyline points="250.8685,608.4168 250.4138,608.4168 250.4138,598.7074"/>
    <polyline points="250.8685,603.7821 251.7925,604.7208 252.7165,605.1755 254.1098,605.1755 255.0192,604.7208 255.9578,603.7821 256.4125,602.4034 256.4125,601.4794 255.9578,600.0934 255.0192,599.1694 254.1098,598.7074 252.7165,598.7074 251.7925,599.1694 250.8685,600.0934"/>
    <polyline points="250.8685,603.7821 252.7165,604.7208 254.1098,604.7208 255.0192,604.2514 255.4885,603.7821 255.9578,602.4034 255.9578,601.4794 255.4885,600.0934 255.0192,599.6314 254.1098,599.1694 252.7165,599.1694 250.8685,600.0934"/>
    <polyline points="109.9364,608.4168 109.9364,598.7074 109.4671,598.7074"/>
    <polyline points="109.9364,608.4168 109.4671,608.4168 109.4671,598.7074"/>
    <polyline points="111.3151,605.1755 108.0884,605.1755 108.0884,604.7208"/>
    <polyline points="111.3151,605.1755 111.3151,604.7208 108.0884,604.7208"/>
    <polyline points="105.3307,608.4168 105.3307,598.7074 104.8614,598.7074"/>
    <polyline points="105.3307,608.4168 104.8614,608.4168 104.8614,598.7074"/>
    <polyline points="104.8614,603.3274 103.4827,604.7208 102.5441,605.1755 101.1654,605.1755 100.2414,604.7208 99.7867,603.3274 99.7867,598.7074"/>
    <polyline points="104.8614,603.3274 103.4827,604.2514 102.5441,604.7208 101.6347,604.7208 100.6961,604.2514 100.2414,603.3274 100.2414,598.7074 99.7867,598.7074"/>
    <polyline points="96.0908,601.9341 91.0014,601.9341 91.0014,603.3274 91.4561,604.2514 91.9254,604.7208 92.8494,605.1755 94.2427,605.1755 95.1521,604.7208 96.0908,603.7821 96.5454,602.4034 96.5454,601.4794 96.0908,600.0934 95.1521,599.1694 94.2427,598.7074 92.8494,598.7074 91.9254,599.1694 91.0014,600.0934"/>
    <polyline points="96.0908,602.4034 91.4561,602.4034 91.4561,603.3274 91.9254,604.2514 92.8494,604.7208 94.2427,604.7208 95.1521,604.2514 95.6214,603.7821 96.0908,602.4034 96.0908,601.4794 95.6214,600.0934 95.1521,599.6314 94.2427,599.1694 92.8494,599.1694 91.9254,599.6314 91.4561,600.5554 91.0014,600.0934"/>
    <polyline points="87.7747,605.1755 87.7747,598.7074 87.3054,598.7074"/>
    <polyline points="87.7747,605.1755 87.3054,605.1755 87.3054,598.7074"/>
    <polyline points="87.3054,603.3274 85.9267,604.7208 84.9881,605.1755 83.6094,605.1755 82.6854,604.7208 82.2307,603.3274 82.2307,598.7074"/>
    <polyline points="87.3054,603.3274 85.9267,604.2514 84.9881,604.7208 84.0787,604.7208 83.1401,604.2514 82.6854,603.3274 82.6854,598.7074 82.2307,598.7074"/>
    <polyline points="442.6358,510.2668 437.5465,510.2668 437.5465,511.6602 438.0011,512.5842 438.4705,513.0535 439.3945,513.5082 440.7878,513.5082 441.6972,513.0535 442.6358,512.1149 443.0905,510.7362 443.0905,509.8122 442.6358,508.4262 441.6972,507.5022 440.7878,507.0402 439.3945,507.0402 438.4705,507.5022 437.5465,508.4262"/>
    <polyline points="442.6358,510.7362 438.0011,510.7362 438.0011,511.6602 438.4705,512.5842 439.3945,513.0535 440.7878,513.0535 441.6972,512.5842 442.1665,512.1149 442.6358,510.7362 442.6358,509.8122 442.1665,508.4262 441.6972,507.9642 440.7878,507.5022 439.3945,507.5022 438.4705,507.9642 438.0011,508.8882 437.5465,508.4262"/>
    <polyline points="434.3198,513.5082 434.3198,507.0402 433.8505,507.0402"/>
    <polyline points="434.3198,513.5082 433.8505,513.5082 433.8505,507.0402"/>
    <polyline points="433.8505,511.6602 432.4718,513.0535 431.5331,513.5082 430.1545,513.5082 429.2305,513.0535 428.7758,511.6602 428.7758,507.0402"/>
    <polyline points="433.8505,511.6602 432.4718,512.5842 431.5331,513.0535 430.6238,513.0535 429.6851,512.5842 429.2305,511.6602 429.2305,507.0402 428.7758,507.0402"/>
    <polyline points="419.9905,516.7496 419.9905,507.0402 419.5358,507.0402"/>
    <polyline points="419.9905,516.7496 419.5358,516.7496 419.5358,507.0402"/>
    <polyline points="419.9905,512.1149 420.9145,513.0535 421.8385,513.5082 423.2318,513.5082 424.1411,513.0535 425.0798,512.1149 425.5345,510.7362 425.5345,509.8122 425.0798,508.4262 424.1411,507.5022 423.2318,507.0402 421.8385,507.0402 420.9145,507.5022 419.9905,508.4262"/>
    <polyline points="419.9905,512.1149 421.8385,513.0535 423.2318,513.0535 424.1411,512.5842 424.6105,512.1149 425.0798,510.7362 425.0798,509.8122 424.6105,508.4262 424.1411,507.9642 423.2318,507.5022 421.8385,507.5022 419.9905,508.4262"/>
    <polyline points="453.7239,491.9328 448.6346,491.9328 448.6346,493.3261 449.0893,494.2501 449.5586,494.7195 450.4826,495.1741 451.8759,495.1741 452.7853,494.7195 453.7239,493.7808 454.1786,492.4021 454.1786,491.4781 453.7239,490.0921 452.7853,489.1681 451.8759,488.7061 450.4826,488.7061 449.5586,489.1681 448.6346,490.0921"/>
    <polyline points="453.7239,492.4021 449.0893,492.4021 449.0893,493.3261 449.5586,494.2501 450.4826,494.7195 451.8759,494.7195 452.7853,494.2501 453.2546,493.7808 453.7239,492.4021 453.7239,491.4781 453.2546,490.0921 452.7853,489.6301 451.8759,489.1681 450.4826,489.1681 449.5586,489.6301 449.0893,490.5541 448.6346,490.0921"/>
    <polyline points="445.4079,495.1741 445.4079,488.7061 444.9386,488.7061"/>
    <polyline points="445.4079,495.1741 444.9386,495.1741 444.9386,488.7061"/>
    <polyline points="444.9386,493.3261 443.5599,494.7195 442.6212,495.1741 441.2426,495.1741 440.3186,494.7195 439.8639,493.3261 439.8639,488.7061"/>
    <polyline points="444.9386,493.3261 443.5599,494.2501 442.6212,494.7195 441.7119,494.7195 440.7732,494.2501 440.3186,493.3261 440.3186,488.7061 439.8639,488.7061"/>
    <polyline points="431.0785,498.4155 431.0785,488.7061 430.6238,488.7061"/>
    <polyline points="431.0785,498.4155 430.6238,498.4155 430.6238,488.7061"/>
    <polyline points="431.0785,493.7808 432.0025,494.7195 432.9265,495.1741 434.3198,495.1741 435.2292,494.7195 436.1678,493.7808 436.6225,492.4021 436.6225,491.4781 436.1678,490.0921 435.2292,489.1681 434.3198,488.7061 432.9265,488.7061 432.0025,489.1681 431.0785,490.0921"/>
    <polyline points="431.0785,493.7808 432.9265,494.7195 434.3198,494.7195 435.2292,494.2501 435.6985,493.7808 436.1678,492.4021 436.1678,491.4781 435.6985,490.0921 435.2292,489.6301 434.3198,489.1681 432.9265,489.1681 431.0785,490.0921"/>
    <polyline points="288.3125,461.7494 288.3125,452.04 287.8578,452.04"/>
    <polyline points="288.3125,461.7494 287.8578,461.7494 287.8578,452.04"/>
    <polyline points="288.3125,457.1147 289.2365,458.0534 290.1605,458.508 291.5538,458.508 292.4632,458.0534 293.4018,457.1147 293.8565,455.736 293.8565,454.812 293.4018,453.426 292.4632,452.502 291.5538,452.04 290.1605,452.04 289.2365,452.502 288.3125,453.426"/>
    <polyline points="288.3125,457.1147 290.1605,458.0534 291.5538,458.0534 292.4632,457.584 292.9325,457.1147 293.4018,455.736 293.4018,454.812 292.9325,453.426 292.4632,452.964 291.5538,452.502 290.1605,452.502 288.3125,453.426"/>
    <polygon points="282.3138,458.508 283.2232,458.0534 284.1618,457.1147 284.6165,455.736 284.6165,454.812 284.1618,453.426 283.2232,452.502 282.3138,452.04 280.9205,452.04 279.9965,452.502 279.0725,453.426 278.6178,454.812 278.6178,455.736 279.0725,457.1147 279.9965,458.0534 280.9205,458.508"/>
    <polygon points="282.3138,458.0534 283.2232,457.584 283.6925,457.1147 284.1618,455.736 284.1618,454.812 283.6925,453.426 283.2232,452.964 282.3138,452.502 280.9205,452.502 279.9965,452.964 279.5272,453.426 279.0725,454.812 279.0725,455.736 279.5272,457.1147 279.9965,457.584 280.9205,458.0534"/>
    <polyline points="453.7239,400.2666 448.6346,400.2666 448.6346,401.6599 449.0893,402.5839 449.5586,403.0532 450.4826,403.5079 451.8759,403.5079 452.7853,403.0532 453.7239,402.1146 454.1786,400.7359 454.1786,399.8119 453.7239,398.4259 452.7853,397.5019 451.8759,397.0399 450.4826,397.0399 449.5586,397.5019 448.6346,398.4259"/>
    <polyline points="453.7239,400.7359 449.0893,400.7359 449.0893,401.6599 449.5586,402.5839 450.4826,403.0532 451.8759,403.0532 452.7853,402.5839 453.2546,402.1146 453.7239,400.7359 453.7239,399.8119 453.2546,398.4259 452.7853,397.9639 451.8759,397.5019 450.4826,397.5019 449.5586,397.9639 449.0893,398.8879 448.6346,398.4259"/>
    <polyline points="445.4079,403.5079 445.4079,397.0399 444.9386,397.0399"/>
    <polyline points="445.4079,403.5079 444.9386,403.5079 444.9386,397.0399"/>
    <polyline points="444.9386,401.6599 443.5599,403.0532 442.6212,403.5079 441.2426,403.5079 440.3186,403.0532 439.8639,401.6599 439.8639,397.0399"/>
    <polyline points="444.9386,401.6599 443.5599,402.5839 442.6212,403.0532 441.7119,403.0532 440.7732,402.5839 440.3186,401.6599 440.3186,397.0399 439.8639,397.0399"/>
    <polyline points="431.0785,406.7493 431.0785,397.0399 430.6238,397.0399"/>
    <polyline points="431.0785,406.7493 430.6238,406.7493 430.6238,397.0399"/>
    <polyline points="431.0785,402.1146 432.0025,403.0532 432.9265,403.5079 434.3198,403.5079 435.2292,403.0532 436.1678,402.1146 436.6225,400.7359 436.6225,399.8119 436.1678,398.4259 435.2292,397.5019 434.3198,397.0399 432.9265,397.0399 432.0025,397.5019 431.0785,398.4259"/>
    <polyline points="431.0785,402.1146 432.9265,403.0532 434.3198,403.0532 435.2292,402.5839 435.6985,402.1146 436.1678,400.7359 436.1678,399.8119 435.6985,398.4259 435.2292,397.9639 434.3198,397.5019 432.9265,397.5019 431.0785,398.4259"/>
    <polyline points="464.8119,271.9322 459.7226,271.9322 459.7226,273.3256 460.1773,274.2496 460.6466,274.7189 461.5706,275.1736 462.9639,275.1736 463.8733,274.7189 464.8119,273.7802 465.2666,272.4015 465.2666,271.4775 464.8119,270.0915 463.8733,269.1675 462.9639,268.7055 461.5706,268.7055 460.6466,269.1675 459.7226,270.0915"/>
    <polyline points="464.8119,272.4015 460.1773,272.4015 460.1773,273.3256 460.6466,274.2496 461.5706,274.7189 462.9639,274.7189 463.8733,274.2496 464.3426,273.7802 464.8119,272.4015 464.8119,271.4775 464.3426,270.0915 463.8733,269.6295 462.9639,269.1675 461.5706,269.1675 460.6466,269.6295 460.1773,270.5535 459.7226,270.0915"/>
    <polyline points="456.4959,275.1736 456.4959,268.7055 456.0266,268.7055"/>
    <polyline points="456.4959,275.1736 456.0266,275.1736 456.0266,268.7055"/>
    <polyline points="456.0266,273.3256 454.6479,274.7189 453.7092,275.1736 452.3306,275.1736 451.4066,274.7189 450.9519,273.3256 450.9519,268.7055"/>
    <polyline points="456.0266,273.3256 454.6479,274.2496 453.7092,274.7189 452.7999,274.7189 451.8612,274.2496 451.4066,273.3256 451.4066,268.7055 450.9519,268.7055"/>
    <polyline points="442.1666,278.4149 442.1666,268.7055 441.7119,268.7055"/>
    <polyline points="442.1666,278.4149 441.7119,278.4149 441.7119,268.7055"/>
    <polyline points="442.1666,273.7802 443.0906,274.7189 444.0146,275.1736 445.4079,275.1736 446.3173,274.7189 447.2559,273.7802 447.7106,272.4015 447.7106,271.4775 447.2559,270.0915 446.3173,269.1675 445.4079,268.7055 444.0146,268.7055 443.0906,269.1675 442.1666,270.0915"/>
    <polyline points="442.1666,273.7802 444.0146,274.7189 445.4079,274.7189 446.3173,274.2496 446.7866,273.7802 447.2559,272.4015 447.2559,271.4775 446.7866,270.0915 446.3173,269.6295 445.4079,269.1675 444.0146,269.1675 442.1666,270.0915"/>
  </g>
</svg>
