<?xml version="1.0" encoding="utf-8" ?>
<svg xmlns="http://www.w3.org/2000/svg" xmlns:cc="http://creativecommons.org/ns#" xmlns:dc="http://purl.org/dc/elements/1.1/" xmlns:ev="http://www.w3.org/2001/xml-events" xmlns:inkscape="http://www.inkscape.org/namespaces/inkscape" xmlns:rdf="http://www.w3.org/1999/02/22-rdf-syntax-ns#" xmlns:sodipodi="http://sodipodi.sourceforge.net/DTD/sodipodi-0.dtd" xmlns:xlink="http://www.w3.org/1999/xlink" baseProfile="tiny" height="25.0000135cm" version="1.2" viewBox="0 0 850.39416 944.8824000000001" width="22.50001215cm">
  <metadata>
    <rdf:RDF>
      <cc:Work>
        <dc:format>image/svg+xml</dc:format>
        <dc:source>vpype read makecircle_colors.svg ldelete 1,2,3 write makecircle_yellow.svg
</dc:source>
        <dc:date>2021-06-11T18:24:16.870696</dc:date>
      </cc:Work>
    </rdf:RDF>
  </metadata>
  <defs/>
  <g fill="none" id="layer4" inkscape:groupmode="layer" inkscape:label="4" stroke="#00f" style="display:inline">
    <polyline points="450.4826,755.0843 451.4066,755.0843 452.3306,754.615 452.7853,753.2363 452.7853,745.375 452.3306,745.375"/>
    <polyline points="450.4826,755.0843 450.4826,754.615 451.4066,754.615 452.3306,754.1457"/>
    <polyline points="451.8759,754.615 452.3306,753.2363 452.3306,745.375"/>
    <polyline points="454.1786,751.843 450.9373,751.843 450.9373,751.3883"/>
    <polyline points="454.1786,751.843 454.1786,751.3883 450.9373,751.3883"/>
    <polygon points="445.4079,751.843 446.3173,751.3883 447.2559,750.4496 447.7106,749.071 447.7106,748.147 447.2559,746.761 446.3173,745.837 445.4079,745.375 444.0146,745.375 443.0906,745.837 442.1666,746.761 441.7119,748.147 441.7119,749.071 442.1666,750.4496 443.0906,751.3883 444.0146,751.843"/>
    <polygon points="445.4079,751.3883 446.3173,750.919 446.7866,750.4496 447.2559,749.071 447.2559,748.147 446.7866,746.761 446.3173,746.299 445.4079,745.837 444.0146,745.837 443.0906,746.299 442.6212,746.761 442.1666,748.147 442.1666,749.071 442.6212,750.4496 443.0906,750.919 444.0146,751.3883"/>
    <polyline points="438.4852,751.843 438.4852,745.375 438.0159,745.375"/>
    <polyline points="438.4852,751.843 438.0159,751.843 438.0159,745.375"/>
    <polyline points="438.0159,749.071 437.5466,750.4496 436.6372,751.3883 435.6985,751.843 434.3199,751.843"/>
    <polyline points="438.0159,749.071 437.5466,749.995 436.6372,750.919 435.6985,751.3883 434.3199,751.3883 434.3199,751.843"/>
    <polyline points="450.4826,461.7502 451.4066,461.7502 452.3306,461.2808 452.7853,459.9022 452.7853,452.0408 452.3306,452.0408"/>
    <polyline points="450.4826,461.7502 450.4826,461.2808 451.4066,461.2808 452.3306,460.8115"/>
    <polyline points="451.8759,461.2808 452.3306,459.9022 452.3306,452.0408"/>
    <polyline points="454.1786,458.5088 450.9373,458.5088 450.9373,458.0542"/>
    <polyline points="454.1786,458.5088 454.1786,458.0542 450.9373,458.0542"/>
    <polygon points="445.4079,458.5088 446.3173,458.0542 447.2559,457.1155 447.7106,455.7368 447.7106,454.8128 447.2559,453.4268 446.3173,452.5028 445.4079,452.0408 444.0146,452.0408 443.0906,452.5028 442.1666,453.4268 441.7119,454.8128 441.7119,455.7368 442.1666,457.1155 443.0906,458.0542 444.0146,458.5088"/>
    <polygon points="445.4079,458.0542 446.3173,457.5848 446.7866,457.1155 447.2559,455.7368 447.2559,454.8128 446.7866,453.4268 446.3173,452.9648 445.4079,452.5028 444.0146,452.5028 443.0906,452.9648 442.6212,453.4268 442.1666,454.8128 442.1666,455.7368 442.6212,457.1155 443.0906,457.5848 444.0146,458.0542"/>
    <polyline points="438.4852,458.5088 438.4852,452.0408 438.0159,452.0408"/>
    <polyline points="438.4852,458.5088 438.0159,458.5088 438.0159,452.0408"/>
    <polyline points="438.0159,455.7368 437.5466,457.1155 436.6372,458.0542 435.6985,458.5088 434.3199,458.5088"/>
    <polyline points="438.0159,455.7368 437.5466,456.6608 436.6372,457.5848 435.6985,458.0542 434.3199,458.0542 434.3199,458.5088"/>
  </g>
</svg>
