<?xml version="1.0" encoding="utf-8" ?>
<svg xmlns="http://www.w3.org/2000/svg" xmlns:cc="http://creativecommons.org/ns#" xmlns:dc="http://purl.org/dc/elements/1.1/" xmlns:ev="http://www.w3.org/2001/xml-events" xmlns:inkscape="http://www.inkscape.org/namespaces/inkscape" xmlns:rdf="http://www.w3.org/1999/02/22-rdf-syntax-ns#" xmlns:sodipodi="http://sodipodi.sourceforge.net/DTD/sodipodi-0.dtd" xmlns:xlink="http://www.w3.org/1999/xlink" baseProfile="tiny" height="25.0000135cm" version="1.2" viewBox="0 0 850.39416 944.8824000000001" width="22.50001215cm">
  <metadata>
    <rdf:RDF>
      <cc:Work>
        <dc:format>image/svg+xml</dc:format>
        <dc:source>vpype read makecircle_colors.svg ldelete 1,2,4 write makecircle_green.svg
</dc:source>
        <dc:date>2021-06-11T18:23:54.377166</dc:date>
      </cc:Work>
    </rdf:RDF>
  </metadata>
  <defs/>
  <g fill="none" id="layer3" inkscape:groupmode="layer" inkscape:label="3" stroke="#00f" style="display:inline">
    <polyline points="448.6346,787.1157 449.5586,788.0543 450.4826,788.509 451.8759,788.509 452.7853,788.0543 453.7239,787.1157 454.1786,785.737 454.1786,784.813 453.7239,783.427 452.7853,782.503 451.8759,782.041 450.4826,782.041 449.5586,782.503 448.6346,783.427"/>
    <polyline points="448.6346,787.1157 449.0893,786.661 449.5586,787.585 450.4826,788.0543 451.8759,788.0543 452.7853,787.585 453.2546,787.1157 453.7239,785.737 453.7239,784.813 453.2546,783.427 452.7853,782.965 451.8759,782.503 450.4826,782.503 449.5586,782.965 449.0893,783.889 448.6346,783.427"/>
    <polyline points="445.4079,791.7503 445.4079,782.041 444.9386,782.041"/>
    <polyline points="445.4079,791.7503 444.9386,791.7503 444.9386,782.041"/>
    <polyline points="436.6078,787.1157 437.0772,788.0543 438.4558,788.509 439.8492,788.509 441.2425,788.0543 441.6972,787.1157 441.2425,786.2063 440.3039,785.737 438.0012,784.813 437.0772,784.3583"/>
    <polyline points="437.5465,784.813 437.0772,783.889 437.0772,783.427 437.5465,782.503"/>
    <polyline points="437.0772,782.965 438.4558,782.503 439.8492,782.503 441.2425,782.965"/>
    <polyline points="440.7732,782.503 441.2425,783.427 441.6972,783.427"/>
    <polyline points="436.6078,787.1157 437.0772,787.1157 437.5465,788.0543"/>
    <polyline points="437.0772,787.585 438.4558,788.0543 439.8492,788.0543 441.2425,787.585"/>
    <polyline points="440.7732,788.0543 441.2425,787.1157 440.7732,786.2063"/>
    <polyline points="441.2425,786.661 440.3039,786.2063 438.0012,785.2677 437.0772,784.813 436.6078,783.889 436.6078,783.427 437.0772,782.503 438.4558,782.041 439.8492,782.041 441.2425,782.503 441.6972,783.427"/>
    <polyline points="431.5478,718.4173 431.5478,708.7079 431.0785,708.7079"/>
    <polyline points="431.5478,718.4173 431.0785,718.4173 431.0785,708.7079"/>
    <polygon points="427.3825,718.4173 427.8372,717.948 427.8372,717.4786 427.3825,717.024 426.9132,717.024 426.4439,717.4786 426.4439,717.948 426.9132,718.4173"/>
    <polygon points="427.3825,717.948 427.3825,717.4786 426.9132,717.4786 426.9132,717.948"/>
    <polyline points="427.3825,715.176 427.3825,708.7079 426.9132,708.7079"/>
    <polyline points="427.3825,715.176 426.9132,715.176 426.9132,708.7079"/>
    <polyline points="423.2171,715.176 423.2171,708.7079 422.7478,708.7079"/>
    <polyline points="423.2171,715.176 422.7478,715.176 422.7478,708.7079"/>
    <polyline points="422.7478,713.328 421.3691,714.7213 420.4304,715.176 419.0518,715.176 418.1278,714.7213 417.6731,713.328 417.6731,708.7079"/>
    <polyline points="422.7478,713.328 421.3691,714.252 420.4304,714.7213 419.5211,714.7213 418.5824,714.252 418.1278,713.328 418.1278,708.7079 417.6731,708.7079"/>
    <polyline points="413.9771,711.9346 408.8878,711.9346 408.8878,713.328 409.3424,714.252 409.8118,714.7213 410.7358,715.176 412.1291,715.176 413.0384,714.7213 413.9771,713.7826 414.4318,712.404 414.4318,711.48 413.9771,710.0939 413.0384,709.1699 412.1291,708.7079 410.7358,708.7079 409.8118,709.1699 408.8878,710.0939"/>
    <polyline points="413.9771,712.404 409.3424,712.404 409.3424,713.328 409.8118,714.252 410.7358,714.7213 412.1291,714.7213 413.0384,714.252 413.5078,713.7826 413.9771,712.404 413.9771,711.48 413.5078,710.0939 413.0384,709.6319 412.1291,709.1699 410.7358,709.1699 409.8118,709.6319 409.3424,710.5559 408.8878,710.0939"/>
    <polyline points="394.1038,713.7826 395.0278,714.7213 395.9518,715.176 397.3451,715.176 398.2544,714.7213 399.1931,713.7826 399.6478,712.404 399.6478,711.48 399.1931,710.0939 398.2544,709.1699 397.3451,708.7079 395.9518,708.7079 395.0278,709.1699 394.1038,710.0939"/>
    <polyline points="394.1038,713.7826 394.5584,713.328 395.0278,714.252 395.9518,714.7213 397.3451,714.7213 398.2544,714.252 398.7238,713.7826 399.1931,712.404 399.1931,711.48 398.7238,710.0939 398.2544,709.6319 397.3451,709.1699 395.9518,709.1699 395.0278,709.6319 394.5584,710.5559 394.1038,710.0939"/>
    <polygon points="389.0291,715.176 389.9384,714.7213 390.8771,713.7826 391.3318,712.404 391.3318,711.48 390.8771,710.0939 389.9384,709.1699 389.0291,708.7079 387.6358,708.7079 386.7117,709.1699 385.7877,710.0939 385.3331,711.48 385.3331,712.404 385.7877,713.7826 386.7117,714.7213 387.6358,715.176"/>
    <polygon points="389.0291,714.7213 389.9384,714.252 390.4078,713.7826 390.8771,712.404 390.8771,711.48 390.4078,710.0939 389.9384,709.6319 389.0291,709.1699 387.6358,709.1699 386.7117,709.6319 386.2424,710.0939 385.7877,711.48 385.7877,712.404 386.2424,713.7826 386.7117,714.252 387.6358,714.7213"/>
    <polyline points="377.4717,713.7826 377.941,714.7213 379.3197,715.176 380.7131,715.176 382.1064,714.7213 382.5611,713.7826 382.1064,712.8733 381.1677,712.404 378.8651,711.48 377.941,711.0253"/>
    <polyline points="378.4104,711.48 377.941,710.5559 377.941,710.0939 378.4104,709.1699"/>
    <polyline points="377.941,709.6319 379.3197,709.1699 380.7131,709.1699 382.1064,709.6319"/>
    <polyline points="381.6371,709.1699 382.1064,710.0939 382.5611,710.0939"/>
    <polyline points="377.4717,713.7826 377.941,713.7826 378.4104,714.7213"/>
    <polyline points="377.941,714.252 379.3197,714.7213 380.7131,714.7213 382.1064,714.252"/>
    <polyline points="381.6371,714.7213 382.1064,713.7826 381.6371,712.8733"/>
    <polyline points="382.1064,713.328 381.1677,712.8733 378.8651,711.9346 377.941,711.48 377.4717,710.5559 377.4717,710.0939 377.941,709.1699 379.3197,708.7079 380.7131,708.7079 382.1064,709.1699 382.5611,710.0939"/>
    <polyline points="393.649,695.4496 394.1184,696.3883 395.497,696.8429 396.8904,696.8429 398.2837,696.3883 398.7384,695.4496 398.2837,694.5403 397.345,694.0709 395.0424,693.1469 394.1184,692.6923"/>
    <polyline points="394.5877,693.1469 394.1184,692.2229 394.1184,691.7609 394.5877,690.8369"/>
    <polyline points="394.1184,691.2989 395.497,690.8369 396.8904,690.8369 398.2837,691.2989"/>
    <polyline points="397.8144,690.8369 398.2837,691.7609 398.7384,691.7609"/>
    <polyline points="393.649,695.4496 394.1184,695.4496 394.5877,696.3883"/>
    <polyline points="394.1184,695.9189 395.497,696.3883 396.8904,696.3883 398.2837,695.9189"/>
    <polyline points="397.8144,696.3883 398.2837,695.4496 397.8144,694.5403"/>
    <polyline points="398.2837,694.9949 397.345,694.5403 395.0424,693.6016 394.1184,693.1469 393.649,692.2229 393.649,691.7609 394.1184,690.8369 395.497,690.3749 396.8904,690.3749 398.2837,690.8369 398.7384,691.7609"/>
    <polygon points="390.4224,700.0843 390.8771,699.615 390.8771,699.1456 390.4224,698.691 389.9531,698.691 389.4837,699.1456 389.4837,699.615 389.9531,700.0843"/>
    <polygon points="390.4224,699.615 390.4224,699.1456 389.9531,699.1456 389.9531,699.615"/>
    <polyline points="390.4224,696.8429 390.4224,690.3749 389.9531,690.3749"/>
    <polyline points="390.4224,696.8429 389.9531,696.8429 389.9531,690.3749"/>
    <polyline points="386.2571,696.8429 386.2571,690.3749 385.7878,690.3749"/>
    <polyline points="386.2571,696.8429 385.7878,696.8429 385.7878,690.3749"/>
    <polyline points="385.7878,694.9949 384.4091,696.3883 383.4704,696.8429 382.0917,696.8429 381.1677,696.3883 380.7131,694.9949 380.7131,690.3749"/>
    <polyline points="385.7878,694.9949 384.4091,695.9189 383.4704,696.3883 382.5611,696.3883 381.6224,695.9189 381.1677,694.9949 381.1677,690.3749 380.7131,690.3749"/>
    <polyline points="393.1944,677.1156 394.1184,678.0543 395.0424,678.5089 396.4357,678.5089 397.345,678.0543 398.2837,677.1156 398.7384,675.7369 398.7384,674.8129 398.2837,673.4269 397.345,672.5029 396.4357,672.0409 395.0424,672.0409 394.1184,672.5029 393.1944,673.4269"/>
    <polyline points="393.1944,677.1156 393.649,676.6609 394.1184,677.5849 395.0424,678.0543 396.4357,678.0543 397.345,677.5849 397.8144,677.1156 398.2837,675.7369 398.2837,674.8129 397.8144,673.4269 397.345,672.9649 396.4357,672.5029 395.0424,672.5029 394.1184,672.9649 393.649,673.8889 393.1944,673.4269"/>
    <polygon points="388.1197,678.5089 389.029,678.0543 389.9677,677.1156 390.4224,675.7369 390.4224,674.8129 389.9677,673.4269 389.029,672.5029 388.1197,672.0409 386.7264,672.0409 385.8023,672.5029 384.8783,673.4269 384.4237,674.8129 384.4237,675.7369 384.8783,677.1156 385.8023,678.0543 386.7264,678.5089"/>
    <polygon points="388.1197,678.0543 389.029,677.5849 389.4984,677.1156 389.9677,675.7369 389.9677,674.8129 389.4984,673.4269 389.029,672.9649 388.1197,672.5029 386.7264,672.5029 385.8023,672.9649 385.333,673.4269 384.8783,674.8129 384.8783,675.7369 385.333,677.1156 385.8023,677.5849 386.7264,678.0543"/>
    <polyline points="376.5623,677.1156 377.0316,678.0543 378.4103,678.5089 379.8037,678.5089 381.197,678.0543 381.6517,677.1156 381.197,676.2063 380.2583,675.7369 377.9557,674.8129 377.0316,674.3583"/>
    <polyline points="377.501,674.8129 377.0316,673.8889 377.0316,673.4269 377.501,672.5029"/>
    <polyline points="377.0316,672.9649 378.4103,672.5029 379.8037,672.5029 381.197,672.9649"/>
    <polyline points="380.7277,672.5029 381.197,673.4269 381.6517,673.4269"/>
    <polyline points="376.5623,677.1156 377.0316,677.1156 377.501,678.0543"/>
    <polyline points="377.0316,677.5849 378.4103,678.0543 379.8037,678.0543 381.197,677.5849"/>
    <polyline points="380.7277,678.0543 381.197,677.1156 380.7277,676.2063"/>
    <polyline points="381.197,676.6609 380.2583,676.2063 377.9557,675.2676 377.0316,674.8129 376.5623,673.8889 376.5623,673.4269 377.0316,672.5029 378.4103,672.0409 379.8037,672.0409 381.197,672.5029 381.6517,673.4269"/>
    <polyline points="393.649,658.7826 394.1184,659.7213 395.497,660.1759 396.8904,660.1759 398.2837,659.7213 398.7384,658.7826 398.2837,657.8733 397.345,657.4039 395.0424,656.4799 394.1184,656.0253"/>
    <polyline points="394.5877,656.4799 394.1184,655.5559 394.1184,655.0939 394.5877,654.1699"/>
    <polyline points="394.1184,654.6319 395.497,654.1699 396.8904,654.1699 398.2837,654.6319"/>
    <polyline points="397.8144,654.1699 398.2837,655.0939 398.7384,655.0939"/>
    <polyline points="393.649,658.7826 394.1184,658.7826 394.5877,659.7213"/>
    <polyline points="394.1184,659.2519 395.497,659.7213 396.8904,659.7213 398.2837,659.2519"/>
    <polyline points="397.8144,659.7213 398.2837,658.7826 397.8144,657.8733"/>
    <polyline points="398.2837,658.3279 397.345,657.8733 395.0424,656.9346 394.1184,656.4799 393.649,655.5559 393.649,655.0939 394.1184,654.1699 395.497,653.7079 396.8904,653.7079 398.2837,654.1699 398.7384,655.0939"/>
    <polygon points="390.4224,663.4173 390.8771,662.9479 390.8771,662.4786 390.4224,662.0239 389.9531,662.0239 389.4837,662.4786 389.4837,662.9479 389.9531,663.4173"/>
    <polygon points="390.4224,662.9479 390.4224,662.4786 389.9531,662.4786 389.9531,662.9479"/>
    <polyline points="390.4224,660.1759 390.4224,653.7079 389.9531,653.7079"/>
    <polyline points="390.4224,660.1759 389.9531,660.1759 389.9531,653.7079"/>
    <polyline points="386.2571,660.1759 386.2571,653.7079 385.7878,653.7079"/>
    <polyline points="386.2571,660.1759 385.7878,660.1759 385.7878,653.7079"/>
    <polyline points="385.7878,658.3279 384.4091,659.7213 383.4704,660.1759 382.0917,660.1759 381.1677,659.7213 380.7131,658.3279 380.7131,653.7079"/>
    <polyline points="385.7878,658.3279 384.4091,659.2519 383.4704,659.7213 382.5611,659.7213 381.6224,659.2519 381.1677,658.3279 381.1677,653.7079 380.7131,653.7079"/>
    <polyline points="431.5478,590.0832 431.5478,580.3739 431.0785,580.3739"/>
    <polyline points="431.5478,590.0832 431.0785,590.0832 431.0785,580.3739"/>
    <polygon points="427.3825,590.0832 427.8372,589.6139 427.8372,589.1446 427.3825,588.6899 426.9132,588.6899 426.4439,589.1446 426.4439,589.6139 426.9132,590.0832"/>
    <polygon points="427.3825,589.6139 427.3825,589.1446 426.9132,589.1446 426.9132,589.6139"/>
    <polyline points="427.3825,586.8419 427.3825,580.3739 426.9132,580.3739"/>
    <polyline points="427.3825,586.8419 426.9132,586.8419 426.9132,580.3739"/>
    <polyline points="423.2171,586.8419 423.2171,580.3739 422.7478,580.3739"/>
    <polyline points="423.2171,586.8419 422.7478,586.8419 422.7478,580.3739"/>
    <polyline points="422.7478,584.9939 421.3691,586.3872 420.4304,586.8419 419.0518,586.8419 418.1278,586.3872 417.6731,584.9939 417.6731,580.3739"/>
    <polyline points="422.7478,584.9939 421.3691,585.9179 420.4304,586.3872 419.5211,586.3872 418.5824,585.9179 418.1278,584.9939 418.1278,580.3739 417.6731,580.3739"/>
    <polyline points="413.9771,583.6005 408.8878,583.6005 408.8878,584.9939 409.3424,585.9179 409.8118,586.3872 410.7358,586.8419 412.1291,586.8419 413.0384,586.3872 413.9771,585.4486 414.4318,584.0699 414.4318,583.1459 413.9771,581.7599 413.0384,580.8359 412.1291,580.3739 410.7358,580.3739 409.8118,580.8359 408.8878,581.7599"/>
    <polyline points="413.9771,584.0699 409.3424,584.0699 409.3424,584.9939 409.8118,585.9179 410.7358,586.3872 412.1291,586.3872 413.0384,585.9179 413.5078,585.4486 413.9771,584.0699 413.9771,583.1459 413.5078,581.7599 413.0384,581.2979 412.1291,580.8359 410.7358,580.8359 409.8118,581.2979 409.3424,582.2219 408.8878,581.7599"/>
    <polyline points="394.1038,585.4486 395.0278,586.3872 395.9518,586.8419 397.3451,586.8419 398.2544,586.3872 399.1931,585.4486 399.6478,584.0699 399.6478,583.1459 399.1931,581.7599 398.2544,580.8359 397.3451,580.3739 395.9518,580.3739 395.0278,580.8359 394.1038,581.7599"/>
    <polyline points="394.1038,585.4486 394.5584,584.9939 395.0278,585.9179 395.9518,586.3872 397.3451,586.3872 398.2544,585.9179 398.7238,585.4486 399.1931,584.0699 399.1931,583.1459 398.7238,581.7599 398.2544,581.2979 397.3451,580.8359 395.9518,580.8359 395.0278,581.2979 394.5584,582.2219 394.1038,581.7599"/>
    <polygon points="389.0291,586.8419 389.9384,586.3872 390.8771,585.4486 391.3318,584.0699 391.3318,583.1459 390.8771,581.7599 389.9384,580.8359 389.0291,580.3739 387.6358,580.3739 386.7117,580.8359 385.7877,581.7599 385.3331,583.1459 385.3331,584.0699 385.7877,585.4486 386.7117,586.3872 387.6358,586.8419"/>
    <polygon points="389.0291,586.3872 389.9384,585.9179 390.4078,585.4486 390.8771,584.0699 390.8771,583.1459 390.4078,581.7599 389.9384,581.2979 389.0291,580.8359 387.6358,580.8359 386.7117,581.2979 386.2424,581.7599 385.7877,583.1459 385.7877,584.0699 386.2424,585.4486 386.7117,585.9179 387.6358,586.3872"/>
    <polyline points="377.4717,585.4486 377.941,586.3872 379.3197,586.8419 380.7131,586.8419 382.1064,586.3872 382.5611,585.4486 382.1064,584.5392 381.1677,584.0699 378.8651,583.1459 377.941,582.6912"/>
    <polyline points="378.4104,583.1459 377.941,582.2219 377.941,581.7599 378.4104,580.8359"/>
    <polyline points="377.941,581.2979 379.3197,580.8359 380.7131,580.8359 382.1064,581.2979"/>
    <polyline points="381.6371,580.8359 382.1064,581.7599 382.5611,581.7599"/>
    <polyline points="377.4717,585.4486 377.941,585.4486 378.4104,586.3872"/>
    <polyline points="377.941,585.9179 379.3197,586.3872 380.7131,586.3872 382.1064,585.9179"/>
    <polyline points="381.6371,586.3872 382.1064,585.4486 381.6371,584.5392"/>
    <polyline points="382.1064,584.9939 381.1677,584.5392 378.8651,583.6005 377.941,583.1459 377.4717,582.2219 377.4717,581.7599 377.941,580.8359 379.3197,580.3739 380.7131,580.3739 382.1064,580.8359 382.5611,581.7599"/>
    <polyline points="393.649,567.1155 394.1184,568.0542 395.497,568.5089 396.8904,568.5089 398.2837,568.0542 398.7384,567.1155 398.2837,566.2062 397.345,565.7369 395.0424,564.8129 394.1184,564.3582"/>
    <polyline points="394.5877,564.8129 394.1184,563.8889 394.1184,563.4269 394.5877,562.5029"/>
    <polyline points="394.1184,562.9649 395.497,562.5029 396.8904,562.5029 398.2837,562.9649"/>
    <polyline points="397.8144,562.5029 398.2837,563.4269 398.7384,563.4269"/>
    <polyline points="393.649,567.1155 394.1184,567.1155 394.5877,568.0542"/>
    <polyline points="394.1184,567.5849 395.497,568.0542 396.8904,568.0542 398.2837,567.5849"/>
    <polyline points="397.8144,568.0542 398.2837,567.1155 397.8144,566.2062"/>
    <polyline points="398.2837,566.6609 397.345,566.2062 395.0424,565.2675 394.1184,564.8129 393.649,563.8889 393.649,563.4269 394.1184,562.5029 395.497,562.0409 396.8904,562.0409 398.2837,562.5029 398.7384,563.4269"/>
    <polygon points="390.4224,571.7502 390.8771,571.2809 390.8771,570.8116 390.4224,570.3569 389.9531,570.3569 389.4837,570.8116 389.4837,571.2809 389.9531,571.7502"/>
    <polygon points="390.4224,571.2809 390.4224,570.8116 389.9531,570.8116 389.9531,571.2809"/>
    <polyline points="390.4224,568.5089 390.4224,562.0409 389.9531,562.0409"/>
    <polyline points="390.4224,568.5089 389.9531,568.5089 389.9531,562.0409"/>
    <polyline points="386.2571,568.5089 386.2571,562.0409 385.7878,562.0409"/>
    <polyline points="386.2571,568.5089 385.7878,568.5089 385.7878,562.0409"/>
    <polyline points="385.7878,566.6609 384.4091,568.0542 383.4704,568.5089 382.0917,568.5089 381.1677,568.0542 380.7131,566.6609 380.7131,562.0409"/>
    <polyline points="385.7878,566.6609 384.4091,567.5849 383.4704,568.0542 382.5611,568.0542 381.6224,567.5849 381.1677,566.6609 381.1677,562.0409 380.7131,562.0409"/>
    <polyline points="393.1944,548.7825 394.1184,549.7212 395.0424,550.1759 396.4357,550.1759 397.345,549.7212 398.2837,548.7825 398.7384,547.4039 398.7384,546.4799 398.2837,545.0939 397.345,544.1699 396.4357,543.7079 395.0424,543.7079 394.1184,544.1699 393.1944,545.0939"/>
    <polyline points="393.1944,548.7825 393.649,548.3279 394.1184,549.2519 395.0424,549.7212 396.4357,549.7212 397.345,549.2519 397.8144,548.7825 398.2837,547.4039 398.2837,546.4799 397.8144,545.0939 397.345,544.6319 396.4357,544.1699 395.0424,544.1699 394.1184,544.6319 393.649,545.5559 393.1944,545.0939"/>
    <polygon points="388.1197,550.1759 389.029,549.7212 389.9677,548.7825 390.4224,547.4039 390.4224,546.4799 389.9677,545.0939 389.029,544.1699 388.1197,543.7079 386.7264,543.7079 385.8023,544.1699 384.8783,545.0939 384.4237,546.4799 384.4237,547.4039 384.8783,548.7825 385.8023,549.7212 386.7264,550.1759"/>
    <polygon points="388.1197,549.7212 389.029,549.2519 389.4984,548.7825 389.9677,547.4039 389.9677,546.4799 389.4984,545.0939 389.029,544.6319 388.1197,544.1699 386.7264,544.1699 385.8023,544.6319 385.333,545.0939 384.8783,546.4799 384.8783,547.4039 385.333,548.7825 385.8023,549.2519 386.7264,549.7212"/>
    <polyline points="376.5623,548.7825 377.0316,549.7212 378.4103,550.1759 379.8037,550.1759 381.197,549.7212 381.6517,548.7825 381.197,547.8732 380.2583,547.4039 377.9557,546.4799 377.0316,546.0252"/>
    <polyline points="377.501,546.4799 377.0316,545.5559 377.0316,545.0939 377.501,544.1699"/>
    <polyline points="377.0316,544.6319 378.4103,544.1699 379.8037,544.1699 381.197,544.6319"/>
    <polyline points="380.7277,544.1699 381.197,545.0939 381.6517,545.0939"/>
    <polyline points="376.5623,548.7825 377.0316,548.7825 377.501,549.7212"/>
    <polyline points="377.0316,549.2519 378.4103,549.7212 379.8037,549.7212 381.197,549.2519"/>
    <polyline points="380.7277,549.7212 381.197,548.7825 380.7277,547.8732"/>
    <polyline points="381.197,548.3279 380.2583,547.8732 377.9557,546.9345 377.0316,546.4799 376.5623,545.5559 376.5623,545.0939 377.0316,544.1699 378.4103,543.7079 379.8037,543.7079 381.197,544.1699 381.6517,545.0939"/>
    <polyline points="393.649,530.4485 394.1184,531.3872 395.497,531.8419 396.8904,531.8419 398.2837,531.3872 398.7384,530.4485 398.2837,529.5392 397.345,529.0699 395.0424,528.1459 394.1184,527.6912"/>
    <polyline points="394.5877,528.1459 394.1184,527.2218 394.1184,526.7598 394.5877,525.8358"/>
    <polyline points="394.1184,526.2978 395.497,525.8358 396.8904,525.8358 398.2837,526.2978"/>
    <polyline points="397.8144,525.8358 398.2837,526.7598 398.7384,526.7598"/>
    <polyline points="393.649,530.4485 394.1184,530.4485 394.5877,531.3872"/>
    <polyline points="394.1184,530.9179 395.497,531.3872 396.8904,531.3872 398.2837,530.9179"/>
    <polyline points="397.8144,531.3872 398.2837,530.4485 397.8144,529.5392"/>
    <polyline points="398.2837,529.9939 397.345,529.5392 395.0424,528.6005 394.1184,528.1459 393.649,527.2218 393.649,526.7598 394.1184,525.8358 395.497,525.3738 396.8904,525.3738 398.2837,525.8358 398.7384,526.7598"/>
    <polygon points="390.4224,535.0832 390.8771,534.6139 390.8771,534.1445 390.4224,533.6899 389.9531,533.6899 389.4837,534.1445 389.4837,534.6139 389.9531,535.0832"/>
    <polygon points="390.4224,534.6139 390.4224,534.1445 389.9531,534.1445 389.9531,534.6139"/>
    <polyline points="390.4224,531.8419 390.4224,525.3738 389.9531,525.3738"/>
    <polyline points="390.4224,531.8419 389.9531,531.8419 389.9531,525.3738"/>
    <polyline points="386.2571,531.8419 386.2571,525.3738 385.7878,525.3738"/>
    <polyline points="386.2571,531.8419 385.7878,531.8419 385.7878,525.3738"/>
    <polyline points="385.7878,529.9939 384.4091,531.3872 383.4704,531.8419 382.0917,531.8419 381.1677,531.3872 380.7131,529.9939 380.7131,525.3738"/>
    <polyline points="385.7878,529.9939 384.4091,530.9179 383.4704,531.3872 382.5611,531.3872 381.6224,530.9179 381.1677,529.9939 381.1677,525.3738 380.7131,525.3738"/>
    <polyline points="437.5465,438.7815 438.4705,439.7201 439.3945,440.1748 440.7878,440.1748 441.6972,439.7201 442.6358,438.7815 443.0905,437.4028 443.0905,436.4788 442.6358,435.0928 441.6972,434.1688 440.7878,433.7068 439.3945,433.7068 438.4705,434.1688 437.5465,435.0928"/>
    <polyline points="437.5465,438.7815 438.0011,438.3268 438.4705,439.2508 439.3945,439.7201 440.7878,439.7201 441.6972,439.2508 442.1665,438.7815 442.6358,437.4028 442.6358,436.4788 442.1665,435.0928 441.6972,434.6308 440.7878,434.1688 439.3945,434.1688 438.4705,434.6308 438.0011,435.5548 437.5465,435.0928"/>
    <polygon points="434.3198,443.4162 434.7745,442.9468 434.7745,442.4775 434.3198,442.0228 433.8505,442.0228 433.3812,442.4775 433.3812,442.9468 433.8505,443.4162"/>
    <polygon points="434.3198,442.9468 434.3198,442.4775 433.8505,442.4775 433.8505,442.9468"/>
    <polyline points="434.3198,440.1748 434.3198,433.7068 433.8505,433.7068"/>
    <polyline points="434.3198,440.1748 433.8505,440.1748 433.8505,433.7068"/>
    <polyline points="430.1545,440.1748 430.1545,433.7068 429.6852,433.7068"/>
    <polyline points="430.1545,440.1748 429.6852,440.1748 429.6852,433.7068"/>
    <polyline points="429.6852,437.4028 429.2159,438.7815 428.3065,439.7201 427.3678,440.1748 425.9892,440.1748"/>
    <polyline points="429.6852,437.4028 429.2159,438.3268 428.3065,439.2508 427.3678,439.7201 425.9892,439.7201 425.9892,440.1748"/>
    <polyline points="418.5972,438.7815 419.5212,439.7201 420.4452,440.1748 421.8385,440.1748 422.7478,439.7201 423.6865,438.7815 424.1412,437.4028 424.1412,436.4788 423.6865,435.0928 422.7478,434.1688 421.8385,433.7068 420.4452,433.7068 419.5212,434.1688 418.5972,435.0928"/>
    <polyline points="418.5972,438.7815 419.0518,438.3268 419.5212,439.2508 420.4452,439.7201 421.8385,439.7201 422.7478,439.2508 423.2172,438.7815 423.6865,437.4028 423.6865,436.4788 423.2172,435.0928 422.7478,434.6308 421.8385,434.1688 420.4452,434.1688 419.5212,434.6308 419.0518,435.5548 418.5972,435.0928"/>
    <polyline points="412.1292,443.4162 413.0532,443.4162 413.9772,442.9468 414.4318,441.5681 414.4318,433.7068 413.9772,433.7068"/>
    <polyline points="412.1292,443.4162 412.1292,442.9468 413.0532,442.9468 413.9772,442.4775"/>
    <polyline points="413.5225,442.9468 413.9772,441.5681 413.9772,433.7068"/>
    <polyline points="415.8252,440.1748 412.5838,440.1748 412.5838,439.7201"/>
    <polyline points="415.8252,440.1748 415.8252,439.7201 412.5838,439.7201"/>
    <polygon points="408.9024,443.4162 409.3571,442.9468 409.3571,442.4775 408.9024,442.0228 408.4331,442.0228 407.9637,442.4775 407.9637,442.9468 408.4331,443.4162"/>
    <polygon points="408.9024,442.9468 408.9024,442.4775 408.4331,442.4775 408.4331,442.9468"/>
    <polyline points="408.9024,440.1748 408.9024,433.7068 408.4331,433.7068"/>
    <polyline points="408.9024,440.1748 408.4331,440.1748 408.4331,433.7068"/>
    <polyline points="404.7371,443.4162 404.7371,433.7068 404.2678,433.7068"/>
    <polyline points="404.7371,443.4162 404.2678,443.4162 404.2678,433.7068"/>
    <polyline points="400.5718,443.4162 400.5718,433.7068 400.1025,433.7068"/>
    <polyline points="400.5718,443.4162 400.1025,443.4162 400.1025,433.7068"/>
    <polyline points="384.849,438.7815 385.773,439.7201 386.6971,440.1748 388.0904,440.1748 388.9997,439.7201 389.9384,438.7815 390.3931,437.4028 390.3931,436.4788 389.9384,435.0928 388.9997,434.1688 388.0904,433.7068 386.6971,433.7068 385.773,434.1688 384.849,435.0928"/>
    <polyline points="384.849,438.7815 385.3037,438.3268 385.773,439.2508 386.6971,439.7201 388.0904,439.7201 388.9997,439.2508 389.4691,438.7815 389.9384,437.4028 389.9384,436.4788 389.4691,435.0928 388.9997,434.6308 388.0904,434.1688 386.6971,434.1688 385.773,434.6308 385.3037,435.5548 384.849,435.0928"/>
    <polygon points="379.7744,440.1748 380.6837,439.7201 381.6224,438.7815 382.0771,437.4028 382.0771,436.4788 381.6224,435.0928 380.6837,434.1688 379.7744,433.7068 378.3811,433.7068 377.457,434.1688 376.533,435.0928 376.0784,436.4788 376.0784,437.4028 376.533,438.7815 377.457,439.7201 378.3811,440.1748"/>
    <polygon points="379.7744,439.7201 380.6837,439.2508 381.1531,438.7815 381.6224,437.4028 381.6224,436.4788 381.1531,435.0928 380.6837,434.6308 379.7744,434.1688 378.3811,434.1688 377.457,434.6308 376.9877,435.0928 376.533,436.4788 376.533,437.4028 376.9877,438.7815 377.457,439.2508 378.3811,439.7201"/>
    <polyline points="368.217,438.7815 368.6863,439.7201 370.065,440.1748 371.4584,440.1748 372.8517,439.7201 373.3064,438.7815 372.8517,437.8721 371.913,437.4028 369.6103,436.4788 368.6863,436.0241"/>
    <polyline points="369.1557,436.4788 368.6863,435.5548 368.6863,435.0928 369.1557,434.1688"/>
    <polyline points="368.6863,434.6308 370.065,434.1688 371.4584,434.1688 372.8517,434.6308"/>
    <polyline points="372.3824,434.1688 372.8517,435.0928 373.3064,435.0928"/>
    <polyline points="368.217,438.7815 368.6863,438.7815 369.1557,439.7201"/>
    <polyline points="368.6863,439.2508 370.065,439.7201 371.4584,439.7201 372.8517,439.2508"/>
    <polyline points="372.3824,439.7201 372.8517,438.7815 372.3824,437.8721"/>
    <polyline points="372.8517,438.3268 371.913,437.8721 369.6103,436.9335 368.6863,436.4788 368.217,435.5548 368.217,435.0928 368.6863,434.1688 370.065,433.7068 371.4584,433.7068 372.8517,434.1688 373.3064,435.0928"/>
    <polyline points="382.561,420.4485 383.0303,421.3871 384.409,421.8418 385.8024,421.8418 387.1957,421.3871 387.6504,420.4485 387.1957,419.5391 386.257,419.0698 383.9544,418.1458 383.0303,417.6911"/>
    <polyline points="383.4997,418.1458 383.0303,417.2218 383.0303,416.7598 383.4997,415.8358"/>
    <polyline points="383.0303,416.2978 384.409,415.8358 385.8024,415.8358 387.1957,416.2978"/>
    <polyline points="386.7264,415.8358 387.1957,416.7598 387.6504,416.7598"/>
    <polyline points="382.561,420.4485 383.0303,420.4485 383.4997,421.3871"/>
    <polyline points="383.0303,420.9178 384.409,421.3871 385.8024,421.3871 387.1957,420.9178"/>
    <polyline points="386.7264,421.3871 387.1957,420.4485 386.7264,419.5391"/>
    <polyline points="387.1957,419.9938 386.257,419.5391 383.9544,418.6005 383.0303,418.1458 382.561,417.2218 382.561,416.7598 383.0303,415.8358 384.409,415.3738 385.8024,415.3738 387.1957,415.8358 387.6504,416.7598"/>
    <polygon points="379.3344,425.0831 379.7891,424.6138 379.7891,424.1445 379.3344,423.6898 378.8651,423.6898 378.3957,424.1445 378.3957,424.6138 378.8651,425.0831"/>
    <polygon points="379.3344,424.6138 379.3344,424.1445 378.8651,424.1445 378.8651,424.6138"/>
    <polyline points="379.3344,421.8418 379.3344,415.3738 378.8651,415.3738"/>
    <polyline points="379.3344,421.8418 378.8651,421.8418 378.8651,415.3738"/>
    <polyline points="375.169,421.8418 375.169,415.3738 374.6997,415.3738"/>
    <polyline points="375.169,421.8418 374.6997,421.8418 374.6997,415.3738"/>
    <polyline points="374.6997,419.9938 373.321,421.3871 372.3823,421.8418 371.0036,421.8418 370.0796,421.3871 369.625,419.9938 369.625,415.3738"/>
    <polyline points="374.6997,419.9938 373.321,420.9178 372.3823,421.3871 371.473,421.3871 370.5343,420.9178 370.0796,419.9938 370.0796,415.3738 369.625,415.3738"/>
    <polyline points="453.7239,366.8418 453.7239,357.1471 453.2546,357.1471"/>
    <polyline points="453.7239,366.8418 453.2546,366.8418 453.2546,357.1471"/>
    <polyline points="453.2546,365.4484 452.3306,366.3871 451.4066,366.8418 450.0279,366.8418 449.0893,366.3871 448.1799,365.4484 447.7106,364.0698 447.7106,363.1458 448.1799,361.7598 449.0893,360.8358 450.0279,360.3738 451.4066,360.3738 452.3306,360.8358 453.2546,361.7598"/>
    <polyline points="453.2546,365.4484 451.4066,366.3871 450.0279,366.3871 449.0893,365.9178 448.6346,365.4484 448.1799,364.0698 448.1799,363.1458 448.6346,361.7598 449.0893,361.2978 450.0279,360.8358 451.4066,360.8358 453.2546,361.7598"/>
    <polyline points="439.8492,365.4484 440.3186,366.3871 441.6972,366.8418 443.0906,366.8418 444.4839,366.3871 444.9386,365.4484 444.4839,364.5391 443.5453,364.0698 441.2426,363.1458 440.3186,362.6911"/>
    <polyline points="440.7879,363.1458 440.3186,362.2218 440.3186,361.7598 440.7879,360.8358"/>
    <polyline points="440.3186,361.2978 441.6972,360.8358 443.0906,360.8358 444.4839,361.2978"/>
    <polyline points="444.0146,360.8358 444.4839,361.7598 444.9386,361.7598"/>
    <polyline points="439.8492,365.4484 440.3186,365.4484 440.7879,366.3871"/>
    <polyline points="440.3186,365.9178 441.6972,366.3871 443.0906,366.3871 444.4839,365.9178"/>
    <polyline points="444.0146,366.3871 444.4839,365.4484 444.0146,364.5391"/>
    <polyline points="444.4839,364.9938 443.5453,364.5391 441.2426,363.6004 440.3186,363.1458 439.8492,362.2218 439.8492,361.7598 440.3186,360.8358 441.6972,360.3738 443.0906,360.3738 444.4839,360.8358 444.9386,361.7598"/>
    <polyline points="436.6225,363.6004 431.5332,363.6004 431.5332,364.9938 431.9878,365.9178 432.4572,366.3871 433.3812,366.8418 434.7745,366.8418 435.6839,366.3871 436.6225,365.4484 437.0772,364.0698 437.0772,363.1458 436.6225,361.7598 435.6839,360.8358 434.7745,360.3738 433.3812,360.3738 432.4572,360.8358 431.5332,361.7598"/>
    <polyline points="436.6225,364.0698 431.9878,364.0698 431.9878,364.9938 432.4572,365.9178 433.3812,366.3871 434.7745,366.3871 435.6839,365.9178 436.1532,365.4484 436.6225,364.0698 436.6225,363.1458 436.1532,361.7598 435.6839,361.2978 434.7745,360.8358 433.3812,360.8358 432.4572,361.2978 431.9878,362.2218 431.5332,361.7598"/>
    <polyline points="427.8372,370.0831 427.8372,360.3738 427.3679,360.3738"/>
    <polyline points="427.8372,370.0831 427.3679,370.0831 427.3679,360.3738"/>
    <polyline points="429.2159,366.8418 425.9892,366.8418 425.9892,366.3871"/>
    <polyline points="429.2159,366.8418 429.2159,366.3871 425.9892,366.3871"/>
  </g>
</svg>
